<svg width="260" height="260" viewBox="0 0 260 260" fill="none" xmlns="http://www.w3.org/2000/svg">
<circle r="130" transform="matrix(-1 0 0 1 130 130)" fill="#F6F6F6"/>
<path d="M166.329 147.424V152.464L160.857 166H94.7611L92.1691 161.104L115.785 142.384C119.241 139.696 122.217 137.152 124.713 134.752C127.305 132.352 129.465 129.952 131.193 127.552C132.921 125.152 134.169 122.752 134.937 120.352C135.801 117.856 136.233 115.216 136.233 112.432C136.233 109.168 135.465 106.624 133.929 104.8C132.393 102.88 130.281 101.92 127.593 101.92C126.537 101.92 125.385 102.064 124.137 102.352C122.985 102.64 122.025 102.928 121.257 103.216L116.505 124.96H97.2091V106.24L132.057 94.144C142.521 94.144 150.153 95.968 154.953 99.616C159.849 103.168 162.297 107.824 162.297 113.584C162.297 119.92 159.321 125.44 153.369 130.144C147.513 134.752 139.449 139.168 129.177 143.392L111.897 150.448L125.289 147.424H166.329Z" fill="#F9F9F9"/>
<path d="M62 184H198" stroke="#119737" strokeWidth="3" strokeLinecap="square" strokeLinejoin="round"/>
<path d="M84 176V150" stroke="#173048" strokeWidth="3" strokeLinejoin="round"/>
<path d="M68 180V137C68 134.791 69.7909 133 72 133H124" stroke="#173048" strokeWidth="3" strokeLinejoin="round"/>
<path d="M122.778 167L124.255 167.263L122.778 167ZM96 167V165.5H94.5V167H96ZM128.853 132.825L130.33 133.088L128.853 132.825ZM191.791 133.175L190.314 132.912L191.791 133.175ZM184.147 176.175L185.624 176.438L184.147 176.175ZM121.209 175.825L119.732 175.562L121.209 175.825ZM122.193 178.5H183.162V175.5H122.193V178.5ZM185.624 176.438L193.268 133.438L190.314 132.912L182.67 175.912L185.624 176.438ZM190.807 130.5H129.838V133.5H190.807V130.5ZM127.376 132.562L121.301 166.737L124.255 167.263L130.33 133.088L127.376 132.562ZM121.301 166.737L119.732 175.562L122.686 176.088L124.255 167.263L121.301 166.737ZM122.778 167C122.778 165.5 122.778 165.5 122.778 165.5C122.777 165.5 122.777 165.5 122.777 165.5C122.777 165.5 122.777 165.5 122.776 165.5C122.776 165.5 122.776 165.5 122.775 165.5C122.775 165.5 122.774 165.5 122.774 165.5C122.773 165.5 122.772 165.5 122.772 165.5C122.771 165.5 122.77 165.5 122.77 165.5C122.769 165.5 122.768 165.5 122.767 165.5C122.766 165.5 122.765 165.5 122.764 165.5C122.763 165.5 122.762 165.5 122.761 165.5C122.76 165.5 122.759 165.5 122.757 165.5C122.756 165.5 122.755 165.5 122.754 165.5C122.752 165.5 122.751 165.5 122.749 165.5C122.748 165.5 122.747 165.5 122.745 165.5C122.743 165.5 122.742 165.5 122.74 165.5C122.739 165.5 122.737 165.5 122.735 165.5C122.733 165.5 122.731 165.5 122.73 165.5C122.728 165.5 122.726 165.5 122.724 165.5C122.722 165.5 122.72 165.5 122.718 165.5C122.716 165.5 122.713 165.5 122.711 165.5C122.709 165.5 122.707 165.5 122.704 165.5C122.702 165.5 122.7 165.5 122.697 165.5C122.695 165.5 122.692 165.5 122.69 165.5C122.687 165.5 122.685 165.5 122.682 165.5C122.68 165.5 122.677 165.5 122.674 165.5C122.671 165.5 122.669 165.5 122.666 165.5C122.663 165.5 122.66 165.5 122.657 165.5C122.654 165.5 122.651 165.5 122.648 165.5C122.645 165.5 122.642 165.5 122.639 165.5C122.636 165.5 122.632 165.5 122.629 165.5C122.626 165.5 122.623 165.5 122.619 165.5C122.616 165.5 122.612 165.5 122.609 165.5C122.605 165.5 122.602 165.5 122.598 165.5C122.595 165.5 122.591 165.5 122.587 165.5C122.584 165.5 122.58 165.5 122.576 165.5C122.572 165.5 122.569 165.5 122.565 165.5C122.561 165.5 122.557 165.5 122.553 165.5C122.549 165.5 122.545 165.5 122.541 165.5C122.537 165.5 122.533 165.5 122.528 165.5C122.524 165.5 122.52 165.5 122.516 165.5C122.511 165.5 122.507 165.5 122.503 165.5C122.498 165.5 122.494 165.5 122.489 165.5C122.485 165.5 122.48 165.5 122.475 165.5C122.471 165.5 122.466 165.5 122.462 165.5C122.457 165.5 122.452 165.5 122.447 165.5C122.442 165.5 122.438 165.5 122.433 165.5C122.428 165.5 122.423 165.5 122.418 165.5C122.413 165.5 122.408 165.5 122.403 165.5C122.397 165.5 122.392 165.5 122.387 165.5C122.382 165.5 122.377 165.5 122.371 165.5C122.366 165.5 122.361 165.5 122.355 165.5C122.35 165.5 122.344 165.5 122.339 165.5C122.333 165.5 122.328 165.5 122.322 165.5C122.317 165.5 122.311 165.5 122.305 165.5C122.3 165.5 122.294 165.5 122.288 165.5C122.282 165.5 122.276 165.5 122.27 165.5C122.264 165.5 122.259 165.5 122.253 165.5C122.247 165.5 122.24 165.5 122.234 165.5C122.228 165.5 122.222 165.5 122.216 165.5C122.21 165.5 122.203 165.5 122.197 165.5C122.191 165.5 122.185 165.5 122.178 165.5C122.172 165.5 122.165 165.5 122.159 165.5C122.152 165.5 122.146 165.5 122.139 165.5C122.133 165.5 122.126 165.5 122.119 165.5C122.113 165.5 122.106 165.5 122.099 165.5C122.092 165.5 122.086 165.5 122.079 165.5C122.072 165.5 122.065 165.5 122.058 165.5C122.051 165.5 122.044 165.5 122.037 165.5C122.03 165.5 122.023 165.5 122.016 165.5C122.008 165.5 122.001 165.5 121.994 165.5C121.987 165.5 121.979 165.5 121.972 165.5C121.965 165.5 121.957 165.5 121.95 165.5C121.942 165.5 121.935 165.5 121.927 165.5C121.92 165.5 121.912 165.5 121.905 165.5C121.897 165.5 121.889 165.5 121.882 165.5C121.874 165.5 121.866 165.5 121.858 165.5C121.851 165.5 121.843 165.5 121.835 165.5C121.827 165.5 121.819 165.5 121.811 165.5C121.803 165.5 121.795 165.5 121.787 165.5C121.779 165.5 121.771 165.5 121.762 165.5C121.754 165.5 121.746 165.5 121.738 165.5C121.729 165.5 121.721 165.5 121.713 165.5C121.704 165.5 121.696 165.5 121.688 165.5C121.679 165.5 121.671 165.5 121.662 165.5C121.653 165.5 121.645 165.5 121.636 165.5C121.628 165.5 121.619 165.5 121.61 165.5C121.601 165.5 121.593 165.5 121.584 165.5C121.575 165.5 121.566 165.5 121.557 165.5C121.548 165.5 121.539 165.5 121.53 165.5C121.521 165.5 121.512 165.5 121.503 165.5C121.494 165.5 121.485 165.5 121.476 165.5C121.467 165.5 121.457 165.5 121.448 165.5C121.439 165.5 121.43 165.5 121.42 165.5C121.411 165.5 121.402 165.5 121.392 165.5C121.383 165.5 121.373 165.5 121.364 165.5C121.354 165.5 121.345 165.5 121.335 165.5C121.325 165.5 121.316 165.5 121.306 165.5C121.296 165.5 121.286 165.5 121.277 165.5C121.267 165.5 121.257 165.5 121.247 165.5C121.237 165.5 121.227 165.5 121.217 165.5C121.207 165.5 121.197 165.5 121.187 165.5C121.177 165.5 121.167 165.5 121.157 165.5C121.147 165.5 121.137 165.5 121.127 165.5C121.116 165.5 121.106 165.5 121.096 165.5C121.085 165.5 121.075 165.5 121.065 165.5C121.054 165.5 121.044 165.5 121.033 165.5C121.023 165.5 121.012 165.5 121.002 165.5C120.991 165.5 120.981 165.5 120.97 165.5C120.959 165.5 120.949 165.5 120.938 165.5C120.927 165.5 120.916 165.5 120.906 165.5C120.895 165.5 120.884 165.5 120.873 165.5C120.862 165.5 120.851 165.5 120.84 165.5C120.829 165.5 120.818 165.5 120.807 165.5C120.796 165.5 120.785 165.5 120.774 165.5C120.763 165.5 120.751 165.5 120.74 165.5C120.729 165.5 120.718 165.5 120.706 165.5C120.695 165.5 120.684 165.5 120.672 165.5C120.661 165.5 120.649 165.5 120.638 165.5C120.626 165.5 120.615 165.5 120.603 165.5C120.592 165.5 120.58 165.5 120.568 165.5C120.557 165.5 120.545 165.5 120.533 165.5C120.522 165.5 120.51 165.5 120.498 165.5C120.486 165.5 120.474 165.5 120.463 165.5C120.451 165.5 120.439 165.5 120.427 165.5C120.415 165.5 120.403 165.5 120.391 165.5C120.379 165.5 120.367 165.5 120.355 165.5C120.342 165.5 120.33 165.5 120.318 165.5C120.306 165.5 120.294 165.5 120.281 165.5C120.269 165.5 120.257 165.5 120.244 165.5C120.232 165.5 120.219 165.5 120.207 165.5C120.195 165.5 120.182 165.5 120.17 165.5C120.157 165.5 120.144 165.5 120.132 165.5C120.119 165.5 120.107 165.5 120.094 165.5C120.081 165.5 120.069 165.5 120.056 165.5C120.043 165.5 120.03 165.5 120.017 165.5C120.005 165.5 119.992 165.5 119.979 165.5C119.966 165.5 119.953 165.5 119.94 165.5C119.927 165.5 119.914 165.5 119.901 165.5C119.888 165.5 119.875 165.5 119.862 165.5C119.848 165.5 119.835 165.5 119.822 165.5C119.809 165.5 119.795 165.5 119.782 165.5C119.769 165.5 119.756 165.5 119.742 165.5C119.729 165.5 119.715 165.5 119.702 165.5C119.689 165.5 119.675 165.5 119.662 165.5C119.648 165.5 119.634 165.5 119.621 165.5C119.607 165.5 119.594 165.5 119.58 165.5C119.566 165.5 119.553 165.5 119.539 165.5C119.525 165.5 119.511 165.5 119.497 165.5C119.484 165.5 119.47 165.5 119.456 165.5C119.442 165.5 119.428 165.5 119.414 165.5C119.4 165.5 119.386 165.5 119.372 165.5C119.358 165.5 119.344 165.5 119.33 165.5C119.316 165.5 119.302 165.5 119.287 165.5C119.273 165.5 119.259 165.5 119.245 165.5C119.23 165.5 119.216 165.5 119.202 165.5C119.187 165.5 119.173 165.5 119.159 165.5C119.144 165.5 119.13 165.5 119.115 165.5C119.101 165.5 119.086 165.5 119.072 165.5C119.057 165.5 119.043 165.5 119.028 165.5C119.013 165.5 118.999 165.5 118.984 165.5C118.969 165.5 118.955 165.5 118.94 165.5C118.925 165.5 118.91 165.5 118.896 165.5C118.881 165.5 118.866 165.5 118.851 165.5C118.836 165.5 118.821 165.5 118.806 165.5C118.791 165.5 118.776 165.5 118.761 165.5C118.746 165.5 118.731 165.5 118.716 165.5C118.701 165.5 118.686 165.5 118.67 165.5C118.655 165.5 118.64 165.5 118.625 165.5C118.61 165.5 118.594 165.5 118.579 165.5C118.564 165.5 118.548 165.5 118.533 165.5C118.517 165.5 118.502 165.5 118.487 165.5C118.471 165.5 118.456 165.5 118.44 165.5C118.425 165.5 118.409 165.5 118.393 165.5C118.378 165.5 118.362 165.5 118.347 165.5C118.331 165.5 118.315 165.5 118.3 165.5C118.284 165.5 118.268 165.5 118.252 165.5C118.236 165.5 118.221 165.5 118.205 165.5C118.189 165.5 118.173 165.5 118.157 165.5C118.141 165.5 118.125 165.5 118.109 165.5C118.093 165.5 118.077 165.5 118.061 165.5C118.045 165.5 118.029 165.5 118.013 165.5C117.997 165.5 117.981 165.5 117.964 165.5C117.948 165.5 117.932 165.5 117.916 165.5C117.9 165.5 117.883 165.5 117.867 165.5C117.851 165.5 117.834 165.5 117.818 165.5C117.801 165.5 117.785 165.5 117.769 165.5C117.752 165.5 117.736 165.5 117.719 165.5C117.703 165.5 117.686 165.5 117.67 165.5C117.653 165.5 117.636 165.5 117.62 165.5C117.603 165.5 117.586 165.5 117.57 165.5C117.553 165.5 117.536 165.5 117.52 165.5C117.503 165.5 117.486 165.5 117.469 165.5C117.452 165.5 117.436 165.5 117.419 165.5C117.402 165.5 117.385 165.5 117.368 165.5C117.351 165.5 117.334 165.5 117.317 165.5C117.3 165.5 117.283 165.5 117.266 165.5C117.249 165.5 117.232 165.5 117.214 165.5C117.197 165.5 117.18 165.5 117.163 165.5C117.146 165.5 117.129 165.5 117.111 165.5C117.094 165.5 117.077 165.5 117.059 165.5C117.042 165.5 117.025 165.5 117.007 165.5C116.99 165.5 116.973 165.5 116.955 165.5C116.938 165.5 116.92 165.5 116.903 165.5C116.885 165.5 116.868 165.5 116.85 165.5C116.833 165.5 116.815 165.5 116.797 165.5C116.78 165.5 116.762 165.5 116.744 165.5C116.727 165.5 116.709 165.5 116.691 165.5C116.674 165.5 116.656 165.5 116.638 165.5C116.62 165.5 116.602 165.5 116.585 165.5C116.567 165.5 116.549 165.5 116.531 165.5C116.513 165.5 116.495 165.5 116.477 165.5C116.459 165.5 116.441 165.5 116.423 165.5C116.405 165.5 116.387 165.5 116.369 165.5C116.351 165.5 116.333 165.5 116.315 165.5C116.297 165.5 116.278 165.5 116.26 165.5C116.242 165.5 116.224 165.5 116.206 165.5C116.187 165.5 116.169 165.5 116.151 165.5C116.132 165.5 116.114 165.5 116.096 165.5C116.077 165.5 116.059 165.5 116.041 165.5C116.022 165.5 116.004 165.5 115.985 165.5C115.967 165.5 115.948 165.5 115.93 165.5C115.911 165.5 115.893 165.5 115.874 165.5C115.855 165.5 115.837 165.5 115.818 165.5C115.8 165.5 115.781 165.5 115.762 165.5C115.744 165.5 115.725 165.5 115.706 165.5C115.687 165.5 115.669 165.5 115.65 165.5C115.631 165.5 115.612 165.5 115.593 165.5C115.574 165.5 115.556 165.5 115.537 165.5C115.518 165.5 115.499 165.5 115.48 165.5C115.461 165.5 115.442 165.5 115.423 165.5C115.404 165.5 115.385 165.5 115.366 165.5C115.347 165.5 115.328 165.5 115.308 165.5C115.289 165.5 115.27 165.5 115.251 165.5C115.232 165.5 115.213 165.5 115.193 165.5C115.174 165.5 115.155 165.5 115.136 165.5C115.116 165.5 115.097 165.5 115.078 165.5C115.059 165.5 115.039 165.5 115.02 165.5C115 165.5 114.981 165.5 114.962 165.5C114.942 165.5 114.923 165.5 114.903 165.5C114.884 165.5 114.864 165.5 114.845 165.5C114.825 165.5 114.806 165.5 114.786 165.5C114.767 165.5 114.747 165.5 114.727 165.5C114.708 165.5 114.688 165.5 114.668 165.5C114.649 165.5 114.629 165.5 114.609 165.5C114.59 165.5 114.57 165.5 114.55 165.5C114.53 165.5 114.51 165.5 114.491 165.5C114.471 165.5 114.451 165.5 114.431 165.5C114.411 165.5 114.391 165.5 114.371 165.5C114.351 165.5 114.332 165.5 114.312 165.5C114.292 165.5 114.272 165.5 114.252 165.5C114.232 165.5 114.212 165.5 114.192 165.5C114.171 165.5 114.151 165.5 114.131 165.5C114.111 165.5 114.091 165.5 114.071 165.5C114.051 165.5 114.031 165.5 114.01 165.5C113.99 165.5 113.97 165.5 113.95 165.5C113.929 165.5 113.909 165.5 113.889 165.5C113.869 165.5 113.848 165.5 113.828 165.5C113.808 165.5 113.787 165.5 113.767 165.5C113.746 165.5 113.726 165.5 113.706 165.5C113.685 165.5 113.665 165.5 113.644 165.5C113.624 165.5 113.603 165.5 113.583 165.5C113.562 165.5 113.542 165.5 113.521 165.5C113.501 165.5 113.48 165.5 113.459 165.5C113.439 165.5 113.418 165.5 113.398 165.5C113.377 165.5 113.356 165.5 113.336 165.5C113.315 165.5 113.294 165.5 113.273 165.5C113.253 165.5 113.232 165.5 113.211 165.5C113.19 165.5 113.17 165.5 113.149 165.5C113.128 165.5 113.107 165.5 113.086 165.5C113.065 165.5 113.044 165.5 113.024 165.5C113.003 165.5 112.982 165.5 112.961 165.5C112.94 165.5 112.919 165.5 112.898 165.5C112.877 165.5 112.856 165.5 112.835 165.5C112.814 165.5 112.793 165.5 112.772 165.5C112.751 165.5 112.73 165.5 112.708 165.5C112.687 165.5 112.666 165.5 112.645 165.5C112.624 165.5 112.603 165.5 112.581 165.5C112.56 165.5 112.539 165.5 112.518 165.5C112.497 165.5 112.475 165.5 112.454 165.5C112.433 165.5 112.412 165.5 112.39 165.5C112.369 165.5 112.348 165.5 112.326 165.5C112.305 165.5 112.283 165.5 112.262 165.5C112.241 165.5 112.219 165.5 112.198 165.5C112.176 165.5 112.155 165.5 112.134 165.5C112.112 165.5 112.091 165.5 112.069 165.5C112.048 165.5 112.026 165.5 112.004 165.5C111.983 165.5 111.961 165.5 111.94 165.5C111.918 165.5 111.897 165.5 111.875 165.5C111.853 165.5 111.832 165.5 111.81 165.5C111.788 165.5 111.767 165.5 111.745 165.5C111.723 165.5 111.702 165.5 111.68 165.5C111.658 165.5 111.636 165.5 111.615 165.5C111.593 165.5 111.571 165.5 111.549 165.5C111.527 165.5 111.506 165.5 111.484 165.5C111.462 165.5 111.44 165.5 111.418 165.5C111.396 165.5 111.374 165.5 111.353 165.5C111.331 165.5 111.309 165.5 111.287 165.5C111.265 165.5 111.243 165.5 111.221 165.5C111.199 165.5 111.177 165.5 111.155 165.5C111.133 165.5 111.111 165.5 111.089 165.5C111.067 165.5 111.045 165.5 111.023 165.5C111 165.5 110.978 165.5 110.956 165.5C110.934 165.5 110.912 165.5 110.89 165.5C110.868 165.5 110.845 165.5 110.823 165.5C110.801 165.5 110.779 165.5 110.757 165.5C110.734 165.5 110.712 165.5 110.69 165.5C110.668 165.5 110.645 165.5 110.623 165.5C110.601 165.5 110.579 165.5 110.556 165.5C110.534 165.5 110.512 165.5 110.489 165.5C110.467 165.5 110.445 165.5 110.422 165.5C110.4 165.5 110.377 165.5 110.355 165.5C110.333 165.5 110.31 165.5 110.288 165.5C110.265 165.5 110.243 165.5 110.22 165.5C110.198 165.5 110.175 165.5 110.153 165.5C110.13 165.5 110.108 165.5 110.085 165.5C110.063 165.5 110.04 165.5 110.018 165.5C109.995 165.5 109.972 165.5 109.95 165.5C109.927 165.5 109.905 165.5 109.882 165.5C109.859 165.5 109.837 165.5 109.814 165.5C109.791 165.5 109.769 165.5 109.746 165.5C109.723 165.5 109.701 165.5 109.678 165.5C109.655 165.5 109.633 165.5 109.61 165.5C109.587 165.5 109.564 165.5 109.542 165.5C109.519 165.5 109.496 165.5 109.473 165.5C109.45 165.5 109.428 165.5 109.405 165.5C109.382 165.5 109.359 165.5 109.336 165.5C109.313 165.5 109.291 165.5 109.268 165.5C109.245 165.5 109.222 165.5 109.199 165.5C109.176 165.5 109.153 165.5 109.13 165.5C109.107 165.5 109.084 165.5 109.061 165.5C109.038 165.5 109.015 165.5 108.992 165.5C108.969 165.5 108.946 165.5 108.923 165.5C108.9 165.5 108.877 165.5 108.854 165.5C108.831 165.5 108.808 165.5 108.785 165.5C108.762 165.5 108.739 165.5 108.716 165.5C108.693 165.5 108.67 165.5 108.647 165.5C108.623 165.5 108.6 165.5 108.577 165.5C108.554 165.5 108.531 165.5 108.508 165.5C108.485 165.5 108.461 165.5 108.438 165.5C108.415 165.5 108.392 165.5 108.369 165.5C108.345 165.5 108.322 165.5 108.299 165.5C108.276 165.5 108.252 165.5 108.229 165.5C108.206 165.5 108.183 165.5 108.159 165.5C108.136 165.5 108.113 165.5 108.09 165.5C108.066 165.5 108.043 165.5 108.02 165.5C107.996 165.5 107.973 165.5 107.95 165.5C107.926 165.5 107.903 165.5 107.879 165.5C107.856 165.5 107.833 165.5 107.809 165.5C107.786 165.5 107.763 165.5 107.739 165.5C107.716 165.5 107.692 165.5 107.669 165.5C107.645 165.5 107.622 165.5 107.598 165.5C107.575 165.5 107.552 165.5 107.528 165.5C107.505 165.5 107.481 165.5 107.458 165.5C107.434 165.5 107.411 165.5 107.387 165.5C107.364 165.5 107.34 165.5 107.316 165.5C107.293 165.5 107.269 165.5 107.246 165.5C107.222 165.5 107.199 165.5 107.175 165.5C107.152 165.5 107.128 165.5 107.104 165.5C107.081 165.5 107.057 165.5 107.033 165.5C107.01 165.5 106.986 165.5 106.963 165.5C106.939 165.5 106.915 165.5 106.892 165.5C106.868 165.5 106.844 165.5 106.821 165.5C106.797 165.5 106.773 165.5 106.75 165.5C106.726 165.5 106.702 165.5 106.679 165.5C106.655 165.5 106.631 165.5 106.607 165.5C106.584 165.5 106.56 165.5 106.536 165.5C106.512 165.5 106.489 165.5 106.465 165.5C106.441 165.5 106.417 165.5 106.394 165.5C106.37 165.5 106.346 165.5 106.322 165.5C106.298 165.5 106.275 165.5 106.251 165.5C106.227 165.5 106.203 165.5 106.179 165.5C106.156 165.5 106.132 165.5 106.108 165.5C106.084 165.5 106.06 165.5 106.036 165.5C106.013 165.5 105.989 165.5 105.965 165.5C105.941 165.5 105.917 165.5 105.893 165.5C105.869 165.5 105.845 165.5 105.821 165.5C105.798 165.5 105.774 165.5 105.75 165.5C105.726 165.5 105.702 165.5 105.678 165.5C105.654 165.5 105.63 165.5 105.606 165.5C105.582 165.5 105.558 165.5 105.534 165.5C105.51 165.5 105.486 165.5 105.462 165.5C105.438 165.5 105.414 165.5 105.39 165.5C105.367 165.5 105.343 165.5 105.319 165.5C105.295 165.5 105.271 165.5 105.247 165.5C105.223 165.5 105.199 165.5 105.174 165.5C105.15 165.5 105.126 165.5 105.102 165.5C105.078 165.5 105.054 165.5 105.03 165.5C105.006 165.5 104.982 165.5 104.958 165.5C104.934 165.5 104.91 165.5 104.886 165.5C104.862 165.5 104.838 165.5 104.814 165.5C104.79 165.5 104.766 165.5 104.742 165.5C104.717 165.5 104.693 165.5 104.669 165.5C104.645 165.5 104.621 165.5 104.597 165.5C104.573 165.5 104.549 165.5 104.525 165.5C104.5 165.5 104.476 165.5 104.452 165.5C104.428 165.5 104.404 165.5 104.38 165.5C104.356 165.5 104.332 165.5 104.307 165.5C104.283 165.5 104.259 165.5 104.235 165.5C104.211 165.5 104.187 165.5 104.162 165.5C104.138 165.5 104.114 165.5 104.09 165.5C104.066 165.5 104.042 165.5 104.017 165.5C103.993 165.5 103.969 165.5 103.945 165.5C103.921 165.5 103.897 165.5 103.872 165.5C103.848 165.5 103.824 165.5 103.8 165.5C103.776 165.5 103.751 165.5 103.727 165.5C103.703 165.5 103.679 165.5 103.655 165.5C103.63 165.5 103.606 165.5 103.582 165.5C103.558 165.5 103.533 165.5 103.509 165.5C103.485 165.5 103.461 165.5 103.437 165.5C103.412 165.5 103.388 165.5 103.364 165.5C103.34 165.5 103.315 165.5 103.291 165.5C103.267 165.5 103.243 165.5 103.218 165.5C103.194 165.5 103.17 165.5 103.146 165.5C103.121 165.5 103.097 165.5 103.073 165.5C103.049 165.5 103.024 165.5 103 165.5C102.976 165.5 102.952 165.5 102.927 165.5C102.903 165.5 102.879 165.5 102.854 165.5C102.83 165.5 102.806 165.5 102.782 165.5C102.757 165.5 102.733 165.5 102.709 165.5C102.685 165.5 102.66 165.5 102.636 165.5C102.612 165.5 102.587 165.5 102.563 165.5C102.539 165.5 102.515 165.5 102.49 165.5C102.466 165.5 102.442 165.5 102.417 165.5C102.393 165.5 102.369 165.5 102.345 165.5C102.32 165.5 102.296 165.5 102.272 165.5C102.247 165.5 102.223 165.5 102.199 165.5C102.174 165.5 102.15 165.5 102.126 165.5C102.102 165.5 102.077 165.5 102.053 165.5C102.029 165.5 102.004 165.5 101.98 165.5C101.956 165.5 101.932 165.5 101.907 165.5C101.883 165.5 101.859 165.5 101.834 165.5C101.81 165.5 101.786 165.5 101.761 165.5C101.737 165.5 101.713 165.5 101.689 165.5C101.664 165.5 101.64 165.5 101.616 165.5C101.591 165.5 101.567 165.5 101.543 165.5C101.519 165.5 101.494 165.5 101.47 165.5C101.446 165.5 101.421 165.5 101.397 165.5C101.373 165.5 101.348 165.5 101.324 165.5C101.3 165.5 101.276 165.5 101.251 165.5C101.227 165.5 101.203 165.5 101.178 165.5C101.154 165.5 101.13 165.5 101.106 165.5C101.081 165.5 101.057 165.5 101.033 165.5C101.008 165.5 100.984 165.5 100.96 165.5C100.936 165.5 100.911 165.5 100.887 165.5C100.863 165.5 100.839 165.5 100.814 165.5C100.79 165.5 100.766 165.5 100.741 165.5C100.717 165.5 100.693 165.5 100.669 165.5C100.644 165.5 100.62 165.5 100.596 165.5C100.572 165.5 100.547 165.5 100.523 165.5C100.499 165.5 100.475 165.5 100.45 165.5C100.426 165.5 100.402 165.5 100.378 165.5C100.353 165.5 100.329 165.5 100.305 165.5C100.281 165.5 100.256 165.5 100.232 165.5C100.208 165.5 100.184 165.5 100.16 165.5C100.135 165.5 100.111 165.5 100.087 165.5C100.063 165.5 100.038 165.5 100.014 165.5C99.99 165.5 99.9658 165.5 99.9416 165.5C99.9174 165.5 99.8932 165.5 99.869 165.5C99.8448 165.5 99.8206 165.5 99.7964 165.5C99.7722 165.5 99.748 165.5 99.7238 165.5C99.6996 165.5 99.6754 165.5 99.6513 165.5C99.6271 165.5 99.6029 165.5 99.5787 165.5C99.5546 165.5 99.5304 165.5 99.5062 165.5C99.4821 165.5 99.4579 165.5 99.4338 165.5C99.4096 165.5 99.3855 165.5 99.3613 165.5C99.3372 165.5 99.313 165.5 99.2889 165.5C99.2648 165.5 99.2406 165.5 99.2165 165.5C99.1924 165.5 99.1683 165.5 99.1442 165.5C99.12 165.5 99.0959 165.5 99.0718 165.5C99.0477 165.5 99.0236 165.5 98.9995 165.5C98.9754 165.5 98.9513 165.5 98.9272 165.5C98.9031 165.5 98.8791 165.5 98.855 165.5C98.8309 165.5 98.8068 165.5 98.7828 165.5C98.7587 165.5 98.7347 165.5 98.7106 165.5C98.6865 165.5 98.6625 165.5 98.6385 165.5C98.6144 165.5 98.5904 165.5 98.5663 165.5C98.5423 165.5 98.5183 165.5 98.4943 165.5C98.4703 165.5 98.4462 165.5 98.4222 165.5C98.3982 165.5 98.3742 165.5 98.3502 165.5C98.3262 165.5 98.3022 165.5 98.2783 165.5C98.2543 165.5 98.2303 165.5 98.2063 165.5C98.1824 165.5 98.1584 165.5 98.1345 165.5C98.1105 165.5 98.0865 165.5 98.0626 165.5C98.0387 165.5 98.0147 165.5 97.9908 165.5C97.9669 165.5 97.943 165.5 97.919 165.5C97.8951 165.5 97.8712 165.5 97.8473 165.5C97.8234 165.5 97.7995 165.5 97.7756 165.5C97.7518 165.5 97.7279 165.5 97.704 165.5C97.6801 165.5 97.6563 165.5 97.6324 165.5C97.6086 165.5 97.5847 165.5 97.5609 165.5C97.537 165.5 97.5132 165.5 97.4894 165.5C97.4655 165.5 97.4417 165.5 97.4179 165.5C97.3941 165.5 97.3703 165.5 97.3465 165.5C97.3227 165.5 97.2989 165.5 97.2752 165.5C97.2514 165.5 97.2276 165.5 97.2039 165.5C97.1801 165.5 97.1563 165.5 97.1326 165.5C97.1089 165.5 97.0851 165.5 97.0614 165.5C97.0377 165.5 97.014 165.5 96.9902 165.5C96.9665 165.5 96.9428 165.5 96.9191 165.5C96.8955 165.5 96.8718 165.5 96.8481 165.5C96.8244 165.5 96.8008 165.5 96.7771 165.5C96.7535 165.5 96.7298 165.5 96.7062 165.5C96.6825 165.5 96.6589 165.5 96.6353 165.5C96.6117 165.5 96.5881 165.5 96.5645 165.5C96.5409 165.5 96.5173 165.5 96.4937 165.5C96.4701 165.5 96.4466 165.5 96.423 165.5C96.3994 165.5 96.3759 165.5 96.3523 165.5C96.3288 165.5 96.3053 165.5 96.2818 165.5C96.2582 165.5 96.2347 165.5 96.2112 165.5C96.1877 165.5 96.1642 165.5 96.1408 165.5C96.1173 165.5 96.0938 165.5 96.0703 165.5C96.0469 165.5 96.0234 165.5 96 165.5V168.5C96.0234 168.5 96.0469 168.5 96.0703 168.5C96.0938 168.5 96.1173 168.5 96.1408 168.5C96.1642 168.5 96.1877 168.5 96.2112 168.5C96.2347 168.5 96.2582 168.5 96.2818 168.5C96.3053 168.5 96.3288 168.5 96.3523 168.5C96.3759 168.5 96.3994 168.5 96.423 168.5C96.4466 168.5 96.4701 168.5 96.4937 168.5C96.5173 168.5 96.5409 168.5 96.5645 168.5C96.5881 168.5 96.6117 168.5 96.6353 168.5C96.6589 168.5 96.6825 168.5 96.7062 168.5C96.7298 168.5 96.7535 168.5 96.7771 168.5C96.8008 168.5 96.8244 168.5 96.8481 168.5C96.8718 168.5 96.8955 168.5 96.9191 168.5C96.9428 168.5 96.9665 168.5 96.9902 168.5C97.014 168.5 97.0377 168.5 97.0614 168.5C97.0851 168.5 97.1089 168.5 97.1326 168.5C97.1563 168.5 97.1801 168.5 97.2039 168.5C97.2276 168.5 97.2514 168.5 97.2752 168.5C97.2989 168.5 97.3227 168.5 97.3465 168.5C97.3703 168.5 97.3941 168.5 97.4179 168.5C97.4417 168.5 97.4655 168.5 97.4894 168.5C97.5132 168.5 97.537 168.5 97.5609 168.5C97.5847 168.5 97.6086 168.5 97.6324 168.5C97.6563 168.5 97.6801 168.5 97.704 168.5C97.7279 168.5 97.7518 168.5 97.7756 168.5C97.7995 168.5 97.8234 168.5 97.8473 168.5C97.8712 168.5 97.8951 168.5 97.919 168.5C97.943 168.5 97.9669 168.5 97.9908 168.5C98.0147 168.5 98.0387 168.5 98.0626 168.5C98.0865 168.5 98.1105 168.5 98.1345 168.5C98.1584 168.5 98.1824 168.5 98.2063 168.5C98.2303 168.5 98.2543 168.5 98.2783 168.5C98.3022 168.5 98.3262 168.5 98.3502 168.5C98.3742 168.5 98.3982 168.5 98.4222 168.5C98.4462 168.5 98.4703 168.5 98.4943 168.5C98.5183 168.5 98.5423 168.5 98.5663 168.5C98.5904 168.5 98.6144 168.5 98.6385 168.5C98.6625 168.5 98.6865 168.5 98.7106 168.5C98.7347 168.5 98.7587 168.5 98.7828 168.5C98.8068 168.5 98.8309 168.5 98.855 168.5C98.8791 168.5 98.9031 168.5 98.9272 168.5C98.9513 168.5 98.9754 168.5 98.9995 168.5C99.0236 168.5 99.0477 168.5 99.0718 168.5C99.0959 168.5 99.12 168.5 99.1442 168.5C99.1683 168.5 99.1924 168.5 99.2165 168.5C99.2406 168.5 99.2648 168.5 99.2889 168.5C99.313 168.5 99.3372 168.5 99.3613 168.5C99.3855 168.5 99.4096 168.5 99.4338 168.5C99.4579 168.5 99.4821 168.5 99.5062 168.5C99.5304 168.5 99.5546 168.5 99.5787 168.5C99.6029 168.5 99.6271 168.5 99.6513 168.5C99.6754 168.5 99.6996 168.5 99.7238 168.5C99.748 168.5 99.7722 168.5 99.7964 168.5C99.8206 168.5 99.8448 168.5 99.869 168.5C99.8932 168.5 99.9174 168.5 99.9416 168.5C99.9658 168.5 99.99 168.5 100.014 168.5C100.038 168.5 100.063 168.5 100.087 168.5C100.111 168.5 100.135 168.5 100.16 168.5C100.184 168.5 100.208 168.5 100.232 168.5C100.256 168.5 100.281 168.5 100.305 168.5C100.329 168.5 100.353 168.5 100.378 168.5C100.402 168.5 100.426 168.5 100.45 168.5C100.475 168.5 100.499 168.5 100.523 168.5C100.547 168.5 100.572 168.5 100.596 168.5C100.62 168.5 100.644 168.5 100.669 168.5C100.693 168.5 100.717 168.5 100.741 168.5C100.766 168.5 100.79 168.5 100.814 168.5C100.839 168.5 100.863 168.5 100.887 168.5C100.911 168.5 100.936 168.5 100.96 168.5C100.984 168.5 101.008 168.5 101.033 168.5C101.057 168.5 101.081 168.5 101.106 168.5C101.13 168.5 101.154 168.5 101.178 168.5C101.203 168.5 101.227 168.5 101.251 168.5C101.276 168.5 101.3 168.5 101.324 168.5C101.348 168.5 101.373 168.5 101.397 168.5C101.421 168.5 101.446 168.5 101.47 168.5C101.494 168.5 101.519 168.5 101.543 168.5C101.567 168.5 101.591 168.5 101.616 168.5C101.64 168.5 101.664 168.5 101.689 168.5C101.713 168.5 101.737 168.5 101.761 168.5C101.786 168.5 101.81 168.5 101.834 168.5C101.859 168.5 101.883 168.5 101.907 168.5C101.932 168.5 101.956 168.5 101.98 168.5C102.004 168.5 102.029 168.5 102.053 168.5C102.077 168.5 102.102 168.5 102.126 168.5C102.15 168.5 102.174 168.5 102.199 168.5C102.223 168.5 102.247 168.5 102.272 168.5C102.296 168.5 102.32 168.5 102.345 168.5C102.369 168.5 102.393 168.5 102.417 168.5C102.442 168.5 102.466 168.5 102.49 168.5C102.515 168.5 102.539 168.5 102.563 168.5C102.587 168.5 102.612 168.5 102.636 168.5C102.66 168.5 102.685 168.5 102.709 168.5C102.733 168.5 102.757 168.5 102.782 168.5C102.806 168.5 102.83 168.5 102.854 168.5C102.879 168.5 102.903 168.5 102.927 168.5C102.952 168.5 102.976 168.5 103 168.5C103.024 168.5 103.049 168.5 103.073 168.5C103.097 168.5 103.121 168.5 103.146 168.5C103.17 168.5 103.194 168.5 103.218 168.5C103.243 168.5 103.267 168.5 103.291 168.5C103.315 168.5 103.34 168.5 103.364 168.5C103.388 168.5 103.412 168.5 103.437 168.5C103.461 168.5 103.485 168.5 103.509 168.5C103.533 168.5 103.558 168.5 103.582 168.5C103.606 168.5 103.63 168.5 103.655 168.5C103.679 168.5 103.703 168.5 103.727 168.5C103.751 168.5 103.776 168.5 103.8 168.5C103.824 168.5 103.848 168.5 103.872 168.5C103.897 168.5 103.921 168.5 103.945 168.5C103.969 168.5 103.993 168.5 104.017 168.5C104.042 168.5 104.066 168.5 104.09 168.5C104.114 168.5 104.138 168.5 104.162 168.5C104.187 168.5 104.211 168.5 104.235 168.5C104.259 168.5 104.283 168.5 104.307 168.5C104.332 168.5 104.356 168.5 104.38 168.5C104.404 168.5 104.428 168.5 104.452 168.5C104.476 168.5 104.5 168.5 104.525 168.5C104.549 168.5 104.573 168.5 104.597 168.5C104.621 168.5 104.645 168.5 104.669 168.5C104.693 168.5 104.717 168.5 104.742 168.5C104.766 168.5 104.79 168.5 104.814 168.5C104.838 168.5 104.862 168.5 104.886 168.5C104.91 168.5 104.934 168.5 104.958 168.5C104.982 168.5 105.006 168.5 105.03 168.5C105.054 168.5 105.078 168.5 105.102 168.5C105.126 168.5 105.15 168.5 105.174 168.5C105.199 168.5 105.223 168.5 105.247 168.5C105.271 168.5 105.295 168.5 105.319 168.5C105.343 168.5 105.367 168.5 105.39 168.5C105.414 168.5 105.438 168.5 105.462 168.5C105.486 168.5 105.51 168.5 105.534 168.5C105.558 168.5 105.582 168.5 105.606 168.5C105.63 168.5 105.654 168.5 105.678 168.5C105.702 168.5 105.726 168.5 105.75 168.5C105.774 168.5 105.798 168.5 105.821 168.5C105.845 168.5 105.869 168.5 105.893 168.5C105.917 168.5 105.941 168.5 105.965 168.5C105.989 168.5 106.013 168.5 106.036 168.5C106.06 168.5 106.084 168.5 106.108 168.5C106.132 168.5 106.156 168.5 106.179 168.5C106.203 168.5 106.227 168.5 106.251 168.5C106.275 168.5 106.298 168.5 106.322 168.5C106.346 168.5 106.37 168.5 106.394 168.5C106.417 168.5 106.441 168.5 106.465 168.5C106.489 168.5 106.512 168.5 106.536 168.5C106.56 168.5 106.584 168.5 106.607 168.5C106.631 168.5 106.655 168.5 106.679 168.5C106.702 168.5 106.726 168.5 106.75 168.5C106.773 168.5 106.797 168.5 106.821 168.5C106.844 168.5 106.868 168.5 106.892 168.5C106.915 168.5 106.939 168.5 106.963 168.5C106.986 168.5 107.01 168.5 107.033 168.5C107.057 168.5 107.081 168.5 107.104 168.5C107.128 168.5 107.152 168.5 107.175 168.5C107.199 168.5 107.222 168.5 107.246 168.5C107.269 168.5 107.293 168.5 107.316 168.5C107.34 168.5 107.364 168.5 107.387 168.5C107.411 168.5 107.434 168.5 107.458 168.5C107.481 168.5 107.505 168.5 107.528 168.5C107.552 168.5 107.575 168.5 107.598 168.5C107.622 168.5 107.645 168.5 107.669 168.5C107.692 168.5 107.716 168.5 107.739 168.5C107.763 168.5 107.786 168.5 107.809 168.5C107.833 168.5 107.856 168.5 107.879 168.5C107.903 168.5 107.926 168.5 107.95 168.5C107.973 168.5 107.996 168.5 108.02 168.5C108.043 168.5 108.066 168.5 108.09 168.5C108.113 168.5 108.136 168.5 108.159 168.5C108.183 168.5 108.206 168.5 108.229 168.5C108.252 168.5 108.276 168.5 108.299 168.5C108.322 168.5 108.345 168.5 108.369 168.5C108.392 168.5 108.415 168.5 108.438 168.5C108.461 168.5 108.485 168.5 108.508 168.5C108.531 168.5 108.554 168.5 108.577 168.5C108.6 168.5 108.623 168.5 108.647 168.5C108.67 168.5 108.693 168.5 108.716 168.5C108.739 168.5 108.762 168.5 108.785 168.5C108.808 168.5 108.831 168.5 108.854 168.5C108.877 168.5 108.9 168.5 108.923 168.5C108.946 168.5 108.969 168.5 108.992 168.5C109.015 168.5 109.038 168.5 109.061 168.5C109.084 168.5 109.107 168.5 109.13 168.5C109.153 168.5 109.176 168.5 109.199 168.5C109.222 168.5 109.245 168.5 109.268 168.5C109.291 168.5 109.313 168.5 109.336 168.5C109.359 168.5 109.382 168.5 109.405 168.5C109.428 168.5 109.45 168.5 109.473 168.5C109.496 168.5 109.519 168.5 109.542 168.5C109.564 168.5 109.587 168.5 109.61 168.5C109.633 168.5 109.655 168.5 109.678 168.5C109.701 168.5 109.723 168.5 109.746 168.5C109.769 168.5 109.791 168.5 109.814 168.5C109.837 168.5 109.859 168.5 109.882 168.5C109.905 168.5 109.927 168.5 109.95 168.5C109.972 168.5 109.995 168.5 110.018 168.5C110.04 168.5 110.063 168.5 110.085 168.5C110.108 168.5 110.13 168.5 110.153 168.5C110.175 168.5 110.198 168.5 110.22 168.5C110.243 168.5 110.265 168.5 110.288 168.5C110.31 168.5 110.333 168.5 110.355 168.5C110.377 168.5 110.4 168.5 110.422 168.5C110.445 168.5 110.467 168.5 110.489 168.5C110.512 168.5 110.534 168.5 110.556 168.5C110.579 168.5 110.601 168.5 110.623 168.5C110.645 168.5 110.668 168.5 110.69 168.5C110.712 168.5 110.734 168.5 110.757 168.5C110.779 168.5 110.801 168.5 110.823 168.5C110.845 168.5 110.868 168.5 110.89 168.5C110.912 168.5 110.934 168.5 110.956 168.5C110.978 168.5 111 168.5 111.023 168.5C111.045 168.5 111.067 168.5 111.089 168.5C111.111 168.5 111.133 168.5 111.155 168.5C111.177 168.5 111.199 168.5 111.221 168.5C111.243 168.5 111.265 168.5 111.287 168.5C111.309 168.5 111.331 168.5 111.353 168.5C111.374 168.5 111.396 168.5 111.418 168.5C111.44 168.5 111.462 168.5 111.484 168.5C111.506 168.5 111.527 168.5 111.549 168.5C111.571 168.5 111.593 168.5 111.615 168.5C111.636 168.5 111.658 168.5 111.68 168.5C111.702 168.5 111.723 168.5 111.745 168.5C111.767 168.5 111.788 168.5 111.81 168.5C111.832 168.5 111.853 168.5 111.875 168.5C111.897 168.5 111.918 168.5 111.94 168.5C111.961 168.5 111.983 168.5 112.004 168.5C112.026 168.5 112.048 168.5 112.069 168.5C112.091 168.5 112.112 168.5 112.134 168.5C112.155 168.5 112.176 168.5 112.198 168.5C112.219 168.5 112.241 168.5 112.262 168.5C112.283 168.5 112.305 168.5 112.326 168.5C112.348 168.5 112.369 168.5 112.39 168.5C112.412 168.5 112.433 168.5 112.454 168.5C112.475 168.5 112.497 168.5 112.518 168.5C112.539 168.5 112.56 168.5 112.581 168.5C112.603 168.5 112.624 168.5 112.645 168.5C112.666 168.5 112.687 168.5 112.708 168.5C112.73 168.5 112.751 168.5 112.772 168.5C112.793 168.5 112.814 168.5 112.835 168.5C112.856 168.5 112.877 168.5 112.898 168.5C112.919 168.5 112.94 168.5 112.961 168.5C112.982 168.5 113.003 168.5 113.024 168.5C113.044 168.5 113.065 168.5 113.086 168.5C113.107 168.5 113.128 168.5 113.149 168.5C113.17 168.5 113.19 168.5 113.211 168.5C113.232 168.5 113.253 168.5 113.273 168.5C113.294 168.5 113.315 168.5 113.336 168.5C113.356 168.5 113.377 168.5 113.398 168.5C113.418 168.5 113.439 168.5 113.459 168.5C113.48 168.5 113.501 168.5 113.521 168.5C113.542 168.5 113.562 168.5 113.583 168.5C113.603 168.5 113.624 168.5 113.644 168.5C113.665 168.5 113.685 168.5 113.706 168.5C113.726 168.5 113.746 168.5 113.767 168.5C113.787 168.5 113.808 168.5 113.828 168.5C113.848 168.5 113.869 168.5 113.889 168.5C113.909 168.5 113.929 168.5 113.95 168.5C113.97 168.5 113.99 168.5 114.01 168.5C114.031 168.5 114.051 168.5 114.071 168.5C114.091 168.5 114.111 168.5 114.131 168.5C114.151 168.5 114.171 168.5 114.192 168.5C114.212 168.5 114.232 168.5 114.252 168.5C114.272 168.5 114.292 168.5 114.312 168.5C114.332 168.5 114.351 168.5 114.371 168.5C114.391 168.5 114.411 168.5 114.431 168.5C114.451 168.5 114.471 168.5 114.491 168.5C114.51 168.5 114.53 168.5 114.55 168.5C114.57 168.5 114.59 168.5 114.609 168.5C114.629 168.5 114.649 168.5 114.668 168.5C114.688 168.5 114.708 168.5 114.727 168.5C114.747 168.5 114.767 168.5 114.786 168.5C114.806 168.5 114.825 168.5 114.845 168.5C114.864 168.5 114.884 168.5 114.903 168.5C114.923 168.5 114.942 168.5 114.962 168.5C114.981 168.5 115 168.5 115.02 168.5C115.039 168.5 115.059 168.5 115.078 168.5C115.097 168.5 115.116 168.5 115.136 168.5C115.155 168.5 115.174 168.5 115.193 168.5C115.213 168.5 115.232 168.5 115.251 168.5C115.27 168.5 115.289 168.5 115.308 168.5C115.328 168.5 115.347 168.5 115.366 168.5C115.385 168.5 115.404 168.5 115.423 168.5C115.442 168.5 115.461 168.5 115.48 168.5C115.499 168.5 115.518 168.5 115.537 168.5C115.556 168.5 115.574 168.5 115.593 168.5C115.612 168.5 115.631 168.5 115.65 168.5C115.669 168.5 115.687 168.5 115.706 168.5C115.725 168.5 115.744 168.5 115.762 168.5C115.781 168.5 115.8 168.5 115.818 168.5C115.837 168.5 115.855 168.5 115.874 168.5C115.893 168.5 115.911 168.5 115.93 168.5C115.948 168.5 115.967 168.5 115.985 168.5C116.004 168.5 116.022 168.5 116.041 168.5C116.059 168.5 116.077 168.5 116.096 168.5C116.114 168.5 116.132 168.5 116.151 168.5C116.169 168.5 116.187 168.5 116.206 168.5C116.224 168.5 116.242 168.5 116.26 168.5C116.278 168.5 116.297 168.5 116.315 168.5C116.333 168.5 116.351 168.5 116.369 168.5C116.387 168.5 116.405 168.5 116.423 168.5C116.441 168.5 116.459 168.5 116.477 168.5C116.495 168.5 116.513 168.5 116.531 168.5C116.549 168.5 116.567 168.5 116.585 168.5C116.602 168.5 116.62 168.5 116.638 168.5C116.656 168.5 116.674 168.5 116.691 168.5C116.709 168.5 116.727 168.5 116.744 168.5C116.762 168.5 116.78 168.5 116.797 168.5C116.815 168.5 116.833 168.5 116.85 168.5C116.868 168.5 116.885 168.5 116.903 168.5C116.92 168.5 116.938 168.5 116.955 168.5C116.973 168.5 116.99 168.5 117.007 168.5C117.025 168.5 117.042 168.5 117.059 168.5C117.077 168.5 117.094 168.5 117.111 168.5C117.129 168.5 117.146 168.5 117.163 168.5C117.18 168.5 117.197 168.5 117.214 168.5C117.232 168.5 117.249 168.5 117.266 168.5C117.283 168.5 117.3 168.5 117.317 168.5C117.334 168.5 117.351 168.5 117.368 168.5C117.385 168.5 117.402 168.5 117.419 168.5C117.436 168.5 117.452 168.5 117.469 168.5C117.486 168.5 117.503 168.5 117.52 168.5C117.536 168.5 117.553 168.5 117.57 168.5C117.586 168.5 117.603 168.5 117.62 168.5C117.636 168.5 117.653 168.5 117.67 168.5C117.686 168.5 117.703 168.5 117.719 168.5C117.736 168.5 117.752 168.5 117.769 168.5C117.785 168.5 117.801 168.5 117.818 168.5C117.834 168.5 117.851 168.5 117.867 168.5C117.883 168.5 117.9 168.5 117.916 168.5C117.932 168.5 117.948 168.5 117.964 168.5C117.981 168.5 117.997 168.5 118.013 168.5C118.029 168.5 118.045 168.5 118.061 168.5C118.077 168.5 118.093 168.5 118.109 168.5C118.125 168.5 118.141 168.5 118.157 168.5C118.173 168.5 118.189 168.5 118.205 168.5C118.221 168.5 118.236 168.5 118.252 168.5C118.268 168.5 118.284 168.5 118.3 168.5C118.315 168.5 118.331 168.5 118.347 168.5C118.362 168.5 118.378 168.5 118.393 168.5C118.409 168.5 118.425 168.5 118.44 168.5C118.456 168.5 118.471 168.5 118.487 168.5C118.502 168.5 118.517 168.5 118.533 168.5C118.548 168.5 118.564 168.5 118.579 168.5C118.594 168.5 118.61 168.5 118.625 168.5C118.64 168.5 118.655 168.5 118.67 168.5C118.686 168.5 118.701 168.5 118.716 168.5C118.731 168.5 118.746 168.5 118.761 168.5C118.776 168.5 118.791 168.5 118.806 168.5C118.821 168.5 118.836 168.5 118.851 168.5C118.866 168.5 118.881 168.5 118.896 168.5C118.91 168.5 118.925 168.5 118.94 168.5C118.955 168.5 118.969 168.5 118.984 168.5C118.999 168.5 119.013 168.5 119.028 168.5C119.043 168.5 119.057 168.5 119.072 168.5C119.086 168.5 119.101 168.5 119.115 168.5C119.13 168.5 119.144 168.5 119.159 168.5C119.173 168.5 119.187 168.5 119.202 168.5C119.216 168.5 119.23 168.5 119.245 168.5C119.259 168.5 119.273 168.5 119.287 168.5C119.302 168.5 119.316 168.5 119.33 168.5C119.344 168.5 119.358 168.5 119.372 168.5C119.386 168.5 119.4 168.5 119.414 168.5C119.428 168.5 119.442 168.5 119.456 168.5C119.47 168.5 119.484 168.5 119.497 168.5C119.511 168.5 119.525 168.5 119.539 168.5C119.553 168.5 119.566 168.5 119.58 168.5C119.594 168.5 119.607 168.5 119.621 168.5C119.634 168.5 119.648 168.5 119.662 168.5C119.675 168.5 119.689 168.5 119.702 168.5C119.715 168.5 119.729 168.5 119.742 168.5C119.756 168.5 119.769 168.5 119.782 168.5C119.795 168.5 119.809 168.5 119.822 168.5C119.835 168.5 119.848 168.5 119.862 168.5C119.875 168.5 119.888 168.5 119.901 168.5C119.914 168.5 119.927 168.5 119.94 168.5C119.953 168.5 119.966 168.5 119.979 168.5C119.992 168.5 120.005 168.5 120.017 168.5C120.03 168.5 120.043 168.5 120.056 168.5C120.069 168.5 120.081 168.5 120.094 168.5C120.107 168.5 120.119 168.5 120.132 168.5C120.144 168.5 120.157 168.5 120.17 168.5C120.182 168.5 120.195 168.5 120.207 168.5C120.219 168.5 120.232 168.5 120.244 168.5C120.257 168.5 120.269 168.5 120.281 168.5C120.294 168.5 120.306 168.5 120.318 168.5C120.33 168.5 120.342 168.5 120.355 168.5C120.367 168.5 120.379 168.5 120.391 168.5C120.403 168.5 120.415 168.5 120.427 168.5C120.439 168.5 120.451 168.5 120.463 168.5C120.474 168.5 120.486 168.5 120.498 168.5C120.51 168.5 120.522 168.5 120.533 168.5C120.545 168.5 120.557 168.5 120.568 168.5C120.58 168.5 120.592 168.5 120.603 168.5C120.615 168.5 120.626 168.5 120.638 168.5C120.649 168.5 120.661 168.5 120.672 168.5C120.684 168.5 120.695 168.5 120.706 168.5C120.718 168.5 120.729 168.5 120.74 168.5C120.751 168.5 120.763 168.5 120.774 168.5C120.785 168.5 120.796 168.5 120.807 168.5C120.818 168.5 120.829 168.5 120.84 168.5C120.851 168.5 120.862 168.5 120.873 168.5C120.884 168.5 120.895 168.5 120.906 168.5C120.916 168.5 120.927 168.5 120.938 168.5C120.949 168.5 120.959 168.5 120.97 168.5C120.981 168.5 120.991 168.5 121.002 168.5C121.012 168.5 121.023 168.5 121.033 168.5C121.044 168.5 121.054 168.5 121.065 168.5C121.075 168.5 121.085 168.5 121.096 168.5C121.106 168.5 121.116 168.5 121.127 168.5C121.137 168.5 121.147 168.5 121.157 168.5C121.167 168.5 121.177 168.5 121.187 168.5C121.197 168.5 121.207 168.5 121.217 168.5C121.227 168.5 121.237 168.5 121.247 168.5C121.257 168.5 121.267 168.5 121.277 168.5C121.286 168.5 121.296 168.5 121.306 168.5C121.316 168.5 121.325 168.5 121.335 168.5C121.345 168.5 121.354 168.5 121.364 168.5C121.373 168.5 121.383 168.5 121.392 168.5C121.402 168.5 121.411 168.5 121.42 168.5C121.43 168.5 121.439 168.5 121.448 168.5C121.457 168.5 121.467 168.5 121.476 168.5C121.485 168.5 121.494 168.5 121.503 168.5C121.512 168.5 121.521 168.5 121.53 168.5C121.539 168.5 121.548 168.5 121.557 168.5C121.566 168.5 121.575 168.5 121.584 168.5C121.593 168.5 121.601 168.5 121.61 168.5C121.619 168.5 121.628 168.5 121.636 168.5C121.645 168.5 121.653 168.5 121.662 168.5C121.671 168.5 121.679 168.5 121.688 168.5C121.696 168.5 121.704 168.5 121.713 168.5C121.721 168.5 121.729 168.5 121.738 168.5C121.746 168.5 121.754 168.5 121.762 168.5C121.771 168.5 121.779 168.5 121.787 168.5C121.795 168.5 121.803 168.5 121.811 168.5C121.819 168.5 121.827 168.5 121.835 168.5C121.843 168.5 121.851 168.5 121.858 168.5C121.866 168.5 121.874 168.5 121.882 168.5C121.889 168.5 121.897 168.5 121.905 168.5C121.912 168.5 121.92 168.5 121.927 168.5C121.935 168.5 121.942 168.5 121.95 168.5C121.957 168.5 121.965 168.5 121.972 168.5C121.979 168.5 121.987 168.5 121.994 168.5C122.001 168.5 122.008 168.5 122.016 168.5C122.023 168.5 122.03 168.5 122.037 168.5C122.044 168.5 122.051 168.5 122.058 168.5C122.065 168.5 122.072 168.5 122.079 168.5C122.086 168.5 122.092 168.5 122.099 168.5C122.106 168.5 122.113 168.5 122.119 168.5C122.126 168.5 122.133 168.5 122.139 168.5C122.146 168.5 122.152 168.5 122.159 168.5C122.165 168.5 122.172 168.5 122.178 168.5C122.185 168.5 122.191 168.5 122.197 168.5C122.203 168.5 122.21 168.5 122.216 168.5C122.222 168.5 122.228 168.5 122.234 168.5C122.24 168.5 122.247 168.5 122.253 168.5C122.259 168.5 122.264 168.5 122.27 168.5C122.276 168.5 122.282 168.5 122.288 168.5C122.294 168.5 122.3 168.5 122.305 168.5C122.311 168.5 122.317 168.5 122.322 168.5C122.328 168.5 122.333 168.5 122.339 168.5C122.344 168.5 122.35 168.5 122.355 168.5C122.361 168.5 122.366 168.5 122.371 168.5C122.377 168.5 122.382 168.5 122.387 168.5C122.392 168.5 122.397 168.5 122.403 168.5C122.408 168.5 122.413 168.5 122.418 168.5C122.423 168.5 122.428 168.5 122.433 168.5C122.438 168.5 122.442 168.5 122.447 168.5C122.452 168.5 122.457 168.5 122.462 168.5C122.466 168.5 122.471 168.5 122.475 168.5C122.48 168.5 122.485 168.5 122.489 168.5C122.494 168.5 122.498 168.5 122.503 168.5C122.507 168.5 122.511 168.5 122.516 168.5C122.52 168.5 122.524 168.5 122.528 168.5C122.533 168.5 122.537 168.5 122.541 168.5C122.545 168.5 122.549 168.5 122.553 168.5C122.557 168.5 122.561 168.5 122.565 168.5C122.569 168.5 122.572 168.5 122.576 168.5C122.58 168.5 122.584 168.5 122.587 168.5C122.591 168.5 122.595 168.5 122.598 168.5C122.602 168.5 122.605 168.5 122.609 168.5C122.612 168.5 122.616 168.5 122.619 168.5C122.623 168.5 122.626 168.5 122.629 168.5C122.632 168.5 122.636 168.5 122.639 168.5C122.642 168.5 122.645 168.5 122.648 168.5C122.651 168.5 122.654 168.5 122.657 168.5C122.66 168.5 122.663 168.5 122.666 168.5C122.669 168.5 122.671 168.5 122.674 168.5C122.677 168.5 122.68 168.5 122.682 168.5C122.685 168.5 122.687 168.5 122.69 168.5C122.692 168.5 122.695 168.5 122.697 168.5C122.7 168.5 122.702 168.5 122.704 168.5C122.707 168.5 122.709 168.5 122.711 168.5C122.713 168.5 122.716 168.5 122.718 168.5C122.72 168.5 122.722 168.5 122.724 168.5C122.726 168.5 122.728 168.5 122.73 168.5C122.731 168.5 122.733 168.5 122.735 168.5C122.737 168.5 122.739 168.5 122.74 168.5C122.742 168.5 122.743 168.5 122.745 168.5C122.747 168.5 122.748 168.5 122.749 168.5C122.751 168.5 122.752 168.5 122.754 168.5C122.755 168.5 122.756 168.5 122.757 168.5C122.759 168.5 122.76 168.5 122.761 168.5C122.762 168.5 122.763 168.5 122.764 168.5C122.765 168.5 122.766 168.5 122.767 168.5C122.768 168.5 122.769 168.5 122.77 168.5C122.77 168.5 122.771 168.5 122.772 168.5C122.772 168.5 122.773 168.5 122.774 168.5C122.774 168.5 122.775 168.5 122.775 168.5C122.776 168.5 122.776 168.5 122.776 168.5C122.777 168.5 122.777 168.5 122.777 168.5C122.777 168.5 122.777 168.5 122.778 168.5C122.778 168.5 122.778 168.5 122.778 167ZM94.5 167C94.5 168.746 95.3941 171.555 97.1764 173.923C99.0036 176.352 101.908 178.5 106 178.5V175.5C103.092 175.5 100.996 174.01 99.5736 172.12C98.1059 170.169 97.5 167.978 97.5 167H94.5ZM106 178.5C106.006 178.5 106.012 178.5 106.018 178.5C106.024 178.5 106.029 178.5 106.035 178.5C106.041 178.5 106.047 178.5 106.053 178.5C106.059 178.5 106.065 178.5 106.071 178.5C106.077 178.5 106.083 178.5 106.089 178.5C106.095 178.5 106.101 178.5 106.107 178.5C106.113 178.5 106.119 178.5 106.125 178.5C106.131 178.5 106.137 178.5 106.144 178.5C106.15 178.5 106.156 178.5 106.162 178.5C106.168 178.5 106.174 178.5 106.18 178.5C106.186 178.5 106.193 178.5 106.199 178.5C106.205 178.5 106.211 178.5 106.217 178.5C106.224 178.5 106.23 178.5 106.236 178.5C106.242 178.5 106.249 178.5 106.255 178.5C106.261 178.5 106.267 178.5 106.274 178.5C106.28 178.5 106.286 178.5 106.293 178.5C106.299 178.5 106.305 178.5 106.312 178.5C106.318 178.5 106.324 178.5 106.331 178.5C106.337 178.5 106.344 178.5 106.35 178.5C106.356 178.5 106.363 178.5 106.369 178.5C106.376 178.5 106.382 178.5 106.389 178.5C106.395 178.5 106.402 178.5 106.408 178.5C106.414 178.5 106.421 178.5 106.428 178.5C106.434 178.5 106.441 178.5 106.447 178.5C106.454 178.5 106.46 178.5 106.467 178.5C106.473 178.5 106.48 178.5 106.487 178.5C106.493 178.5 106.5 178.5 106.506 178.5C106.513 178.5 106.52 178.5 106.526 178.5C106.533 178.5 106.54 178.5 106.546 178.5C106.553 178.5 106.56 178.5 106.566 178.5C106.573 178.5 106.58 178.5 106.586 178.5C106.593 178.5 106.6 178.5 106.607 178.5C106.613 178.5 106.62 178.5 106.627 178.5C106.634 178.5 106.641 178.5 106.647 178.5C106.654 178.5 106.661 178.5 106.668 178.5C106.675 178.5 106.681 178.5 106.688 178.5C106.695 178.5 106.702 178.5 106.709 178.5C106.716 178.5 106.723 178.5 106.73 178.5C106.736 178.5 106.743 178.5 106.75 178.5C106.757 178.5 106.764 178.5 106.771 178.5C106.778 178.5 106.785 178.5 106.792 178.5C106.799 178.5 106.806 178.5 106.813 178.5C106.82 178.5 106.827 178.5 106.834 178.5C106.841 178.5 106.848 178.5 106.855 178.5C106.862 178.5 106.869 178.5 106.876 178.5C106.883 178.5 106.89 178.5 106.897 178.5C106.905 178.5 106.912 178.5 106.919 178.5C106.926 178.5 106.933 178.5 106.94 178.5C106.947 178.5 106.954 178.5 106.962 178.5C106.969 178.5 106.976 178.5 106.983 178.5C106.99 178.5 106.997 178.5 107.005 178.5C107.012 178.5 107.019 178.5 107.026 178.5C107.034 178.5 107.041 178.5 107.048 178.5C107.055 178.5 107.063 178.5 107.07 178.5C107.077 178.5 107.084 178.5 107.092 178.5C107.099 178.5 107.106 178.5 107.114 178.5C107.121 178.5 107.128 178.5 107.136 178.5C107.143 178.5 107.15 178.5 107.158 178.5C107.165 178.5 107.172 178.5 107.18 178.5C107.187 178.5 107.194 178.5 107.202 178.5C107.209 178.5 107.217 178.5 107.224 178.5C107.231 178.5 107.239 178.5 107.246 178.5C107.254 178.5 107.261 178.5 107.269 178.5C107.276 178.5 107.284 178.5 107.291 178.5C107.298 178.5 107.306 178.5 107.313 178.5C107.321 178.5 107.328 178.5 107.336 178.5C107.344 178.5 107.351 178.5 107.359 178.5C107.366 178.5 107.374 178.5 107.381 178.5C107.389 178.5 107.396 178.5 107.404 178.5C107.411 178.5 107.419 178.5 107.427 178.5C107.434 178.5 107.442 178.5 107.449 178.5C107.457 178.5 107.465 178.5 107.472 178.5C107.48 178.5 107.488 178.5 107.495 178.5C107.503 178.5 107.511 178.5 107.518 178.5C107.526 178.5 107.534 178.5 107.541 178.5C107.549 178.5 107.557 178.5 107.564 178.5C107.572 178.5 107.58 178.5 107.588 178.5C107.595 178.5 107.603 178.5 107.611 178.5C107.618 178.5 107.626 178.5 107.634 178.5C107.642 178.5 107.649 178.5 107.657 178.5C107.665 178.5 107.673 178.5 107.681 178.5C107.688 178.5 107.696 178.5 107.704 178.5C107.712 178.5 107.72 178.5 107.727 178.5C107.735 178.5 107.743 178.5 107.751 178.5C107.759 178.5 107.767 178.5 107.775 178.5C107.782 178.5 107.79 178.5 107.798 178.5C107.806 178.5 107.814 178.5 107.822 178.5C107.83 178.5 107.838 178.5 107.846 178.5C107.853 178.5 107.861 178.5 107.869 178.5C107.877 178.5 107.885 178.5 107.893 178.5C107.901 178.5 107.909 178.5 107.917 178.5C107.925 178.5 107.933 178.5 107.941 178.5C107.949 178.5 107.957 178.5 107.965 178.5C107.973 178.5 107.981 178.5 107.989 178.5C107.997 178.5 108.005 178.5 108.013 178.5C108.021 178.5 108.029 178.5 108.037 178.5C108.045 178.5 108.053 178.5 108.061 178.5C108.069 178.5 108.077 178.5 108.085 178.5C108.093 178.5 108.101 178.5 108.109 178.5C108.117 178.5 108.126 178.5 108.134 178.5C108.142 178.5 108.15 178.5 108.158 178.5C108.166 178.5 108.174 178.5 108.182 178.5C108.19 178.5 108.198 178.5 108.207 178.5C108.215 178.5 108.223 178.5 108.231 178.5C108.239 178.5 108.247 178.5 108.256 178.5C108.264 178.5 108.272 178.5 108.28 178.5C108.288 178.5 108.296 178.5 108.305 178.5C108.313 178.5 108.321 178.5 108.329 178.5C108.337 178.5 108.346 178.5 108.354 178.5C108.362 178.5 108.37 178.5 108.378 178.5C108.387 178.5 108.395 178.5 108.403 178.5C108.411 178.5 108.42 178.5 108.428 178.5C108.436 178.5 108.444 178.5 108.453 178.5C108.461 178.5 108.469 178.5 108.477 178.5C108.486 178.5 108.494 178.5 108.502 178.5C108.511 178.5 108.519 178.5 108.527 178.5C108.535 178.5 108.544 178.5 108.552 178.5C108.56 178.5 108.569 178.5 108.577 178.5C108.585 178.5 108.594 178.5 108.602 178.5C108.61 178.5 108.619 178.5 108.627 178.5C108.635 178.5 108.644 178.5 108.652 178.5C108.66 178.5 108.669 178.5 108.677 178.5C108.685 178.5 108.694 178.5 108.702 178.5C108.711 178.5 108.719 178.5 108.727 178.5C108.736 178.5 108.744 178.5 108.752 178.5C108.761 178.5 108.769 178.5 108.778 178.5C108.786 178.5 108.794 178.5 108.803 178.5C108.811 178.5 108.82 178.5 108.828 178.5C108.837 178.5 108.845 178.5 108.853 178.5C108.862 178.5 108.87 178.5 108.879 178.5C108.887 178.5 108.896 178.5 108.904 178.5C108.913 178.5 108.921 178.5 108.929 178.5C108.938 178.5 108.946 178.5 108.955 178.5C108.963 178.5 108.972 178.5 108.98 178.5C108.989 178.5 108.997 178.5 109.006 178.5C109.014 178.5 109.023 178.5 109.031 178.5C109.04 178.5 109.048 178.5 109.057 178.5C109.065 178.5 109.074 178.5 109.082 178.5C109.091 178.5 109.099 178.5 109.108 178.5C109.116 178.5 109.125 178.5 109.133 178.5C109.142 178.5 109.15 178.5 109.159 178.5C109.167 178.5 109.176 178.5 109.184 178.5C109.193 178.5 109.202 178.5 109.21 178.5C109.219 178.5 109.227 178.5 109.236 178.5C109.244 178.5 109.253 178.5 109.261 178.5C109.27 178.5 109.279 178.5 109.287 178.5C109.296 178.5 109.304 178.5 109.313 178.5C109.321 178.5 109.33 178.5 109.339 178.5C109.347 178.5 109.356 178.5 109.364 178.5C109.373 178.5 109.381 178.5 109.39 178.5C109.399 178.5 109.407 178.5 109.416 178.5C109.424 178.5 109.433 178.5 109.442 178.5C109.45 178.5 109.459 178.5 109.467 178.5C109.476 178.5 109.485 178.5 109.493 178.5C109.502 178.5 109.511 178.5 109.519 178.5C109.528 178.5 109.536 178.5 109.545 178.5C109.554 178.5 109.562 178.5 109.571 178.5C109.58 178.5 109.588 178.5 109.597 178.5C109.605 178.5 109.614 178.5 109.623 178.5C109.631 178.5 109.64 178.5 109.649 178.5C109.657 178.5 109.666 178.5 109.675 178.5C109.683 178.5 109.692 178.5 109.701 178.5C109.709 178.5 109.718 178.5 109.727 178.5C109.735 178.5 109.744 178.5 109.753 178.5C109.761 178.5 109.77 178.5 109.778 178.5C109.787 178.5 109.796 178.5 109.804 178.5C109.813 178.5 109.822 178.5 109.83 178.5C109.839 178.5 109.848 178.5 109.857 178.5C109.865 178.5 109.874 178.5 109.883 178.5C109.891 178.5 109.9 178.5 109.909 178.5C109.917 178.5 109.926 178.5 109.935 178.5C109.943 178.5 109.952 178.5 109.961 178.5C109.969 178.5 109.978 178.5 109.987 178.5C109.995 178.5 110.004 178.5 110.013 178.5C110.021 178.5 110.03 178.5 110.039 178.5C110.048 178.5 110.056 178.5 110.065 178.5C110.074 178.5 110.082 178.5 110.091 178.5C110.1 178.5 110.108 178.5 110.117 178.5C110.126 178.5 110.134 178.5 110.143 178.5C110.152 178.5 110.161 178.5 110.169 178.5C110.178 178.5 110.187 178.5 110.195 178.5C110.204 178.5 110.213 178.5 110.221 178.5C110.23 178.5 110.239 178.5 110.248 178.5C110.256 178.5 110.265 178.5 110.274 178.5C110.282 178.5 110.291 178.5 110.3 178.5C110.308 178.5 110.317 178.5 110.326 178.5C110.335 178.5 110.343 178.5 110.352 178.5C110.361 178.5 110.369 178.5 110.378 178.5C110.387 178.5 110.395 178.5 110.404 178.5C110.413 178.5 110.422 178.5 110.43 178.5C110.439 178.5 110.448 178.5 110.456 178.5C110.465 178.5 110.474 178.5 110.482 178.5C110.491 178.5 110.5 178.5 110.509 178.5C110.517 178.5 110.526 178.5 110.535 178.5C110.543 178.5 110.552 178.5 110.561 178.5C110.569 178.5 110.578 178.5 110.587 178.5C110.595 178.5 110.604 178.5 110.613 178.5C110.622 178.5 110.63 178.5 110.639 178.5C110.648 178.5 110.656 178.5 110.665 178.5C110.674 178.5 110.682 178.5 110.691 178.5C110.7 178.5 110.708 178.5 110.717 178.5C110.726 178.5 110.734 178.5 110.743 178.5C110.752 178.5 110.76 178.5 110.769 178.5C110.778 178.5 110.787 178.5 110.795 178.5C110.804 178.5 110.813 178.5 110.821 178.5C110.83 178.5 110.839 178.5 110.847 178.5C110.856 178.5 110.865 178.5 110.873 178.5C110.882 178.5 110.891 178.5 110.899 178.5C110.908 178.5 110.917 178.5 110.925 178.5C110.934 178.5 110.942 178.5 110.951 178.5C110.96 178.5 110.968 178.5 110.977 178.5C110.986 178.5 110.994 178.5 111.003 178.5C111.012 178.5 111.02 178.5 111.029 178.5C111.038 178.5 111.046 178.5 111.055 178.5C111.064 178.5 111.072 178.5 111.081 178.5C111.089 178.5 111.098 178.5 111.107 178.5C111.115 178.5 111.124 178.5 111.133 178.5C111.141 178.5 111.15 178.5 111.158 178.5C111.167 178.5 111.176 178.5 111.184 178.5C111.193 178.5 111.201 178.5 111.21 178.5C111.219 178.5 111.227 178.5 111.236 178.5C111.245 178.5 111.253 178.5 111.262 178.5C111.27 178.5 111.279 178.5 111.287 178.5C111.296 178.5 111.305 178.5 111.313 178.5C111.322 178.5 111.33 178.5 111.339 178.5C111.348 178.5 111.356 178.5 111.365 178.5C111.373 178.5 111.382 178.5 111.39 178.5C111.399 178.5 111.408 178.5 111.416 178.5C111.425 178.5 111.433 178.5 111.442 178.5C111.45 178.5 111.459 178.5 111.467 178.5C111.476 178.5 111.484 178.5 111.493 178.5C111.502 178.5 111.51 178.5 111.519 178.5C111.527 178.5 111.536 178.5 111.544 178.5C111.553 178.5 111.561 178.5 111.57 178.5C111.578 178.5 111.587 178.5 111.595 178.5C111.604 178.5 111.612 178.5 111.621 178.5C111.629 178.5 111.638 178.5 111.646 178.5C111.655 178.5 111.663 178.5 111.672 178.5C111.68 178.5 111.689 178.5 111.697 178.5C111.706 178.5 111.714 178.5 111.723 178.5C111.731 178.5 111.739 178.5 111.748 178.5C111.756 178.5 111.765 178.5 111.773 178.5C111.782 178.5 111.79 178.5 111.799 178.5C111.807 178.5 111.815 178.5 111.824 178.5C111.832 178.5 111.841 178.5 111.849 178.5C111.858 178.5 111.866 178.5 111.874 178.5C111.883 178.5 111.891 178.5 111.9 178.5C111.908 178.5 111.916 178.5 111.925 178.5C111.933 178.5 111.941 178.5 111.95 178.5C111.958 178.5 111.967 178.5 111.975 178.5C111.983 178.5 111.992 178.5 112 178.5C112.008 178.5 112.017 178.5 112.025 178.5C112.033 178.5 112.042 178.5 112.05 178.5C112.058 178.5 112.067 178.5 112.075 178.5C112.083 178.5 112.092 178.5 112.1 178.5C112.108 178.5 112.117 178.5 112.125 178.5C112.133 178.5 112.142 178.5 112.15 178.5C112.158 178.5 112.166 178.5 112.175 178.5C112.183 178.5 112.191 178.5 112.2 178.5C112.208 178.5 112.216 178.5 112.224 178.5C112.233 178.5 112.241 178.5 112.249 178.5C112.257 178.5 112.266 178.5 112.274 178.5C112.282 178.5 112.29 178.5 112.298 178.5C112.307 178.5 112.315 178.5 112.323 178.5C112.331 178.5 112.339 178.5 112.348 178.5C112.356 178.5 112.364 178.5 112.372 178.5C112.38 178.5 112.389 178.5 112.397 178.5C112.405 178.5 112.413 178.5 112.421 178.5C112.429 178.5 112.438 178.5 112.446 178.5C112.454 178.5 112.462 178.5 112.47 178.5C112.478 178.5 112.486 178.5 112.494 178.5C112.503 178.5 112.511 178.5 112.519 178.5C112.527 178.5 112.535 178.5 112.543 178.5C112.551 178.5 112.559 178.5 112.567 178.5C112.575 178.5 112.583 178.5 112.591 178.5C112.599 178.5 112.607 178.5 112.616 178.5C112.624 178.5 112.632 178.5 112.64 178.5C112.648 178.5 112.656 178.5 112.664 178.5C112.672 178.5 112.68 178.5 112.688 178.5C112.696 178.5 112.704 178.5 112.712 178.5C112.72 178.5 112.728 178.5 112.736 178.5C112.744 178.5 112.751 178.5 112.759 178.5C112.767 178.5 112.775 178.5 112.783 178.5C112.791 178.5 112.799 178.5 112.807 178.5C112.815 178.5 112.823 178.5 112.831 178.5C112.839 178.5 112.847 178.5 112.854 178.5C112.862 178.5 112.87 178.5 112.878 178.5C112.886 178.5 112.894 178.5 112.902 178.5C112.909 178.5 112.917 178.5 112.925 178.5C112.933 178.5 112.941 178.5 112.949 178.5C112.956 178.5 112.964 178.5 112.972 178.5C112.98 178.5 112.988 178.5 112.995 178.5C113.003 178.5 113.011 178.5 113.019 178.5C113.027 178.5 113.034 178.5 113.042 178.5C113.05 178.5 113.057 178.5 113.065 178.5C113.073 178.5 113.081 178.5 113.088 178.5C113.096 178.5 113.104 178.5 113.111 178.5C113.119 178.5 113.127 178.5 113.135 178.5C113.142 178.5 113.15 178.5 113.158 178.5C113.165 178.5 113.173 178.5 113.18 178.5C113.188 178.5 113.196 178.5 113.203 178.5C113.211 178.5 113.219 178.5 113.226 178.5C113.234 178.5 113.241 178.5 113.249 178.5C113.257 178.5 113.264 178.5 113.272 178.5C113.279 178.5 113.287 178.5 113.294 178.5C113.302 178.5 113.309 178.5 113.317 178.5C113.324 178.5 113.332 178.5 113.339 178.5C113.347 178.5 113.354 178.5 113.362 178.5C113.369 178.5 113.377 178.5 113.384 178.5C113.392 178.5 113.399 178.5 113.407 178.5C113.414 178.5 113.422 178.5 113.429 178.5C113.436 178.5 113.444 178.5 113.451 178.5C113.459 178.5 113.466 178.5 113.473 178.5C113.481 178.5 113.488 178.5 113.496 178.5C113.503 178.5 113.51 178.5 113.518 178.5C113.525 178.5 113.532 178.5 113.54 178.5C113.547 178.5 113.554 178.5 113.562 178.5C113.569 178.5 113.576 178.5 113.583 178.5C113.591 178.5 113.598 178.5 113.605 178.5C113.612 178.5 113.62 178.5 113.627 178.5C113.634 178.5 113.641 178.5 113.649 178.5C113.656 178.5 113.663 178.5 113.67 178.5C113.677 178.5 113.685 178.5 113.692 178.5C113.699 178.5 113.706 178.5 113.713 178.5C113.72 178.5 113.727 178.5 113.735 178.5C113.742 178.5 113.749 178.5 113.756 178.5C113.763 178.5 113.77 178.5 113.777 178.5C113.784 178.5 113.791 178.5 113.798 178.5C113.805 178.5 113.812 178.5 113.82 178.5C113.827 178.5 113.834 178.5 113.841 178.5C113.848 178.5 113.855 178.5 113.862 178.5C113.869 178.5 113.875 178.5 113.882 178.5C113.889 178.5 113.896 178.5 113.903 178.5C113.91 178.5 113.917 178.5 113.924 178.5C113.931 178.5 113.938 178.5 113.945 178.5C113.952 178.5 113.959 178.5 113.965 178.5C113.972 178.5 113.979 178.5 113.986 178.5C113.993 178.5 114 178.5 114.006 178.5C114.013 178.5 114.02 178.5 114.027 178.5C114.034 178.5 114.04 178.5 114.047 178.5C114.054 178.5 114.061 178.5 114.067 178.5C114.074 178.5 114.081 178.5 114.088 178.5C114.094 178.5 114.101 178.5 114.108 178.5C114.114 178.5 114.121 178.5 114.128 178.5C114.134 178.5 114.141 178.5 114.148 178.5C114.154 178.5 114.161 178.5 114.167 178.5C114.174 178.5 114.181 178.5 114.187 178.5C114.194 178.5 114.2 178.5 114.207 178.5C114.213 178.5 114.22 178.5 114.227 178.5C114.233 178.5 114.24 178.5 114.246 178.5C114.253 178.5 114.259 178.5 114.266 178.5C114.272 178.5 114.278 178.5 114.285 178.5C114.291 178.5 114.298 178.5 114.304 178.5C114.311 178.5 114.317 178.5 114.323 178.5C114.33 178.5 114.336 178.5 114.343 178.5C114.349 178.5 114.355 178.5 114.362 178.5C114.368 178.5 114.374 178.5 114.381 178.5C114.387 178.5 114.393 178.5 114.399 178.5C114.406 178.5 114.412 178.5 114.418 178.5C114.425 178.5 114.431 178.5 114.437 178.5C114.443 178.5 114.449 178.5 114.456 178.5C114.462 178.5 114.468 178.5 114.474 178.5C114.48 178.5 114.486 178.5 114.493 178.5C114.499 178.5 114.505 178.5 114.511 178.5C114.517 178.5 114.523 178.5 114.529 178.5C114.535 178.5 114.541 178.5 114.547 178.5C114.554 178.5 114.56 178.5 114.566 178.5C114.572 178.5 114.578 178.5 114.584 178.5C114.59 178.5 114.596 178.5 114.602 178.5C114.607 178.5 114.613 178.5 114.619 178.5C114.625 178.5 114.631 178.5 114.637 178.5C114.643 178.5 114.649 178.5 114.655 178.5C114.661 178.5 114.666 178.5 114.672 178.5C114.678 178.5 114.684 178.5 114.69 178.5C114.696 178.5 114.701 178.5 114.707 178.5C114.713 178.5 114.719 178.5 114.724 178.5C114.73 178.5 114.736 178.5 114.742 178.5C114.747 178.5 114.753 178.5 114.759 178.5C114.764 178.5 114.77 178.5 114.776 178.5C114.781 178.5 114.787 178.5 114.793 178.5C114.798 178.5 114.804 178.5 114.81 178.5C114.815 178.5 114.821 178.5 114.826 178.5C114.832 178.5 114.837 178.5 114.843 178.5C114.848 178.5 114.854 178.5 114.859 178.5C114.865 178.5 114.87 178.5 114.876 178.5C114.881 178.5 114.887 178.5 114.892 178.5C114.898 178.5 114.903 178.5 114.908 178.5C114.914 178.5 114.919 178.5 114.925 178.5C114.93 178.5 114.935 178.5 114.941 178.5C114.946 178.5 114.951 178.5 114.956 178.5C114.962 178.5 114.967 178.5 114.972 178.5C114.978 178.5 114.983 178.5 114.988 178.5C114.993 178.5 114.998 178.5 115.004 178.5C115.009 178.5 115.014 178.5 115.019 178.5C115.024 178.5 115.03 178.5 115.035 178.5C115.04 178.5 115.045 178.5 115.05 178.5C115.055 178.5 115.06 178.5 115.065 178.5C115.07 178.5 115.075 178.5 115.08 178.5C115.085 178.5 115.09 178.5 115.095 178.5C115.1 178.5 115.105 178.5 115.11 178.5C115.115 178.5 115.12 178.5 115.125 178.5C115.13 178.5 115.135 178.5 115.14 178.5C115.145 178.5 115.15 178.5 115.154 178.5C115.159 178.5 115.164 178.5 115.169 178.5C115.174 178.5 115.178 178.5 115.183 178.5C115.188 178.5 115.193 178.5 115.198 178.5C115.202 178.5 115.207 178.5 115.212 178.5C115.216 178.5 115.221 178.5 115.226 178.5C115.23 178.5 115.235 178.5 115.24 178.5C115.244 178.5 115.249 178.5 115.254 178.5C115.258 178.5 115.263 178.5 115.267 178.5C115.272 178.5 115.276 178.5 115.281 178.5C115.285 178.5 115.29 178.5 115.294 178.5C115.299 178.5 115.303 178.5 115.308 178.5C115.312 178.5 115.317 178.5 115.321 178.5C115.325 178.5 115.33 178.5 115.334 178.5C115.339 178.5 115.343 178.5 115.347 178.5C115.352 178.5 115.356 178.5 115.36 178.5C115.365 178.5 115.369 178.5 115.373 178.5C115.377 178.5 115.382 178.5 115.386 178.5C115.39 178.5 115.394 178.5 115.398 178.5C115.403 178.5 115.407 178.5 115.411 178.5C115.415 178.5 115.419 178.5 115.423 178.5C115.427 178.5 115.431 178.5 115.435 178.5C115.44 178.5 115.444 178.5 115.448 178.5C115.452 178.5 115.456 178.5 115.46 178.5C115.464 178.5 115.468 178.5 115.472 178.5C115.475 178.5 115.479 178.5 115.483 178.5C115.487 178.5 115.491 178.5 115.495 178.5C115.499 178.5 115.503 178.5 115.507 178.5C115.51 178.5 115.514 178.5 115.518 178.5C115.522 178.5 115.526 178.5 115.529 178.5C115.533 178.5 115.537 178.5 115.54 178.5C115.544 178.5 115.548 178.5 115.552 178.5C115.555 178.5 115.559 178.5 115.562 178.5C115.566 178.5 115.57 178.5 115.573 178.5C115.577 178.5 115.58 178.5 115.584 178.5C115.588 178.5 115.591 178.5 115.595 178.5C115.598 178.5 115.602 178.5 115.605 178.5C115.608 178.5 115.612 178.5 115.615 178.5C115.619 178.5 115.622 178.5 115.626 178.5C115.629 178.5 115.632 178.5 115.636 178.5C115.639 178.5 115.642 178.5 115.646 178.5C115.649 178.5 115.652 178.5 115.655 178.5C115.659 178.5 115.662 178.5 115.665 178.5C115.668 178.5 115.671 178.5 115.675 178.5C115.678 178.5 115.681 178.5 115.684 178.5C115.687 178.5 115.69 178.5 115.693 178.5C115.696 178.5 115.7 178.5 115.703 178.5C115.706 178.5 115.709 178.5 115.712 178.5C115.715 178.5 115.718 178.5 115.721 178.5C115.723 178.5 115.726 178.5 115.729 178.5C115.732 178.5 115.735 178.5 115.738 178.5C115.741 178.5 115.744 178.5 115.747 178.5C115.749 178.5 115.752 178.5 115.755 178.5C115.758 178.5 115.76 178.5 115.763 178.5C115.766 178.5 115.769 178.5 115.771 178.5C115.774 178.5 115.777 178.5 115.779 178.5C115.782 178.5 115.785 178.5 115.787 178.5C115.79 178.5 115.792 178.5 115.795 178.5C115.797 178.5 115.8 178.5 115.803 178.5C115.805 178.5 115.808 178.5 115.81 178.5C115.812 178.5 115.815 178.5 115.817 178.5C115.82 178.5 115.822 178.5 115.824 178.5C115.827 178.5 115.829 178.5 115.832 178.5C115.834 178.5 115.836 178.5 115.838 178.5C115.841 178.5 115.843 178.5 115.845 178.5C115.847 178.5 115.85 178.5 115.852 178.5C115.854 178.5 115.856 178.5 115.858 178.5C115.861 178.5 115.863 178.5 115.865 178.5C115.867 178.5 115.869 178.5 115.871 178.5C115.873 178.5 115.875 178.5 115.877 178.5C115.879 178.5 115.881 178.5 115.883 178.5C115.885 178.5 115.887 178.5 115.889 178.5C115.891 178.5 115.893 178.5 115.894 178.5C115.896 178.5 115.898 178.5 115.9 178.5C115.902 178.5 115.904 178.5 115.905 178.5C115.907 178.5 115.909 178.5 115.911 178.5C115.912 178.5 115.914 178.5 115.916 178.5C115.917 178.5 115.919 178.5 115.921 178.5C115.922 178.5 115.924 178.5 115.925 178.5C115.927 178.5 115.929 178.5 115.93 178.5C115.932 178.5 115.933 178.5 115.935 178.5C115.936 178.5 115.938 178.5 115.939 178.5C115.94 178.5 115.942 178.5 115.943 178.5C115.945 178.5 115.946 178.5 115.947 178.5C115.949 178.5 115.95 178.5 115.951 178.5C115.952 178.5 115.954 178.5 115.955 178.5C115.956 178.5 115.957 178.5 115.959 178.5C115.96 178.5 115.961 178.5 115.962 178.5C115.963 178.5 115.964 178.5 115.965 178.5C115.967 178.5 115.968 178.5 115.969 178.5C115.97 178.5 115.971 178.5 115.972 178.5C115.973 178.5 115.974 178.5 115.975 178.5C115.975 178.5 115.976 178.5 115.977 178.5C115.978 178.5 115.979 178.5 115.98 178.5C115.981 178.5 115.981 178.5 115.982 178.5C115.983 178.5 115.984 178.5 115.985 178.5C115.985 178.5 115.986 178.5 115.987 178.5C115.987 178.5 115.988 178.5 115.989 178.5C115.989 178.5 115.99 178.5 115.99 178.5C115.991 178.5 115.992 178.5 115.992 178.5C115.993 178.5 115.993 178.5 115.994 178.5C115.994 178.5 115.994 178.5 115.995 178.5C115.995 178.5 115.996 178.5 115.996 178.5C115.996 178.5 115.997 178.5 115.997 178.5C115.997 178.5 115.998 178.5 115.998 178.5C115.998 178.5 115.999 178.5 115.999 178.5C115.999 178.5 115.999 178.5 115.999 178.5C115.999 178.5 116 178.5 116 178.5C116 178.5 116 178.5 116 178.5C116 178.5 116 178.5 116 177C116 175.5 116 175.5 116 175.5C116 175.5 116 175.5 116 175.5C116 175.5 115.999 175.5 115.999 175.5C115.999 175.5 115.999 175.5 115.999 175.5C115.999 175.5 115.998 175.5 115.998 175.5C115.998 175.5 115.997 175.5 115.997 175.5C115.997 175.5 115.996 175.5 115.996 175.5C115.996 175.5 115.995 175.5 115.995 175.5C115.994 175.5 115.994 175.5 115.994 175.5C115.993 175.5 115.993 175.5 115.992 175.5C115.992 175.5 115.991 175.5 115.99 175.5C115.99 175.5 115.989 175.5 115.989 175.5C115.988 175.5 115.987 175.5 115.987 175.5C115.986 175.5 115.985 175.5 115.985 175.5C115.984 175.5 115.983 175.5 115.982 175.5C115.981 175.5 115.981 175.5 115.98 175.5C115.979 175.5 115.978 175.5 115.977 175.5C115.976 175.5 115.975 175.5 115.975 175.5C115.974 175.5 115.973 175.5 115.972 175.5C115.971 175.5 115.97 175.5 115.969 175.5C115.968 175.5 115.967 175.5 115.965 175.5C115.964 175.5 115.963 175.5 115.962 175.5C115.961 175.5 115.96 175.5 115.959 175.5C115.957 175.5 115.956 175.5 115.955 175.5C115.954 175.5 115.952 175.5 115.951 175.5C115.95 175.5 115.949 175.5 115.947 175.5C115.946 175.5 115.945 175.5 115.943 175.5C115.942 175.5 115.94 175.5 115.939 175.5C115.938 175.5 115.936 175.5 115.935 175.5C115.933 175.5 115.932 175.5 115.93 175.5C115.929 175.5 115.927 175.5 115.925 175.5C115.924 175.5 115.922 175.5 115.921 175.5C115.919 175.5 115.917 175.5 115.916 175.5C115.914 175.5 115.912 175.5 115.911 175.5C115.909 175.5 115.907 175.5 115.905 175.5C115.904 175.5 115.902 175.5 115.9 175.5C115.898 175.5 115.896 175.5 115.894 175.5C115.893 175.5 115.891 175.5 115.889 175.5C115.887 175.5 115.885 175.5 115.883 175.5C115.881 175.5 115.879 175.5 115.877 175.5C115.875 175.5 115.873 175.5 115.871 175.5C115.869 175.5 115.867 175.5 115.865 175.5C115.863 175.5 115.861 175.5 115.858 175.5C115.856 175.5 115.854 175.5 115.852 175.5C115.85 175.5 115.847 175.5 115.845 175.5C115.843 175.5 115.841 175.5 115.838 175.5C115.836 175.5 115.834 175.5 115.832 175.5C115.829 175.5 115.827 175.5 115.824 175.5C115.822 175.5 115.82 175.5 115.817 175.5C115.815 175.5 115.812 175.5 115.81 175.5C115.808 175.5 115.805 175.5 115.803 175.5C115.8 175.5 115.797 175.5 115.795 175.5C115.792 175.5 115.79 175.5 115.787 175.5C115.785 175.5 115.782 175.5 115.779 175.5C115.777 175.5 115.774 175.5 115.771 175.5C115.769 175.5 115.766 175.5 115.763 175.5C115.76 175.5 115.758 175.5 115.755 175.5C115.752 175.5 115.749 175.5 115.747 175.5C115.744 175.5 115.741 175.5 115.738 175.5C115.735 175.5 115.732 175.5 115.729 175.5C115.726 175.5 115.723 175.5 115.721 175.5C115.718 175.5 115.715 175.5 115.712 175.5C115.709 175.5 115.706 175.5 115.703 175.5C115.7 175.5 115.696 175.5 115.693 175.5C115.69 175.5 115.687 175.5 115.684 175.5C115.681 175.5 115.678 175.5 115.675 175.5C115.671 175.5 115.668 175.5 115.665 175.5C115.662 175.5 115.659 175.5 115.655 175.5C115.652 175.5 115.649 175.5 115.646 175.5C115.642 175.5 115.639 175.5 115.636 175.5C115.632 175.5 115.629 175.5 115.626 175.5C115.622 175.5 115.619 175.5 115.615 175.5C115.612 175.5 115.608 175.5 115.605 175.5C115.602 175.5 115.598 175.5 115.595 175.5C115.591 175.5 115.588 175.5 115.584 175.5C115.58 175.5 115.577 175.5 115.573 175.5C115.57 175.5 115.566 175.5 115.562 175.5C115.559 175.5 115.555 175.5 115.552 175.5C115.548 175.5 115.544 175.5 115.54 175.5C115.537 175.5 115.533 175.5 115.529 175.5C115.526 175.5 115.522 175.5 115.518 175.5C115.514 175.5 115.51 175.5 115.507 175.5C115.503 175.5 115.499 175.5 115.495 175.5C115.491 175.5 115.487 175.5 115.483 175.5C115.479 175.5 115.475 175.5 115.472 175.5C115.468 175.5 115.464 175.5 115.46 175.5C115.456 175.5 115.452 175.5 115.448 175.5C115.444 175.5 115.44 175.5 115.435 175.5C115.431 175.5 115.427 175.5 115.423 175.5C115.419 175.5 115.415 175.5 115.411 175.5C115.407 175.5 115.403 175.5 115.398 175.5C115.394 175.5 115.39 175.5 115.386 175.5C115.382 175.5 115.377 175.5 115.373 175.5C115.369 175.5 115.365 175.5 115.36 175.5C115.356 175.5 115.352 175.5 115.347 175.5C115.343 175.5 115.339 175.5 115.334 175.5C115.33 175.5 115.325 175.5 115.321 175.5C115.317 175.5 115.312 175.5 115.308 175.5C115.303 175.5 115.299 175.5 115.294 175.5C115.29 175.5 115.285 175.5 115.281 175.5C115.276 175.5 115.272 175.5 115.267 175.5C115.263 175.5 115.258 175.5 115.254 175.5C115.249 175.5 115.244 175.5 115.24 175.5C115.235 175.5 115.23 175.5 115.226 175.5C115.221 175.5 115.216 175.5 115.212 175.5C115.207 175.5 115.202 175.5 115.198 175.5C115.193 175.5 115.188 175.5 115.183 175.5C115.178 175.5 115.174 175.5 115.169 175.5C115.164 175.5 115.159 175.5 115.154 175.5C115.15 175.5 115.145 175.5 115.14 175.5C115.135 175.5 115.13 175.5 115.125 175.5C115.12 175.5 115.115 175.5 115.11 175.5C115.105 175.5 115.1 175.5 115.095 175.5C115.09 175.5 115.085 175.5 115.08 175.5C115.075 175.5 115.07 175.5 115.065 175.5C115.06 175.5 115.055 175.5 115.05 175.5C115.045 175.5 115.04 175.5 115.035 175.5C115.03 175.5 115.024 175.5 115.019 175.5C115.014 175.5 115.009 175.5 115.004 175.5C114.998 175.5 114.993 175.5 114.988 175.5C114.983 175.5 114.978 175.5 114.972 175.5C114.967 175.5 114.962 175.5 114.956 175.5C114.951 175.5 114.946 175.5 114.941 175.5C114.935 175.5 114.93 175.5 114.925 175.5C114.919 175.5 114.914 175.5 114.908 175.5C114.903 175.5 114.898 175.5 114.892 175.5C114.887 175.5 114.881 175.5 114.876 175.5C114.87 175.5 114.865 175.5 114.859 175.5C114.854 175.5 114.848 175.5 114.843 175.5C114.837 175.5 114.832 175.5 114.826 175.5C114.821 175.5 114.815 175.5 114.81 175.5C114.804 175.5 114.798 175.5 114.793 175.5C114.787 175.5 114.781 175.5 114.776 175.5C114.77 175.5 114.764 175.5 114.759 175.5C114.753 175.5 114.747 175.5 114.742 175.5C114.736 175.5 114.73 175.5 114.724 175.5C114.719 175.5 114.713 175.5 114.707 175.5C114.701 175.5 114.696 175.5 114.69 175.5C114.684 175.5 114.678 175.5 114.672 175.5C114.666 175.5 114.661 175.5 114.655 175.5C114.649 175.5 114.643 175.5 114.637 175.5C114.631 175.5 114.625 175.5 114.619 175.5C114.613 175.5 114.607 175.5 114.602 175.5C114.596 175.5 114.59 175.5 114.584 175.5C114.578 175.5 114.572 175.5 114.566 175.5C114.56 175.5 114.554 175.5 114.547 175.5C114.541 175.5 114.535 175.5 114.529 175.5C114.523 175.5 114.517 175.5 114.511 175.5C114.505 175.5 114.499 175.5 114.493 175.5C114.486 175.5 114.48 175.5 114.474 175.5C114.468 175.5 114.462 175.5 114.456 175.5C114.449 175.5 114.443 175.5 114.437 175.5C114.431 175.5 114.425 175.5 114.418 175.5C114.412 175.5 114.406 175.5 114.399 175.5C114.393 175.5 114.387 175.5 114.381 175.5C114.374 175.5 114.368 175.5 114.362 175.5C114.355 175.5 114.349 175.5 114.343 175.5C114.336 175.5 114.33 175.5 114.323 175.5C114.317 175.5 114.311 175.5 114.304 175.5C114.298 175.5 114.291 175.5 114.285 175.5C114.278 175.5 114.272 175.5 114.266 175.5C114.259 175.5 114.253 175.5 114.246 175.5C114.24 175.5 114.233 175.5 114.227 175.5C114.22 175.5 114.213 175.5 114.207 175.5C114.2 175.5 114.194 175.5 114.187 175.5C114.181 175.5 114.174 175.5 114.167 175.5C114.161 175.5 114.154 175.5 114.148 175.5C114.141 175.5 114.134 175.5 114.128 175.5C114.121 175.5 114.114 175.5 114.108 175.5C114.101 175.5 114.094 175.5 114.088 175.5C114.081 175.5 114.074 175.5 114.067 175.5C114.061 175.5 114.054 175.5 114.047 175.5C114.04 175.5 114.034 175.5 114.027 175.5C114.02 175.5 114.013 175.5 114.006 175.5C114 175.5 113.993 175.5 113.986 175.5C113.979 175.5 113.972 175.5 113.965 175.5C113.959 175.5 113.952 175.5 113.945 175.5C113.938 175.5 113.931 175.5 113.924 175.5C113.917 175.5 113.91 175.5 113.903 175.5C113.896 175.5 113.889 175.5 113.882 175.5C113.875 175.5 113.869 175.5 113.862 175.5C113.855 175.5 113.848 175.5 113.841 175.5C113.834 175.5 113.827 175.5 113.82 175.5C113.812 175.5 113.805 175.5 113.798 175.5C113.791 175.5 113.784 175.5 113.777 175.5C113.77 175.5 113.763 175.5 113.756 175.5C113.749 175.5 113.742 175.5 113.735 175.5C113.727 175.5 113.72 175.5 113.713 175.5C113.706 175.5 113.699 175.5 113.692 175.5C113.685 175.5 113.677 175.5 113.67 175.5C113.663 175.5 113.656 175.5 113.649 175.5C113.641 175.5 113.634 175.5 113.627 175.5C113.62 175.5 113.612 175.5 113.605 175.5C113.598 175.5 113.591 175.5 113.583 175.5C113.576 175.5 113.569 175.5 113.562 175.5C113.554 175.5 113.547 175.5 113.54 175.5C113.532 175.5 113.525 175.5 113.518 175.5C113.51 175.5 113.503 175.5 113.496 175.5C113.488 175.5 113.481 175.5 113.473 175.5C113.466 175.5 113.459 175.5 113.451 175.5C113.444 175.5 113.436 175.5 113.429 175.5C113.422 175.5 113.414 175.5 113.407 175.5C113.399 175.5 113.392 175.5 113.384 175.5C113.377 175.5 113.369 175.5 113.362 175.5C113.354 175.5 113.347 175.5 113.339 175.5C113.332 175.5 113.324 175.5 113.317 175.5C113.309 175.5 113.302 175.5 113.294 175.5C113.287 175.5 113.279 175.5 113.272 175.5C113.264 175.5 113.257 175.5 113.249 175.5C113.241 175.5 113.234 175.5 113.226 175.5C113.219 175.5 113.211 175.5 113.203 175.5C113.196 175.5 113.188 175.5 113.18 175.5C113.173 175.5 113.165 175.5 113.158 175.5C113.15 175.5 113.142 175.5 113.135 175.5C113.127 175.5 113.119 175.5 113.111 175.5C113.104 175.5 113.096 175.5 113.088 175.5C113.081 175.5 113.073 175.5 113.065 175.5C113.057 175.5 113.05 175.5 113.042 175.5C113.034 175.5 113.027 175.5 113.019 175.5C113.011 175.5 113.003 175.5 112.995 175.5C112.988 175.5 112.98 175.5 112.972 175.5C112.964 175.5 112.956 175.5 112.949 175.5C112.941 175.5 112.933 175.5 112.925 175.5C112.917 175.5 112.909 175.5 112.902 175.5C112.894 175.5 112.886 175.5 112.878 175.5C112.87 175.5 112.862 175.5 112.854 175.5C112.847 175.5 112.839 175.5 112.831 175.5C112.823 175.5 112.815 175.5 112.807 175.5C112.799 175.5 112.791 175.5 112.783 175.5C112.775 175.5 112.767 175.5 112.759 175.5C112.751 175.5 112.744 175.5 112.736 175.5C112.728 175.5 112.72 175.5 112.712 175.5C112.704 175.5 112.696 175.5 112.688 175.5C112.68 175.5 112.672 175.5 112.664 175.5C112.656 175.5 112.648 175.5 112.64 175.5C112.632 175.5 112.624 175.5 112.616 175.5C112.607 175.5 112.599 175.5 112.591 175.5C112.583 175.5 112.575 175.5 112.567 175.5C112.559 175.5 112.551 175.5 112.543 175.5C112.535 175.5 112.527 175.5 112.519 175.5C112.511 175.5 112.503 175.5 112.494 175.5C112.486 175.5 112.478 175.5 112.47 175.5C112.462 175.5 112.454 175.5 112.446 175.5C112.438 175.5 112.429 175.5 112.421 175.5C112.413 175.5 112.405 175.5 112.397 175.5C112.389 175.5 112.38 175.5 112.372 175.5C112.364 175.5 112.356 175.5 112.348 175.5C112.339 175.5 112.331 175.5 112.323 175.5C112.315 175.5 112.307 175.5 112.298 175.5C112.29 175.5 112.282 175.5 112.274 175.5C112.266 175.5 112.257 175.5 112.249 175.5C112.241 175.5 112.233 175.5 112.224 175.5C112.216 175.5 112.208 175.5 112.2 175.5C112.191 175.5 112.183 175.5 112.175 175.5C112.166 175.5 112.158 175.5 112.15 175.5C112.142 175.5 112.133 175.5 112.125 175.5C112.117 175.5 112.108 175.5 112.1 175.5C112.092 175.5 112.083 175.5 112.075 175.5C112.067 175.5 112.058 175.5 112.05 175.5C112.042 175.5 112.033 175.5 112.025 175.5C112.017 175.5 112.008 175.5 112 175.5C111.992 175.5 111.983 175.5 111.975 175.5C111.967 175.5 111.958 175.5 111.95 175.5C111.941 175.5 111.933 175.5 111.925 175.5C111.916 175.5 111.908 175.5 111.9 175.5C111.891 175.5 111.883 175.5 111.874 175.5C111.866 175.5 111.858 175.5 111.849 175.5C111.841 175.5 111.832 175.5 111.824 175.5C111.815 175.5 111.807 175.5 111.799 175.5C111.79 175.5 111.782 175.5 111.773 175.5C111.765 175.5 111.756 175.5 111.748 175.5C111.739 175.5 111.731 175.5 111.723 175.5C111.714 175.5 111.706 175.5 111.697 175.5C111.689 175.5 111.68 175.5 111.672 175.5C111.663 175.5 111.655 175.5 111.646 175.5C111.638 175.5 111.629 175.5 111.621 175.5C111.612 175.5 111.604 175.5 111.595 175.5C111.587 175.5 111.578 175.5 111.57 175.5C111.561 175.5 111.553 175.5 111.544 175.5C111.536 175.5 111.527 175.5 111.519 175.5C111.51 175.5 111.502 175.5 111.493 175.5C111.484 175.5 111.476 175.5 111.467 175.5C111.459 175.5 111.45 175.5 111.442 175.5C111.433 175.5 111.425 175.5 111.416 175.5C111.408 175.5 111.399 175.5 111.39 175.5C111.382 175.5 111.373 175.5 111.365 175.5C111.356 175.5 111.348 175.5 111.339 175.5C111.33 175.5 111.322 175.5 111.313 175.5C111.305 175.5 111.296 175.5 111.287 175.5C111.279 175.5 111.27 175.5 111.262 175.5C111.253 175.5 111.245 175.5 111.236 175.5C111.227 175.5 111.219 175.5 111.21 175.5C111.201 175.5 111.193 175.5 111.184 175.5C111.176 175.5 111.167 175.5 111.158 175.5C111.15 175.5 111.141 175.5 111.133 175.5C111.124 175.5 111.115 175.5 111.107 175.5C111.098 175.5 111.089 175.5 111.081 175.5C111.072 175.5 111.064 175.5 111.055 175.5C111.046 175.5 111.038 175.5 111.029 175.5C111.02 175.5 111.012 175.5 111.003 175.5C110.994 175.5 110.986 175.5 110.977 175.5C110.968 175.5 110.96 175.5 110.951 175.5C110.942 175.5 110.934 175.5 110.925 175.5C110.917 175.5 110.908 175.5 110.899 175.5C110.891 175.5 110.882 175.5 110.873 175.5C110.865 175.5 110.856 175.5 110.847 175.5C110.839 175.5 110.83 175.5 110.821 175.5C110.813 175.5 110.804 175.5 110.795 175.5C110.787 175.5 110.778 175.5 110.769 175.5C110.76 175.5 110.752 175.5 110.743 175.5C110.734 175.5 110.726 175.5 110.717 175.5C110.708 175.5 110.7 175.5 110.691 175.5C110.682 175.5 110.674 175.5 110.665 175.5C110.656 175.5 110.648 175.5 110.639 175.5C110.63 175.5 110.622 175.5 110.613 175.5C110.604 175.5 110.595 175.5 110.587 175.5C110.578 175.5 110.569 175.5 110.561 175.5C110.552 175.5 110.543 175.5 110.535 175.5C110.526 175.5 110.517 175.5 110.509 175.5C110.5 175.5 110.491 175.5 110.482 175.5C110.474 175.5 110.465 175.5 110.456 175.5C110.448 175.5 110.439 175.5 110.43 175.5C110.422 175.5 110.413 175.5 110.404 175.5C110.395 175.5 110.387 175.5 110.378 175.5C110.369 175.5 110.361 175.5 110.352 175.5C110.343 175.5 110.335 175.5 110.326 175.5C110.317 175.5 110.308 175.5 110.3 175.5C110.291 175.5 110.282 175.5 110.274 175.5C110.265 175.5 110.256 175.5 110.248 175.5C110.239 175.5 110.23 175.5 110.221 175.5C110.213 175.5 110.204 175.5 110.195 175.5C110.187 175.5 110.178 175.5 110.169 175.5C110.161 175.5 110.152 175.5 110.143 175.5C110.134 175.5 110.126 175.5 110.117 175.5C110.108 175.5 110.1 175.5 110.091 175.5C110.082 175.5 110.074 175.5 110.065 175.5C110.056 175.5 110.048 175.5 110.039 175.5C110.03 175.5 110.021 175.5 110.013 175.5C110.004 175.5 109.995 175.5 109.987 175.5C109.978 175.5 109.969 175.5 109.961 175.5C109.952 175.5 109.943 175.5 109.935 175.5C109.926 175.5 109.917 175.5 109.909 175.5C109.9 175.5 109.891 175.5 109.883 175.5C109.874 175.5 109.865 175.5 109.857 175.5C109.848 175.5 109.839 175.5 109.83 175.5C109.822 175.5 109.813 175.5 109.804 175.5C109.796 175.5 109.787 175.5 109.778 175.5C109.77 175.5 109.761 175.5 109.753 175.5C109.744 175.5 109.735 175.5 109.727 175.5C109.718 175.5 109.709 175.5 109.701 175.5C109.692 175.5 109.683 175.5 109.675 175.5C109.666 175.5 109.657 175.5 109.649 175.5C109.64 175.5 109.631 175.5 109.623 175.5C109.614 175.5 109.605 175.5 109.597 175.5C109.588 175.5 109.58 175.5 109.571 175.5C109.562 175.5 109.554 175.5 109.545 175.5C109.536 175.5 109.528 175.5 109.519 175.5C109.511 175.5 109.502 175.5 109.493 175.5C109.485 175.5 109.476 175.5 109.467 175.5C109.459 175.5 109.45 175.5 109.442 175.5C109.433 175.5 109.424 175.5 109.416 175.5C109.407 175.5 109.399 175.5 109.39 175.5C109.381 175.5 109.373 175.5 109.364 175.5C109.356 175.5 109.347 175.5 109.339 175.5C109.33 175.5 109.321 175.5 109.313 175.5C109.304 175.5 109.296 175.5 109.287 175.5C109.279 175.5 109.27 175.5 109.261 175.5C109.253 175.5 109.244 175.5 109.236 175.5C109.227 175.5 109.219 175.5 109.21 175.5C109.202 175.5 109.193 175.5 109.184 175.5C109.176 175.5 109.167 175.5 109.159 175.5C109.15 175.5 109.142 175.5 109.133 175.5C109.125 175.5 109.116 175.5 109.108 175.5C109.099 175.5 109.091 175.5 109.082 175.5C109.074 175.5 109.065 175.5 109.057 175.5C109.048 175.5 109.04 175.5 109.031 175.5C109.023 175.5 109.014 175.5 109.006 175.5C108.997 175.5 108.989 175.5 108.98 175.5C108.972 175.5 108.963 175.5 108.955 175.5C108.946 175.5 108.938 175.5 108.929 175.5C108.921 175.5 108.913 175.5 108.904 175.5C108.896 175.5 108.887 175.5 108.879 175.5C108.87 175.5 108.862 175.5 108.853 175.5C108.845 175.5 108.837 175.5 108.828 175.5C108.82 175.5 108.811 175.5 108.803 175.5C108.794 175.5 108.786 175.5 108.778 175.5C108.769 175.5 108.761 175.5 108.752 175.5C108.744 175.5 108.736 175.5 108.727 175.5C108.719 175.5 108.711 175.5 108.702 175.5C108.694 175.5 108.685 175.5 108.677 175.5C108.669 175.5 108.66 175.5 108.652 175.5C108.644 175.5 108.635 175.5 108.627 175.5C108.619 175.5 108.61 175.5 108.602 175.5C108.594 175.5 108.585 175.5 108.577 175.5C108.569 175.5 108.56 175.5 108.552 175.5C108.544 175.5 108.535 175.5 108.527 175.5C108.519 175.5 108.511 175.5 108.502 175.5C108.494 175.5 108.486 175.5 108.477 175.5C108.469 175.5 108.461 175.5 108.453 175.5C108.444 175.5 108.436 175.5 108.428 175.5C108.42 175.5 108.411 175.5 108.403 175.5C108.395 175.5 108.387 175.5 108.378 175.5C108.37 175.5 108.362 175.5 108.354 175.5C108.346 175.5 108.337 175.5 108.329 175.5C108.321 175.5 108.313 175.5 108.305 175.5C108.296 175.5 108.288 175.5 108.28 175.5C108.272 175.5 108.264 175.5 108.256 175.5C108.247 175.5 108.239 175.5 108.231 175.5C108.223 175.5 108.215 175.5 108.207 175.5C108.198 175.5 108.19 175.5 108.182 175.5C108.174 175.5 108.166 175.5 108.158 175.5C108.15 175.5 108.142 175.5 108.134 175.5C108.126 175.5 108.117 175.5 108.109 175.5C108.101 175.5 108.093 175.5 108.085 175.5C108.077 175.5 108.069 175.5 108.061 175.5C108.053 175.5 108.045 175.5 108.037 175.5C108.029 175.5 108.021 175.5 108.013 175.5C108.005 175.5 107.997 175.5 107.989 175.5C107.981 175.5 107.973 175.5 107.965 175.5C107.957 175.5 107.949 175.5 107.941 175.5C107.933 175.5 107.925 175.5 107.917 175.5C107.909 175.5 107.901 175.5 107.893 175.5C107.885 175.5 107.877 175.5 107.869 175.5C107.861 175.5 107.853 175.5 107.846 175.5C107.838 175.5 107.83 175.5 107.822 175.5C107.814 175.5 107.806 175.5 107.798 175.5C107.79 175.5 107.782 175.5 107.775 175.5C107.767 175.5 107.759 175.5 107.751 175.5C107.743 175.5 107.735 175.5 107.727 175.5C107.72 175.5 107.712 175.5 107.704 175.5C107.696 175.5 107.688 175.5 107.681 175.5C107.673 175.5 107.665 175.5 107.657 175.5C107.649 175.5 107.642 175.5 107.634 175.5C107.626 175.5 107.618 175.5 107.611 175.5C107.603 175.5 107.595 175.5 107.588 175.5C107.58 175.5 107.572 175.5 107.564 175.5C107.557 175.5 107.549 175.5 107.541 175.5C107.534 175.5 107.526 175.5 107.518 175.5C107.511 175.5 107.503 175.5 107.495 175.5C107.488 175.5 107.48 175.5 107.472 175.5C107.465 175.5 107.457 175.5 107.449 175.5C107.442 175.5 107.434 175.5 107.427 175.5C107.419 175.5 107.411 175.5 107.404 175.5C107.396 175.5 107.389 175.5 107.381 175.5C107.374 175.5 107.366 175.5 107.359 175.5C107.351 175.5 107.344 175.5 107.336 175.5C107.328 175.5 107.321 175.5 107.313 175.5C107.306 175.5 107.298 175.5 107.291 175.5C107.284 175.5 107.276 175.5 107.269 175.5C107.261 175.5 107.254 175.5 107.246 175.5C107.239 175.5 107.231 175.5 107.224 175.5C107.217 175.5 107.209 175.5 107.202 175.5C107.194 175.5 107.187 175.5 107.18 175.5C107.172 175.5 107.165 175.5 107.158 175.5C107.15 175.5 107.143 175.5 107.136 175.5C107.128 175.5 107.121 175.5 107.114 175.5C107.106 175.5 107.099 175.5 107.092 175.5C107.084 175.5 107.077 175.5 107.07 175.5C107.063 175.5 107.055 175.5 107.048 175.5C107.041 175.5 107.034 175.5 107.026 175.5C107.019 175.5 107.012 175.5 107.005 175.5C106.997 175.5 106.99 175.5 106.983 175.5C106.976 175.5 106.969 175.5 106.962 175.5C106.954 175.5 106.947 175.5 106.94 175.5C106.933 175.5 106.926 175.5 106.919 175.5C106.912 175.5 106.905 175.5 106.897 175.5C106.89 175.5 106.883 175.5 106.876 175.5C106.869 175.5 106.862 175.5 106.855 175.5C106.848 175.5 106.841 175.5 106.834 175.5C106.827 175.5 106.82 175.5 106.813 175.5C106.806 175.5 106.799 175.5 106.792 175.5C106.785 175.5 106.778 175.5 106.771 175.5C106.764 175.5 106.757 175.5 106.75 175.5C106.743 175.5 106.736 175.5 106.73 175.5C106.723 175.5 106.716 175.5 106.709 175.5C106.702 175.5 106.695 175.5 106.688 175.5C106.681 175.5 106.675 175.5 106.668 175.5C106.661 175.5 106.654 175.5 106.647 175.5C106.641 175.5 106.634 175.5 106.627 175.5C106.62 175.5 106.613 175.5 106.607 175.5C106.6 175.5 106.593 175.5 106.586 175.5C106.58 175.5 106.573 175.5 106.566 175.5C106.56 175.5 106.553 175.5 106.546 175.5C106.54 175.5 106.533 175.5 106.526 175.5C106.52 175.5 106.513 175.5 106.506 175.5C106.5 175.5 106.493 175.5 106.487 175.5C106.48 175.5 106.473 175.5 106.467 175.5C106.46 175.5 106.454 175.5 106.447 175.5C106.441 175.5 106.434 175.5 106.428 175.5C106.421 175.5 106.414 175.5 106.408 175.5C106.402 175.5 106.395 175.5 106.389 175.5C106.382 175.5 106.376 175.5 106.369 175.5C106.363 175.5 106.356 175.5 106.35 175.5C106.344 175.5 106.337 175.5 106.331 175.5C106.324 175.5 106.318 175.5 106.312 175.5C106.305 175.5 106.299 175.5 106.293 175.5C106.286 175.5 106.28 175.5 106.274 175.5C106.267 175.5 106.261 175.5 106.255 175.5C106.249 175.5 106.242 175.5 106.236 175.5C106.23 175.5 106.224 175.5 106.217 175.5C106.211 175.5 106.205 175.5 106.199 175.5C106.193 175.5 106.186 175.5 106.18 175.5C106.174 175.5 106.168 175.5 106.162 175.5C106.156 175.5 106.15 175.5 106.144 175.5C106.137 175.5 106.131 175.5 106.125 175.5C106.119 175.5 106.113 175.5 106.107 175.5C106.101 175.5 106.095 175.5 106.089 175.5C106.083 175.5 106.077 175.5 106.071 175.5C106.065 175.5 106.059 175.5 106.053 175.5C106.047 175.5 106.041 175.5 106.035 175.5C106.029 175.5 106.024 175.5 106.018 175.5C106.012 175.5 106.006 175.5 106 175.5V178.5ZM129.838 130.5C128.626 130.5 127.589 131.369 127.376 132.562L130.33 133.088C130.288 133.326 130.08 133.5 129.838 133.5V130.5ZM193.268 133.438C193.54 131.906 192.362 130.5 190.807 130.5V133.5C190.495 133.5 190.26 133.219 190.314 132.912L193.268 133.438ZM183.162 178.5C184.374 178.5 185.411 177.631 185.624 176.438L182.67 175.912C182.712 175.674 182.92 175.5 183.162 175.5V178.5ZM122.193 175.5C122.505 175.5 122.74 175.781 122.686 176.088L119.732 175.562C119.46 177.094 120.638 178.5 122.193 178.5V175.5Z" fill="#119737"/>
<circle cx="103" cy="99" r="21.5" stroke="#173048" strokeWidth="3" strokeLinecap="round" strokeLinejoin="round"/>
</svg>
