<svg width="260" height="260" viewBox="0 0 260 260" fill="none" xmlns="http://www.w3.org/2000/svg">
<circle r="130" transform="matrix(-1 0 0 1 130 130)" fill="#F6F6F6"/>
<path d="M143.847 158.656L161.703 160.528L161.271 166.144L131.463 165.856L101.367 166.144L100.935 160.528L118.935 158.656V111.568L119.367 110.272L116.343 111.712L101.655 115.6L99.4951 110.416L135.495 95.152H143.847V158.656Z" fill="#F9F9F9"/>
<path fillRule="evenodd" clipRule="evenodd" d="M80.6334 74C76.9754 74 74 77.0422 74 80.7818V90.9555V149.824V151.616C74 155.353 76.9754 158.396 80.6334 158.396H135.75C135.239 157.493 134.793 156.552 134.404 155.578H80.6334C78.499 155.578 76.7577 153.801 76.7577 151.616V149.824V90.9555V80.7818C76.7577 78.5946 78.499 76.8176 80.6334 76.8176H179.365C181.503 76.8176 183.242 78.5946 183.242 80.7818V82.5738V141.442V151.616C183.242 153.801 181.503 155.578 179.365 155.578H175.791C175.402 156.552 174.954 157.493 174.443 158.396H179.365C183.022 158.396 186 155.353 186 151.616V141.442V82.5738V80.7818C186 77.0422 183.022 74 179.365 74H80.6334Z" fill="#119737"/>
<path fillRule="evenodd" clipRule="evenodd" d="M154.501 164.204C145.031 164.204 137.322 156.479 137.322 146.983C137.322 137.489 145.031 129.764 154.501 129.764C163.972 129.764 171.68 137.489 171.68 146.983C171.68 156.479 163.972 164.204 154.501 164.204ZM154.501 126.946C143.48 126.946 134.514 135.935 134.514 146.983C134.514 158.033 143.48 167.022 154.501 167.022C165.523 167.022 174.489 158.033 174.489 146.983C174.489 135.935 165.523 126.946 154.501 126.946Z" fill="#173048"/>
<path fillRule="evenodd" clipRule="evenodd" d="M176.88 178.219L164.891 174.749L159.442 186L154.501 174.875L149.558 186L144.111 174.749L132.125 178.219L138.703 163.405C139.407 164.085 140.157 164.712 140.941 165.297L137.152 173.832L145.604 171.383L149.451 179.32L153.685 169.781C153.959 169.792 154.226 169.824 154.501 169.824C155.277 169.824 156.041 169.783 156.797 169.708L156.039 171.411L159.552 179.32L163.397 171.383L171.853 173.832L168.062 165.297C168.848 164.712 169.598 164.085 170.3 163.405L176.88 178.219Z" fill="#173048"/>
<path fillRule="evenodd" clipRule="evenodd" d="M112.124 102.747C112.284 103.101 112.439 103.466 112.583 103.835C112.729 103.455 112.887 103.086 113.048 102.727C113.212 102.369 113.38 102.021 113.552 101.682L118.385 92.1389C118.472 91.9749 118.56 91.8475 118.65 91.7568C118.741 91.6661 118.842 91.597 118.954 91.5538C119.066 91.5106 119.193 91.4912 119.335 91.4912H119.833H123.167V110.351H119.316V99.4972C119.316 98.9682 119.344 98.3982 119.393 97.7872L114.407 107.488C114.25 107.79 114.041 108.019 113.781 108.177C113.516 108.33 113.216 108.41 112.882 108.41H112.286C111.95 108.41 111.65 108.33 111.388 108.177C111.125 108.019 110.916 107.79 110.761 107.488L105.747 97.7721C105.781 98.0744 105.807 98.3766 105.824 98.6724C105.841 98.9704 105.85 99.2446 105.85 99.4972V110.351H101.999V91.4912H105.333H105.831C105.975 91.4912 106.1 91.5106 106.212 91.5538C106.324 91.597 106.425 91.6661 106.516 91.7568C106.606 91.8475 106.694 91.9749 106.783 92.1389L111.629 101.721C111.799 102.051 111.965 102.393 112.124 102.747Z" fill="#173048"/>
<path fillRule="evenodd" clipRule="evenodd" d="M138.389 91.4824V94.8506H130.661V99.2552H136.58V102.494H130.661V106.989H138.389V110.357H126.268V91.4824H138.389Z" fill="#173048"/>
<path fillRule="evenodd" clipRule="evenodd" d="M153.522 105.471C153.626 105.471 153.731 105.49 153.835 105.529C153.936 105.568 154.035 105.635 154.13 105.73L155.861 107.557C155.103 108.55 154.153 109.299 153.014 109.804C151.87 110.309 150.52 110.562 148.961 110.562C147.53 110.562 146.249 110.318 145.118 109.83C143.983 109.342 143.022 108.668 142.234 107.809C141.448 106.95 140.841 105.931 140.418 104.752C139.998 103.573 139.785 102.293 139.785 100.911C139.785 99.503 140.026 98.2097 140.509 97.0308C140.993 95.8519 141.665 94.835 142.531 93.98C143.397 93.125 144.433 92.46 145.639 91.985C146.845 91.51 148.179 91.2725 149.633 91.2725C150.339 91.2725 151.005 91.3351 151.629 91.4603C152.254 91.5855 152.84 91.7583 153.382 91.9785C153.925 92.1987 154.423 92.4621 154.879 92.7687C155.336 93.0753 155.741 93.4165 156.094 93.7857L154.621 95.7677C154.526 95.8908 154.414 95.9988 154.285 96.0981C154.156 96.1974 153.975 96.2471 153.744 96.2471C153.587 96.2471 153.441 96.2125 153.303 96.1434C153.165 96.0743 153.021 95.9901 152.863 95.8908C152.708 95.7915 152.538 95.6835 152.353 95.5669C152.168 95.4504 151.95 95.3424 151.694 95.2431C151.44 95.1438 151.145 95.0596 150.802 94.9905C150.462 94.9214 150.065 94.8868 149.609 94.8868C148.814 94.8868 148.093 95.0272 147.436 95.3078C146.781 95.5885 146.219 95.9901 145.751 96.5126C145.28 97.0351 144.913 97.6678 144.651 98.4105C144.388 99.1532 144.257 99.9867 144.257 100.911C144.257 101.878 144.388 102.737 144.651 103.489C144.913 104.24 145.271 104.873 145.723 105.387C146.176 105.9 146.703 106.291 147.306 106.559C147.912 106.827 148.556 106.961 149.247 106.961C149.641 106.961 150.003 106.941 150.333 106.902C150.658 106.863 150.964 106.797 151.241 106.702C151.521 106.607 151.789 106.483 152.043 106.332C152.299 106.181 152.553 105.993 152.812 105.769C152.915 105.682 153.029 105.611 153.148 105.555C153.268 105.499 153.393 105.471 153.522 105.471Z" fill="#173048"/>
<path fillRule="evenodd" clipRule="evenodd" d="M85.6162 135.204H133.408V132.397H85.6162V135.204Z" fill="#119737"/>
<path fillRule="evenodd" clipRule="evenodd" d="M154.502 136.499L152.007 144.507H143.933L150.465 149.458L147.969 157.466L154.502 152.518L161.034 157.466L158.54 149.458L165.073 144.507H156.998L154.502 136.499Z" fill="#173048"/>
<path fillRule="evenodd" clipRule="evenodd" d="M107.052 146.113H109.86V143.298H107.052V146.113Z" fill="#119737"/>
<path fillRule="evenodd" clipRule="evenodd" d="M107.435 145.73H109.476V143.681H107.435V145.73Z" fill="#119737"/>
<path fillRule="evenodd" clipRule="evenodd" d="M99.9092 146.113H102.718V143.298H99.9092V146.113Z" fill="#119737"/>
<path fillRule="evenodd" clipRule="evenodd" d="M92.7637 146.113H95.5723V143.298H92.7637V146.113Z" fill="#119737"/>
<path fillRule="evenodd" clipRule="evenodd" d="M85.6162 146.113H88.4227V143.298H85.6162V146.113Z" fill="#119737"/>
<path fillRule="evenodd" clipRule="evenodd" d="M114.2 146.113H117.009V143.298H114.2V146.113Z" fill="#119737"/>
<path fillRule="evenodd" clipRule="evenodd" d="M114.583 145.73H116.625V143.681H114.583V145.73Z" fill="#119737"/>
</svg>
