<svg width="260" height="260" viewBox="0 0 260 260" fill="none" xmlns="http://www.w3.org/2000/svg">
<circle r="130" transform="matrix(-1 0 0 1 130 130)" fill="#F6F6F6"/>
<path d="M63.5 163.5H196.5V174C196.5 175.381 195.381 176.5 194 176.5H66C64.6193 176.5 63.5 175.381 63.5 174V163.5Z" stroke="#173048" strokeWidth="3" strokeLinejoin="round"/>
<path d="M184 158V86C184 83.7909 182.209 82 180 82H78C75.7909 82 74 83.7909 74 86V158" stroke="#173048" strokeWidth="3" strokeLinecap="square" strokeLinejoin="round"/>
<path d="M123 146C123 150 126.095 152.032 130 152C132 152 137 150.44 137 146C137 142 137 143 137 140C137 137 138 137 141.314 133.314C147.562 127.066 147.562 116.935 141.314 110.687C135.065 104.438 124.935 104.438 118.686 110.687C112.438 116.935 112.438 127.066 118.686 133.314C121.279 136.198 122.456 136.213 122.845 138H130" stroke="#119737" strokeWidth="3" strokeLinejoin="round"/>
<path d="M149 111L159 105" stroke="#119737" strokeWidth="3" strokeLinecap="square" strokeLinejoin="round"/>
<path d="M111 111L101 105" stroke="#119737" strokeWidth="3" strokeLinecap="square" strokeLinejoin="round"/>
<path d="M139 101L144 91" stroke="#119737" strokeWidth="3" strokeLinecap="square" strokeLinejoin="round"/>
<path d="M121 101L117 91" stroke="#119737" strokeWidth="3" strokeLinecap="square" strokeLinejoin="round"/>
</svg>
