<svg width="260" height="260" viewBox="0 0 260 260" fill="none" xmlns="http://www.w3.org/2000/svg">
<g clip-path="url(#clip0_4242_35691)">
<path d="M130 260C58.203 260 0 201.797 0 130C0 58.203 58.203 0 130 0C201.797 0 260 58.203 260 130C260 201.797 201.797 260 130 260Z" fill="#F6F6F6"/>
<path d="M132.862 164.68C134.782 162.472 136.174 160.264 137.038 158.056C137.902 155.848 138.334 153.016 138.334 149.56C138.334 147.064 137.854 144.76 136.894 142.648C136.03 140.536 134.686 138.712 132.862 137.176C131.038 135.544 128.782 134.296 126.094 133.432C123.502 132.568 120.43 132.136 116.878 132.136L115.582 127.672L123.07 123.064C127.678 120.472 130.894 117.592 132.718 114.424C134.542 111.256 135.454 107.176 135.454 102.184C135.454 97.6721 134.542 94.2161 132.718 91.8161C130.894 89.3201 128.59 88.0721 125.806 88.0721C124.942 88.0721 124.03 88.2161 123.07 88.5041C122.206 88.6961 121.438 88.9361 120.766 89.2241L115.726 109.384H96.7182V91.3841L133.15 79.2881C138.334 79.2881 142.654 79.8161 146.11 80.8721C149.662 81.8321 152.494 83.1761 154.606 84.9041C156.814 86.6321 158.35 88.6001 159.214 90.8081C160.174 93.0161 160.654 95.3201 160.654 97.7201C160.654 100.216 160.174 102.568 159.214 104.776C158.35 106.984 156.862 109.048 154.75 110.968C152.638 112.888 149.854 114.616 146.398 116.152C143.038 117.688 138.91 119.032 134.014 120.184C139.678 120.376 144.43 121.288 148.27 122.92C152.206 124.552 155.326 126.52 157.63 128.824C160.03 131.128 161.758 133.624 162.814 136.312C163.87 139 164.398 141.496 164.398 143.8C164.398 148.024 163.63 151.576 162.094 154.456C160.558 157.336 158.398 159.832 155.614 161.944C152.926 164.152 149.662 166.12 145.822 167.848C142.078 169.672 137.902 171.592 133.294 173.608L109.966 184.12H96.5742V164.68H132.862Z" fill="#F9F9F9"/>
<path fillRule="evenodd" clipRule="evenodd" d="M124.223 144.918L103.255 165.887C100.802 168.339 95.4158 167.097 91.4897 163.171C87.5653 159.247 86.3215 153.859 88.774 151.406L109.743 130.438C109.288 129.385 108.916 128.324 108.63 127.256L86.6266 149.259C82.8892 152.996 84.0853 160.047 89.3495 165.311C94.6136 170.576 101.665 171.772 105.402 168.034L127.405 146.032C126.337 145.745 125.275 145.371 124.223 144.918Z" fill="#119737"/>
<path fillRule="evenodd" clipRule="evenodd" d="M127.154 108.73L111.146 124.738L111.315 125.542C112.159 129.538 114.453 133.569 117.774 136.889C121.093 140.208 125.124 142.502 129.12 143.346L129.923 143.515L145.931 127.507L143.19 126.926C139.765 126.2 136.277 124.199 133.371 121.293C130.463 118.385 128.461 114.897 127.736 111.471L127.154 108.73ZM125.511 114.666C126.65 117.785 128.624 120.827 131.23 123.433C133.835 126.037 136.878 128.01 139.993 129.148L128.95 140.191C125.782 139.345 122.599 137.433 119.914 134.749C117.227 132.061 115.317 128.88 114.468 125.708L125.511 114.666Z" fill="#173048"/>
<path fillRule="evenodd" clipRule="evenodd" d="M173.621 85.2106C169.251 80.8407 163.512 80.709 160.895 83.3258C159.091 85.1294 159.259 89.1618 162.381 92.2828C165.503 95.4048 169.531 95.5698 171.335 93.7658C171.925 93.1758 171.924 92.2148 171.332 91.6218C170.738 91.0278 169.776 91.0268 169.186 91.6168C168.623 92.1798 166.427 92.0458 164.523 90.1408C162.617 88.2358 162.481 86.0375 163.044 85.4748C164.413 84.1054 168.286 84.1559 171.481 87.3509C174.674 90.5448 174.725 94.4168 173.355 95.7858C170.195 98.9458 164.54 98.2438 160.48 94.1848C156.418 90.1228 155.715 84.4656 158.875 81.3056L158.982 81.1983L156.835 79.0508L129.711 106.175L130.461 109.72L153.874 86.3066C153.876 89.7208 155.392 93.3778 158.339 96.3248C161.283 99.2688 164.94 100.785 168.354 100.787L144.941 124.2L148.487 124.952L175.612 97.8278L175.597 97.8128C178.105 95.1458 177.931 89.5198 173.621 85.2106Z" fill="#119737"/>
<path fillRule="evenodd" clipRule="evenodd" d="M148.777 150.292C148.592 150.478 148.359 150.616 148.095 150.684C147.574 150.823 147.017 150.672 146.633 150.289L137.04 140.695L139.18 138.555L146.92 146.295L149.187 137.899C149.327 137.38 149.731 136.976 150.25 136.835L158.647 134.57L150.906 126.829L153.048 124.687L162.641 134.28C163.025 134.664 163.176 135.221 163.035 135.744C162.894 136.27 162.487 136.673 161.97 136.816L151.887 139.536L149.167 149.618C149.097 149.877 148.961 150.108 148.777 150.292Z" fill="#173048"/>
</g>
<defs>
<clipPath id="clip0_4242_35691">
<rect width="260" height="260" fill="white"/>
</clipPath>
</defs>
</svg>
