<svg width="307" height="287" viewBox="0 0 307 287" fill="none" xmlns="http://www.w3.org/2000/svg">
<path d="M194.295 68.4333H193.273C193.273 64.8964 196.152 62.0171 199.688 62.0171H207.139C214.378 62.0171 221.277 58.545 225.59 52.7285L226.411 53.3384C221.904 59.4138 214.698 63.0393 207.139 63.0393H199.688C196.714 63.0427 194.295 65.462 194.295 68.4333Z" fill="#1D232A"/>
<path d="M265.543 68.4333H264.521C264.521 65.4586 262.103 63.0393 259.129 63.0393H251.678C244.115 63.0393 236.91 59.4138 232.406 53.3384L233.227 52.7285C237.54 58.545 244.439 62.0171 251.678 62.0171H259.129C262.665 62.0205 265.543 64.8964 265.543 68.4333Z" fill="#1D232A"/>
<path d="M229.408 57.9781C232.138 57.9781 234.351 55.7646 234.351 53.034C234.351 50.3034 232.138 48.0898 229.408 48.0898C226.678 48.0898 224.465 50.3034 224.465 53.034C224.465 55.7646 226.678 57.9781 229.408 57.9781Z" fill="#1D232A"/>
<path d="M306.954 68.4316H149.84V207.747H306.954V68.4316Z" fill="#BBBDBF"/>
<path d="M295.94 68.4316H149.84V207.747H295.94V68.4316Z" fill="#E8E9EA"/>
<path d="M306.954 68.4316H149.84V81.6558H306.954V68.4316Z" fill="#00A868"/>
<path d="M306.955 68.4316H295.941V81.6558H306.955V68.4316Z" fill="#008E5A"/>
<path d="M289.444 105.729V195.887H157.477V105.729H289.444Z" fill="#FCFCFC" stroke="#FCFCFC"/>
<path d="M210.163 196.899C209.881 196.899 209.652 196.671 209.652 196.388V105.23C209.652 104.947 209.881 104.719 210.163 104.719C210.446 104.719 210.674 104.947 210.674 105.23V196.388C210.674 196.671 210.446 196.899 210.163 196.899Z" fill="#1D232A"/>
<path d="M236.759 196.899C236.476 196.899 236.248 196.671 236.248 196.388V105.23C236.248 104.947 236.476 104.719 236.759 104.719C237.042 104.719 237.27 104.947 237.27 105.23V196.388C237.27 196.671 237.038 196.899 236.759 196.899Z" fill="#1D232A"/>
<path d="M289.945 128.481H157.157C156.875 128.481 156.646 128.253 156.646 127.97C156.646 127.687 156.875 127.459 157.157 127.459H289.945C290.227 127.459 290.456 127.687 290.456 127.97C290.456 128.253 290.227 128.481 289.945 128.481Z" fill="#1D232A"/>
<path d="M289.945 151.94H157.157C156.875 151.94 156.646 151.712 156.646 151.429C156.646 151.146 156.875 150.918 157.157 150.918H289.945C290.227 150.918 290.456 151.146 290.456 151.429C290.456 151.712 290.227 151.94 289.945 151.94Z" fill="#1D232A"/>
<path d="M289.945 175.397H157.157C156.875 175.397 156.646 175.169 156.646 174.886C156.646 174.603 156.875 174.375 157.157 174.375H289.945C290.227 174.375 290.456 174.603 290.456 174.886C290.456 175.169 290.227 175.397 289.945 175.397Z" fill="#1D232A"/>
<path d="M263.353 196.899C263.07 196.899 262.842 196.671 262.842 196.388V105.23C262.842 104.947 263.07 104.719 263.353 104.719C263.636 104.719 263.864 104.947 263.864 105.23V196.388C263.864 196.671 263.636 196.899 263.353 196.899Z" fill="#1D232A"/>
<path d="M278.437 165.506C278.375 165.506 278.311 165.496 278.249 165.469C277.987 165.366 277.858 165.066 277.963 164.804C283.697 150.316 285.591 136.88 283.595 124.869C281.809 114.146 276.907 105.096 269.416 98.7004C262.609 92.8907 254.062 89.5889 244.7 89.1494C234.981 88.6962 224.876 91.3983 215.484 96.9592C215.242 97.1023 214.929 97.0239 214.782 96.7786C214.639 96.5367 214.717 96.2232 214.963 96.0767C224.525 90.4135 234.827 87.6638 244.748 88.1238C254.341 88.5701 263.1 91.9571 270.08 97.9167C277.755 104.469 282.78 113.73 284.603 124.695C286.633 136.894 284.719 150.513 278.914 165.175C278.832 165.383 278.641 165.506 278.437 165.506Z" fill="#1D232A"/>
<path d="M214.148 91.3926L212.176 98.6027L219.81 98.9366L214.148 91.3926Z" fill="#1D232A"/>
<path d="M219.811 99.4469C219.804 99.4469 219.797 99.4469 219.787 99.4469L212.152 99.1164C211.996 99.1096 211.852 99.0312 211.76 98.9085C211.668 98.7824 211.638 98.6223 211.682 98.4724L213.658 91.2623C213.709 91.0749 213.862 90.9318 214.057 90.8943C214.247 90.8568 214.445 90.9318 214.561 91.0885L220.219 98.6291C220.339 98.7858 220.356 99.0005 220.264 99.1743C220.172 99.3413 219.998 99.4469 219.811 99.4469ZM212.837 98.1214L218.751 98.377L214.367 92.5333L212.837 98.1214Z" fill="#1D232A"/>
<path d="M271.32 196.759C271.13 196.759 270.939 196.677 270.806 196.524C270.571 196.251 270.588 195.846 270.844 195.593L280.284 186.308L267.75 195.454C267.461 195.665 267.055 195.617 266.827 195.341C266.595 195.065 266.619 194.66 266.878 194.411L277.933 183.848L264.344 194.193C264.054 194.411 263.645 194.367 263.41 194.091C263.175 193.815 263.199 193.402 263.461 193.154L275.409 181.892L264.316 189.504C264.03 189.702 263.642 189.651 263.413 189.389C263.185 189.126 263.195 188.734 263.431 188.479L270.898 180.444L264.326 185.157C264.054 185.351 263.683 185.32 263.448 185.085C263.212 184.85 263.182 184.475 263.379 184.206L267.9 177.953C268.122 177.65 268.547 177.578 268.851 177.8C269.157 178.021 269.225 178.447 269.004 178.751L266.936 181.609L275.63 175.374C275.916 175.169 276.308 175.214 276.54 175.476C276.771 175.738 276.764 176.134 276.526 176.389L268.619 184.898L281.898 175.786C282.191 175.585 282.59 175.643 282.815 175.919C283.04 176.195 283.012 176.597 282.75 176.842L273.821 185.259L286.794 175.381C287.08 175.163 287.489 175.207 287.724 175.479C287.959 175.755 287.939 176.164 287.676 176.413L275.262 188.274L286.968 179.732C287.257 179.521 287.659 179.568 287.887 179.841C288.119 180.114 288.099 180.519 287.847 180.768L279.418 189.058L287.748 182.727C288.024 182.516 288.415 182.55 288.654 182.802C288.892 183.054 288.903 183.446 288.678 183.712L281.35 192.36L287.864 189.205C288.201 189.041 288.61 189.181 288.773 189.521C288.937 189.859 288.797 190.268 288.456 190.431L279.044 194.99C278.754 195.13 278.406 195.048 278.209 194.796C278.011 194.544 278.018 194.183 278.229 193.937L283.615 187.583L271.733 196.612C271.61 196.714 271.467 196.759 271.32 196.759Z" fill="#1D232A"/>
<path d="M108.366 11.4094C108.441 8.97989 108.019 6.48907 106.796 4.39011C105.569 2.29115 103.471 0.635148 101.065 0.297815C98.9465 -0.00203671 96.7798 0.727148 95.0118 1.93337C93.2437 3.13959 91.8367 4.79559 90.5558 6.50952C90.0686 4.41396 87.9462 2.94537 85.7966 2.84315C83.6503 2.74093 81.5654 3.81426 80.0631 5.351C78.5607 6.88774 78.1621 8.67322 76.7722 10.8471C71.7984 18.5854 66.6304 19.7337 66.9029 22.5652C70.9501 22.9537 74.9973 23.3421 79.0445 23.7271C83.0916 24.1122 87.1388 24.504 91.186 24.8891C93.0904 25.0731 103.236 36.5083 105.143 36.6514C106.281 36.7366 111.565 33.5746 111.548 28.5691C111.534 24.5483 109.133 21.5771 104.704 22.1223C106.571 19.3282 107.896 16.1763 108.26 12.82C108.318 12.3498 108.352 11.8796 108.366 11.4094Z" fill="#8F5049"/>
<path d="M120.523 75.5544L117.409 77.1899V77.1967L119.041 83.756C122.724 98.5748 113.648 113.584 98.7779 117.176C98.5769 117.224 98.3725 117.271 98.1715 117.312C83.6112 120.484 69.1361 111.257 65.5249 96.7212L59.2429 71.445L57.2296 63.349L55.407 56.0061L53.9216 50.0363C53.8569 49.7671 53.7922 49.5047 53.7309 49.2287C53.4686 48.0055 53.288 46.7822 53.1892 45.5726C52.4908 36.8496 56.0066 28.4776 62.3022 22.852C64.9117 20.5179 67.9948 18.6575 71.456 17.4376C72.134 17.1957 72.8255 16.9844 73.5239 16.8004C73.6806 16.7493 73.8407 16.7119 74.0009 16.671C76.9579 15.935 79.9217 15.7101 82.8004 15.935C86.6636 16.2382 90.377 17.3627 93.7122 19.1618C100.294 22.7123 105.411 28.924 107.356 36.7542L108.586 41.7154L112.388 56.9976L122.206 69.2779C123.729 71.3224 122.932 74.2936 120.523 75.5544Z" fill="#E09661"/>
<path d="M98.7776 117.175C98.5766 117.223 98.3722 117.271 98.1712 117.312C83.9175 113.591 78.7495 90.1614 78.7495 90.1614L70.8493 60.8747C70.8493 60.8747 62.2201 68.9162 59.2426 71.4445C58.7555 71.8568 58.4216 72.126 58.299 72.1839C58.299 72.1839 52.7631 68.0916 48.273 51.7838C48.1504 51.3374 45.1593 38.0621 51.3459 29.6254C59.4947 18.5104 71.1764 19.6553 76.777 10.8438C76.777 10.8438 79.7204 12.6599 82.8001 15.9344C86.6497 20.0267 90.7105 26.402 89.5045 34.3651C88.5643 40.5529 85.4948 45.1904 79.8124 46.9623C79.8124 46.9623 83.151 60.8066 84.6397 66.8956C86.4828 74.4226 90.3392 76.7805 95.4595 77.7414C104.501 79.4417 116.816 77.1212 117.409 77.1962L119.041 83.7555C122.723 98.5743 113.648 113.584 98.7776 117.175Z" fill="#8F5049"/>
<path d="M183.57 196.899C183.287 196.899 183.059 196.671 183.059 196.388V105.23C183.059 104.947 183.287 104.719 183.57 104.719C183.852 104.719 184.081 104.947 184.081 105.23V196.388C184.081 196.671 183.852 196.899 183.57 196.899Z" fill="#1D232A"/>
<path d="M54.0835 40.7649C49.1335 39.4258 28.332 46.445 40.4668 68.9032C46.2684 79.64 59.8102 93.8318 65.7038 97.5289L71.9415 95.924C74.4829 95.2698 76.0568 92.7278 75.5083 90.162L73.6585 79.0028L79.3886 63.7035L54.0835 40.7649Z" fill="#8F5049"/>
<path d="M103.803 162.82L78.1158 276.477C77.8209 277.778 77.4054 278.977 76.8947 280.047C74.5572 284.951 70.2025 287.262 66.1046 285.306L57.373 281.131L6.54664 256.832C1.55439 254.447 -1.16375 246.628 0.47919 239.368L19.4808 155.279C21.1237 148.018 27.9873 117.168 51.4832 122.648L62.251 127.312L63.507 127.856L64.8899 128.456L75.7751 133.17L76.4888 133.479L78.9785 134.558L91.4401 139.955C96.4324 142.345 105.443 155.56 103.803 162.82Z" fill="#42EC9A"/>
<path d="M74.7392 238.257C72.2285 241.879 67.551 243.586 63.1496 242.141L53.7709 239.057L53.7266 239.04L56.0772 197.524L62.9281 194.863L74.7392 238.257Z" fill="#1D232A"/>
<path d="M52.2113 230.12C52.1943 230.12 52.1738 230.12 52.1534 230.117C51.8741 230.086 51.6697 229.834 51.7003 229.555L55.8429 191.743C55.8735 191.463 56.1256 191.262 56.405 191.29C56.6843 191.32 56.8887 191.572 56.8581 191.852L52.7189 229.664C52.6883 229.926 52.4668 230.12 52.2113 230.12Z" fill="#1D232A"/>
<path d="M122.281 278.438C115.188 291.509 75.7243 290.579 69.0642 253.009L59.8047 215.156L119.576 194.486L132.245 254.399C132.245 254.399 129.697 264.768 122.281 278.438Z" fill="#E09661"/>
<path d="M75.5198 243.604L107.069 209.387C118.652 196.037 124.972 191.958 131.513 167.221C137.451 140.401 158.266 144.176 172.71 153.751C187.155 163.326 202.682 183.229 182.041 201.468C156.978 224.097 138.704 259.197 126.358 275.491C107.58 300.88 61.9338 276.309 75.5198 243.604Z" fill="#E09661"/>
<path d="M166.046 218.164C178.464 203.465 185.304 199.423 191.225 191.689C196.23 185.15 198.468 176.563 197.293 168.413C196.117 160.262 193.842 149.266 187.195 144.411C184.586 141.76 171.347 143.579 166.506 146.585C157.57 139.995 144.315 143.457 139.034 150.128C133.996 156.497 132.636 163.107 131.516 167.217" fill="#E09661"/>
<path d="M164.09 148.877C163.934 149.112 152.068 167.042 151.952 167.246C151.881 173.949 155.499 176.709 166.22 171.741C176.941 166.773 179.07 151.715 179.07 151.715L164.09 148.877Z" fill="#1D232A"/>
<path d="M176.511 127.456L140.172 173.547L149.542 180.938L185.882 134.847L176.511 127.456Z" fill="#008E5A"/>
<path d="M142.536 170.553L138.268 175.964L140.823 182.366L147.639 183.354L151.908 177.943L149.356 171.541L142.536 170.553Z" fill="#E8E9EA"/>
<path d="M176.516 127.452L177.173 131.006L181.203 131.149L182.167 134.948L185.888 134.846L187.601 123.029L176.516 127.452Z" fill="#E8E9EA"/>
<path d="M145.087 179.169C146.312 179.169 147.305 178.176 147.305 176.951C147.305 175.726 146.312 174.732 145.087 174.732C143.862 174.732 142.869 175.726 142.869 176.951C142.869 178.176 143.862 179.169 145.087 179.169Z" fill="#1D232A"/>
<path d="M187.6 123.033L186.874 128.028L182.912 124.9L187.6 123.033Z" fill="#1D232A"/>
<path d="M158.572 173.728C163.035 173.118 167.058 169.946 168.69 165.748C170.022 162.323 169.814 158.524 169.736 154.848C169.658 151.174 169.784 147.3 171.661 144.142C173.538 140.983 177.742 138.915 181.012 140.591C183.268 141.746 184.446 144.244 185.349 146.612C187.758 152.95 189.304 159.771 188.504 166.504C187.703 173.237 184.296 179.875 178.536 183.453" fill="#E09661"/>
<path d="M178.539 183.965C178.369 183.965 178.202 183.879 178.103 183.723C177.953 183.484 178.028 183.167 178.266 183.017C183.513 179.76 187.148 173.565 187.996 166.444C188.691 160.583 187.672 154.157 184.872 146.793C183.976 144.439 182.862 142.111 180.78 141.045C180.528 140.915 180.43 140.609 180.559 140.357C180.688 140.104 180.995 140.006 181.247 140.135C183.635 141.358 184.858 143.883 185.826 146.429C188.684 153.949 189.727 160.535 189.008 166.563C188.125 173.991 184.31 180.465 178.801 183.883C178.723 183.941 178.631 183.965 178.539 183.965Z" fill="#1D232A"/>
<path d="M158.571 174.239C158.319 174.239 158.101 174.051 158.067 173.796C158.03 173.516 158.224 173.257 158.503 173.22C162.755 172.637 166.659 169.56 168.216 165.56C169.408 162.497 169.326 159.048 169.248 155.716L169.228 154.857C169.221 154.574 169.446 154.343 169.728 154.336C170.018 154.333 170.243 154.554 170.25 154.837L170.27 155.692C170.352 159.127 170.437 162.677 169.17 165.931C167.456 170.334 163.324 173.591 158.643 174.232C158.616 174.239 158.592 174.239 158.571 174.239Z" fill="#1D232A"/>
<path d="M70.8018 60.7422L63.583 62.6878C56.061 64.7152 51.5607 72.5318 53.5877 80.0554C55.6147 87.5789 63.4297 92.0801 70.9517 90.0527L78.1706 88.1071L70.8018 60.7422Z" fill="#E09661"/>
<path d="M65.2524 83.419C65.1059 83.419 64.956 83.3543 64.8572 83.2316C64.6801 83.0135 64.7108 82.6898 64.9288 82.5127C66.9013 80.9044 67.7802 78.2636 67.1738 75.7898C66.5674 73.3161 64.5643 71.3875 62.0705 70.873C61.7946 70.815 61.6174 70.5458 61.672 70.2698C61.7299 69.9938 61.999 69.8167 62.2749 69.8712C65.1502 70.4641 67.4634 72.6925 68.1618 75.5445C68.8635 78.3999 67.8449 81.4461 65.5692 83.3032C65.4807 83.3815 65.3648 83.419 65.2524 83.419Z" fill="#1D232A"/>
<path d="M92.1912 51.9567C91.7858 51.9567 91.3838 51.8136 91.0568 51.524C90.3584 50.897 90.2937 49.8271 90.9171 49.1252C91.0057 49.0264 93.1212 46.6684 96.5757 45.0942C97.4307 44.7024 98.4425 45.0806 98.8309 45.9358C99.2227 46.7911 98.8445 47.8031 97.9894 48.1915C95.2164 49.4557 93.4789 51.3707 93.4619 51.3877C93.1246 51.7659 92.6579 51.9567 92.1912 51.9567Z" fill="#8F5049"/>
<path d="M93.0264 58.375C93.984 57.7058 95.1928 57.4042 96.4375 57.6221V57.623L107.291 59.5518C108.106 59.6971 108.833 60.0489 109.426 60.5459L109.671 60.7676C110.719 61.7918 111.257 63.2956 110.981 64.8418V64.8428C110.76 66.0837 110.061 67.1143 109.103 67.7842C108.863 67.9496 108.61 68.0916 108.341 68.2168C107.639 68.529 106.852 68.6672 106.044 68.5859L105.695 68.5371L94.8408 66.6084L94.6104 66.5615C92.2589 66.0209 90.7195 63.7244 91.1475 61.3213C91.3687 60.0797 92.0683 59.0446 93.0264 58.375Z" fill="#FCFCFC" stroke="#FCFCFC"/>
<path d="M111.474 64.9289C111.228 66.3055 110.452 67.4504 109.389 68.1932C109.123 68.3772 108.844 68.5339 108.551 68.6668C107.788 69.011 106.932 69.1609 106.057 69.0859C105.907 69.0723 105.757 69.0553 105.607 69.028L100.824 68.1796L102.592 58.2129L107.375 59.0613C107.525 59.0886 107.672 59.1227 107.818 59.1602C108.67 59.3884 109.419 59.828 110.016 60.4107C111.181 61.5385 111.78 63.2082 111.474 64.9289Z" fill="#1D232A"/>
<path d="M111.453 93.9942C110.459 93.9942 103.669 93.7386 102.391 86.9272C102.34 86.6512 102.521 86.382 102.8 86.3309C103.076 86.2798 103.345 86.4604 103.396 86.7398C104.606 93.1798 111.249 92.9822 111.532 92.9719C111.811 92.9617 112.053 93.1798 112.063 93.4626C112.073 93.7454 111.855 93.9839 111.576 93.9942C111.569 93.9942 111.528 93.9942 111.453 93.9942Z" fill="#1D232A"/>
<path d="M197.256 123.316C196.101 123.316 195.014 122.839 194.309 122.089C194.115 121.885 194.125 121.561 194.329 121.367C194.534 121.173 194.857 121.183 195.052 121.387C195.982 122.375 197.814 122.72 199.269 121.575C200.4 120.685 201.081 119.299 201.047 117.949C201.027 117.05 200.686 116.32 200.09 115.898C198.908 115.06 197.876 115.472 196.445 116.041L196.309 116.096C194.69 116.74 193.249 117.186 191.972 116.14C191.192 115.499 190.752 114.477 190.766 113.332C190.783 111.884 191.505 110.46 192.701 109.519C193.886 108.589 195.447 108.408 196.775 109.049C197.031 109.172 197.136 109.478 197.014 109.731C196.891 109.986 196.585 110.092 196.332 109.969C195.569 109.601 194.38 109.499 193.335 110.32C192.381 111.07 191.802 112.201 191.791 113.339C191.781 114.17 192.088 114.903 192.623 115.346C193.399 115.983 194.309 115.789 195.931 115.142L196.063 115.087C197.596 114.477 199.041 113.898 200.676 115.06C201.528 115.663 202.032 116.706 202.063 117.919C202.103 119.581 201.272 121.288 199.893 122.372C199.072 123.036 198.145 123.316 197.256 123.316Z" fill="#1D232A"/>
<path d="M200.277 123.964C200.093 123.964 199.919 123.865 199.827 123.694L191.828 108.743C191.695 108.494 191.787 108.184 192.036 108.051C192.285 107.918 192.595 108.01 192.728 108.259L200.727 123.211C200.86 123.459 200.768 123.769 200.519 123.902C200.441 123.943 200.359 123.964 200.277 123.964Z" fill="#1D232A"/>
<path d="M196.668 126.605C195.149 126.605 193.664 126.315 192.349 125.739C190.363 124.867 188.884 123.385 188.189 121.558C188.087 121.296 188.22 120.999 188.486 120.897C188.748 120.798 189.044 120.928 189.146 121.194C189.753 122.781 191.003 124.028 192.761 124.802C195.156 125.851 198.174 125.845 200.842 124.778C202.968 123.93 204.664 122.127 205.492 119.834C206.419 117.268 206.163 114.437 204.766 111.867C202.644 107.956 197.939 106.027 193.33 107.182C188.775 108.32 186.033 111.99 185.999 116.992C185.992 117.762 186.087 120.471 187.535 122.965C187.678 123.211 187.593 123.521 187.351 123.664C187.106 123.807 186.796 123.722 186.653 123.48C185.075 120.761 184.973 117.824 184.977 116.985C185.024 110.511 189.194 107.165 193.085 106.191C198.147 104.923 203.322 107.056 205.669 111.38C207.205 114.212 207.485 117.336 206.459 120.182C205.533 122.751 203.625 124.771 201.227 125.729C199.758 126.311 198.198 126.605 196.668 126.605Z" fill="#1D232A"/>
<path d="M119.576 194.476C119.576 194.483 119.576 194.486 119.576 194.486L59.8048 215.156L50.5317 171.296C46.9444 154.337 57.7812 137.685 74.7365 134.097C76.9236 133.634 79.1073 133.412 81.2569 133.412C95.7696 133.412 108.804 143.539 111.928 158.31L119.576 194.476Z" fill="#42EC9A"/>
<path d="M88.6462 238.691C88.6325 238.691 88.6189 238.691 88.6087 238.691C88.3259 238.67 88.1147 238.425 88.1386 238.142C88.7109 230.513 92.8092 223.098 101.033 214.808C102.164 213.67 103.339 212.508 104.477 211.387C109.771 206.164 115.249 200.763 119.15 194.592C119.3 194.354 119.617 194.282 119.855 194.432C120.094 194.582 120.165 194.899 120.015 195.137C116.053 201.407 110.534 206.848 105.196 212.113C104.062 213.234 102.886 214.392 101.762 215.527C93.7188 223.633 89.7159 230.843 89.1606 238.217C89.1333 238.486 88.9119 238.691 88.6462 238.691Z" fill="#1D232A"/>
<path d="M73.5376 129.76C72.754 129.933 71.4935 130.09 69.6846 129.988C68.2367 129.903 66.8093 129.596 65.5147 129.044C64.5302 128.622 63.624 128.063 62.8473 127.357C62.8439 127.354 62.8371 127.351 62.8302 127.344C62.4725 127.02 62.1421 126.666 61.8457 126.277L73.5376 129.76Z" fill="#1D232A"/>
<path d="M74.3029 129.987C73.9281 130.079 73.5534 130.151 73.1752 130.202C70.5861 130.577 67.8778 130.158 65.5135 129.043C64.5562 128.594 63.6569 128.028 62.8461 127.357C62.8426 127.353 62.8358 127.35 62.829 127.343C62.5803 127.135 62.335 126.917 62.1034 126.689C61.882 126.471 61.5345 126.478 61.3164 126.696C61.221 126.795 61.1734 126.914 61.1597 127.04C60.8804 126.658 60.6147 126.256 60.3591 125.834L59.0101 125.432C58.9965 125.486 58.9896 125.541 58.9931 125.599C59.1906 129.933 62.5395 133.892 66.7774 134.809C66.9103 134.836 67.0431 134.86 67.1692 134.884C70.1807 135.395 73.366 134.369 75.6076 132.325C76.1186 131.861 76.5785 131.347 76.9771 130.785L74.3029 129.987ZM73.4239 131.296C71.5196 132.134 69.1791 132.274 67.0363 131.568C65.166 130.958 63.4831 129.797 62.0148 128.11C65.1115 130.737 69.4142 131.892 73.4239 131.296ZM67.0125 133.718C64.1713 133.102 61.7866 130.948 60.71 128.277C62.4168 130.406 64.4506 131.895 66.6888 132.631C69.0633 133.408 71.5843 133.289 73.693 132.407C71.741 133.681 69.312 134.209 67.0125 133.718Z" fill="#1D232A"/>
</svg>
