<svg width="384" height="273" viewBox="0 0 384 273" fill="none" xmlns="http://www.w3.org/2000/svg">
<path d="M354.281 129.032C351.532 130.344 348.049 131.775 344.317 136.671C343.696 137.486 338.48 144.498 337.334 146.103C337.334 146.103 291.455 173.608 290.896 173.383C290.34 173.154 274.348 183.012 274.348 183.012L255.623 155.678C255.623 155.678 266.314 148.444 300.68 128.453C314.359 120.367 320.758 115.504 323.341 108.005C327.537 95.8232 327.24 75.0994 327.199 73.7126C327.018 68.0188 330.003 64.1752 338.654 65.9914C344.395 71.9714 352.323 92.0206 359.542 109.967C365.082 123.73 358.842 126.854 354.281 129.032Z" fill="#8F5049"/>
<path d="M351.774 98.4873C335.025 98.4873 324.071 86.793 322.43 77.5453C322.184 76.1551 323.112 74.8296 324.504 74.5843C325.899 74.339 327.223 75.2658 327.469 76.656C328.847 84.4147 339.435 94.7732 354.977 93.216C356.386 93.0729 357.638 94.0985 357.778 95.5024C357.918 96.9062 356.894 98.1601 355.489 98.2998C354.223 98.4259 352.982 98.4873 351.774 98.4873Z" fill="#42EC9A"/>
<path d="M367.458 124.902C366.489 124.902 365.561 124.35 365.132 123.413L338.82 66.1752C338.23 64.894 338.793 63.3743 340.079 62.7848C341.365 62.1954 342.883 62.7576 343.473 64.0422L369.785 121.28C370.375 122.561 369.812 124.081 368.526 124.67C368.178 124.827 367.813 124.902 367.458 124.902Z" fill="#42EC9A"/>
<path d="M354.571 131.052C354.476 131.052 354.384 131.025 354.298 130.974C354.06 130.824 353.988 130.507 354.142 130.268C365.416 112.499 380.511 74.1723 380.664 73.7873C380.767 73.5283 381.057 73.3988 381.319 73.4942C381.582 73.593 381.715 73.8793 381.623 74.1416C375.568 91.3559 370.192 104.144 365.447 115.429C363.366 120.377 361.401 125.048 359.583 129.614C359.477 129.877 359.18 130.006 358.917 129.9C358.655 129.795 358.525 129.498 358.631 129.236C360.452 124.66 362.417 119.981 364.502 115.031C366.576 110.097 368.773 104.873 371.092 99.1213C366.125 110.257 360.173 122.673 355.005 130.814C354.909 130.967 354.742 131.052 354.571 131.052Z" fill="#1D232A"/>
<path d="M381.138 75.9021C382.204 75.9021 383.069 75.0387 383.069 73.9735C383.069 72.9084 382.204 72.0449 381.138 72.0449C380.071 72.0449 379.207 72.9084 379.207 73.9735C379.207 75.0387 380.071 75.9021 381.138 75.9021Z" fill="#00A868"/>
<path d="M17.3509 141.244C17.1257 141.244 16.9176 141.094 16.8562 140.865C13.6837 129.049 9.70271 111.166 5.48634 92.2315C4.18663 86.3912 2.84258 80.3567 1.48829 74.3461C1.45417 74.1927 1.43371 74.1041 1.4303 74.0871C1.36889 73.8111 1.54287 73.5385 1.81918 73.4772C2.0955 73.4158 2.3684 73.5896 2.42981 73.8622C2.45028 73.9508 2.46733 74.036 2.4878 74.1246C3.34745 77.9238 13.3528 121.692 22.1267 139.905C22.2495 140.16 22.1403 140.463 21.8879 140.586C21.632 140.709 21.3284 140.6 21.2056 140.348C17.46 132.575 13.4995 120.193 10.1121 108.226C12.9605 120.874 15.6077 132.258 17.8455 140.6C17.9171 140.872 17.7568 141.152 17.4839 141.227C17.4396 141.24 17.3952 141.244 17.3509 141.244Z" fill="#1D232A"/>
<path d="M315.805 155.807C315.112 156.56 314.468 157.313 313.843 158.073L264.413 177.097L255.936 153.742L254.865 150.781C256.26 151.204 257.686 151.602 259.14 151.977C275.688 156.318 295.78 158.032 315.805 155.807Z" fill="#1D232A"/>
<path d="M307.431 156.811C294.519 156.811 276.979 154.76 266.096 152.521C265.82 152.463 265.643 152.194 265.697 151.918C265.755 151.642 266.025 151.465 266.301 151.52C278.333 153.997 298.531 156.239 311.498 155.711C311.788 155.697 312.019 155.919 312.03 156.201C312.04 156.484 311.822 156.723 311.538 156.733C310.242 156.787 308.864 156.811 307.431 156.811Z" fill="#1D232A"/>
<path d="M154.679 135.618C153.1 135.281 151.527 134.899 149.873 134.449C149.702 134.402 149.528 134.368 149.351 134.33C148.692 134.191 147.949 134.034 147.444 133.424C147.3 133.254 147.188 133.056 147.109 132.838L148.071 132.49C148.109 132.599 148.163 132.695 148.232 132.773C148.508 133.107 149.02 133.216 149.562 133.328C149.757 133.369 149.954 133.41 150.142 133.461C151.779 133.904 153.335 134.283 154.894 134.616L154.679 135.618Z" fill="#BBBDBF"/>
<path d="M182.505 145.506C180.172 146.828 176.794 147.213 173.864 146.988C181.57 149.067 179.732 155.647 175.266 157.286C171.671 158.608 165.199 159.344 160.096 160.042C157.845 160.356 155.887 161.749 154.856 163.773C153.243 166.946 148.061 207.429 140.791 220.547C134.17 232.497 115.899 229.69 106.637 223.992C104.928 222.946 112.515 175.495 112.515 175.495C112.515 175.495 118.939 141.891 121.538 134.473C126.853 119.32 132.887 109.711 135.231 106.031C138.383 101.097 143.268 100.729 145.079 104.665C146.267 107.238 143.858 113.214 142.183 117.088C141.852 117.862 141.702 118.83 142.098 119.521C142.18 119.664 142.282 119.797 142.412 119.91C143.009 120.438 143.889 120.387 144.687 120.417C146.877 120.503 166.608 120.506 178.998 121.528C189.935 122.435 189.389 130.064 184.262 132.207C181.836 133.222 176.392 134.033 172.987 134.296C174.482 134.272 177.896 134.827 180.932 135.645C185.452 136.858 187.38 142.732 182.505 145.506Z" fill="#8F5049"/>
<path d="M162.307 147.839C162.096 147.839 161.894 147.707 161.823 147.492C161.731 147.226 161.874 146.933 162.143 146.844C165.207 145.805 168.956 145.693 173.943 146.487C174.223 146.531 174.414 146.793 174.37 147.073C174.325 147.352 174.063 147.54 173.783 147.499C168.966 146.732 165.374 146.831 162.471 147.816C162.416 147.829 162.362 147.839 162.307 147.839Z" fill="#1D232A"/>
<path d="M163.405 135.416C163.193 135.416 162.992 135.283 162.92 135.068C162.828 134.802 162.972 134.509 163.241 134.421C166.308 133.381 170.057 133.269 175.041 134.063C175.321 134.107 175.512 134.37 175.467 134.649C175.423 134.928 175.157 135.119 174.881 135.075C170.064 134.308 166.472 134.407 163.569 135.392C163.514 135.409 163.459 135.416 163.405 135.416Z" fill="#1D232A"/>
<path d="M180.154 115.561L176.599 122.672L175.872 124.124L175.487 124.897L161.821 152.245C160.525 154.838 157.369 155.891 154.773 154.596L135.725 145.1C133.129 143.809 132.075 140.657 133.371 138.064L151.703 101.38C152.996 98.7865 156.152 97.7337 158.748 99.0285L168.712 103.996L177.793 108.525C180.392 109.82 181.446 112.972 180.154 115.561Z" fill="#1D232A"/>
<path d="M180.155 115.562L176.6 122.674L168.662 111.361L165.203 106.427C165.807 106.189 167.131 105.231 168.717 103.994L177.798 108.523C180.394 109.821 181.448 112.973 180.155 115.562Z" fill="#42EC9A"/>
<path d="M175.873 124.128L175.488 124.902C173.192 121.668 170.896 118.431 168.6 115.198C168.481 115.027 168.594 114.765 168.761 114.676C168.962 114.574 169.16 114.663 169.283 114.836C170.043 115.913 170.811 116.99 171.572 118.067C173.004 120.084 174.437 122.104 175.873 124.128Z" fill="#42EC9A"/>
<path d="M148.828 151.632L129.551 142.02C126.955 140.725 125.901 137.577 127.197 134.984L145.529 98.2995C146.826 95.7065 149.978 94.6536 152.574 95.9484L171.851 105.561C174.447 106.855 175.501 110.004 174.205 112.597L155.872 149.281C154.576 151.874 151.421 152.927 148.828 151.632Z" fill="#00A868"/>
<path d="M169.93 112.943L147.803 101.91L131.471 134.591L153.599 145.624L169.93 112.943Z" fill="#42EC9A"/>
<path d="M150.04 103.585L134.155 135.372L132.144 134.369L148.029 102.582L150.04 103.585Z" fill="#FCFCFC" stroke="#FCFCFC"/>
<path d="M160.577 105.122C161.184 105.122 161.675 104.631 161.675 104.025C161.675 103.419 161.184 102.928 160.577 102.928C159.97 102.928 159.479 103.419 159.479 104.025C159.479 104.631 159.97 105.122 160.577 105.122Z" fill="#1D232A"/>
<path d="M149.132 128.701C149.043 128.878 149.125 129.096 149.309 129.171C152.106 130.326 155.357 129.127 156.705 126.374C158.052 123.62 157.008 120.319 154.378 118.823C154.204 118.724 153.986 118.792 153.897 118.969L152.945 120.912C152.857 121.092 152.922 121.307 153.092 121.416C154.3 122.2 154.757 123.777 154.109 125.103C153.461 126.428 151.929 127.035 150.571 126.561C150.38 126.496 150.172 126.575 150.083 126.755L149.132 128.701Z" fill="#1D232A"/>
<path d="M150.049 120.022C149.984 119.834 149.779 119.732 149.591 119.797L146.716 120.942C146.552 121.006 146.412 121.126 146.327 121.296C146.245 121.466 146.235 121.65 146.283 121.821L147.142 124.792C147.207 124.979 147.412 125.082 147.599 125.017C147.695 124.983 147.766 124.918 147.807 124.833L150.028 120.298C150.072 120.216 150.079 120.117 150.049 120.022Z" fill="#1D232A"/>
<path d="M174.707 240.936C183.876 210.992 192.456 181.174 203.962 150.719C210.102 137.723 225.627 132.158 238.638 138.292C251.649 144.425 257.219 159.932 251.079 172.928L210.955 257.847C210.812 258.151 210.447 258.284 210.143 258.137L175 241.747C174.693 241.604 174.563 241.24 174.707 240.936Z" fill="#8F5049"/>
<path d="M92.8197 100.138C95.5155 92.6353 94.9065 85.5513 91.4593 84.3155C88.0122 83.0797 83.0323 88.1601 80.3364 95.663C77.6405 103.166 78.2496 110.25 81.6967 111.486C85.1439 112.721 90.1238 107.641 92.8197 100.138Z" fill="#1D232A"/>
<path d="M99.4555 116.1C105.702 113.352 109.772 108.869 108.545 106.085C107.318 103.302 101.259 103.273 95.0123 106.021C88.7653 108.769 84.6958 113.252 85.9228 116.036C87.1497 118.819 93.2085 118.848 99.4555 116.1Z" fill="#1D232A"/>
<path d="M87.4628 110.695C88.783 111.949 93.6645 108.954 98.3619 104.006C103.059 99.0585 104.782 95.307 103.458 94.0565C102.135 92.806 98.2732 94.5267 93.5758 99.4708C88.8785 104.418 86.1426 109.441 87.4628 110.695Z" fill="#1D232A"/>
<path d="M72.5884 104.429C71.2751 101.032 66.431 94.244 62.6683 96.7791C57.183 100.473 63.1664 117.183 65.5066 124.212C70.6303 119.35 75.1537 111.077 72.5884 104.429Z" fill="#1D232A"/>
<path d="M82.8973 101.657C83.6519 94.5853 81.2566 88.5324 77.5472 88.1374C73.8377 87.7425 70.2188 93.155 69.4641 100.227C68.7095 107.298 71.1048 113.351 74.8142 113.746C78.5237 114.141 82.1426 108.729 82.8973 101.657Z" fill="#1D232A"/>
<path d="M77.8339 123.997C78.5699 120.344 73.5086 116.245 66.5292 114.842C59.5498 113.439 53.2952 115.263 52.5592 118.916C51.8232 122.568 56.8845 126.667 63.8639 128.07C70.8434 129.473 77.0979 127.649 77.8339 123.997Z" fill="#1D232A"/>
<path d="M68.1769 134.989C72.3948 134.139 75.4528 131.661 75.0071 129.455C74.5614 127.249 70.7808 126.15 66.5629 127C62.345 127.85 59.2871 130.328 59.7328 132.534C60.1785 134.74 63.9591 135.839 68.1769 134.989Z" fill="#1D232A"/>
<path d="M62.5532 146.429C64.2111 150.446 68.4377 152.674 72.5688 152.003C72.7666 151.973 72.9611 151.935 73.1589 151.887C73.3738 151.84 73.5887 151.782 73.8002 151.717C74.0015 151.656 74.2028 151.587 74.4041 151.509C74.4041 151.509 74.4041 151.509 74.4075 151.509C74.4552 151.492 74.503 151.472 74.5542 151.451L74.6019 151.434L75.1307 151.216L75.1682 151.202L75.7413 150.967L75.7481 150.964L76.8738 150.501L76.925 150.48L77.4367 150.269L79.1048 149.581L76.5429 143.379L76.2086 142.568L76.1165 142.343L75.8027 141.587L72.0673 132.547L69.502 133.607L69.3758 133.658L69.2837 133.695L68.6526 133.954L68.2808 134.107L67.7179 134.339L67.7077 134.343L67.5712 134.401C67.4313 134.458 67.2915 134.52 67.155 134.585C67.1414 134.591 67.1277 134.595 67.1141 134.605C66.9299 134.694 66.7491 134.786 66.5751 134.884C66.3977 134.983 66.2271 135.085 66.06 135.194C65.8962 135.3 65.7359 135.413 65.5824 135.528C62.2768 137.985 60.9157 142.469 62.5532 146.429Z" fill="#8F5049"/>
<path d="M65.5723 135.529C68.3525 137.219 71.16 138.865 73.988 140.469C74.2097 140.596 74.4314 140.722 74.6498 140.844C74.95 141.015 75.1819 140.534 74.8817 140.367C74.4894 140.146 74.0971 139.924 73.7082 139.699C73.1931 139.406 72.678 139.11 72.1663 138.813C70.1161 137.628 68.0728 136.421 66.0498 135.191C65.8861 135.297 65.7258 135.409 65.5723 135.529Z" fill="#1D232A"/>
<path d="M69.4954 133.6L69.3691 133.651C69.4135 133.647 69.4578 133.627 69.4954 133.6Z" fill="#1D232A"/>
<path d="M70.7712 135.123L69.857 134.312C69.6626 134.107 69.4681 133.899 69.2737 133.691L68.6426 133.95L69.509 134.717C69.6387 134.85 69.7649 134.986 69.8911 135.119C69.9423 135.17 69.9935 135.191 70.0446 135.194L70.4233 135.528C70.6825 135.756 71.0305 135.351 70.7712 135.123Z" fill="#1D232A"/>
<path d="M66.5645 134.882C68.9183 136.412 71.2755 137.942 73.6259 139.472C73.6668 139.499 73.7077 139.526 73.7487 139.55C74.0352 139.737 74.2672 139.257 73.984 139.073L73.3291 138.647L72.9743 138.415C73.0118 138.327 72.9948 138.225 72.8856 138.15C71.6678 137.322 70.4738 136.463 69.3037 135.574C69.928 136.037 70.5693 136.483 71.2209 136.913C71.3403 136.991 71.4972 137.005 71.5961 136.885C71.6814 136.783 71.6882 136.586 71.5688 136.507C70.4295 135.761 69.331 134.957 68.2735 134.102L67.7107 134.333C67.9597 134.534 68.2087 134.735 68.4577 134.933C68.2053 134.735 67.9494 134.538 67.7004 134.34L67.564 134.398C67.4241 134.456 67.2842 134.517 67.1478 134.582C67.2535 134.664 67.3559 134.746 67.4616 134.831C67.3422 134.756 67.2262 134.677 67.1068 134.602C66.9192 134.691 66.7384 134.783 66.5645 134.882Z" fill="#1D232A"/>
<path d="M65.7769 124.994C65.8417 125.161 65.9065 125.328 65.9747 125.495L66.2306 126.118L66.2954 126.275L66.7423 127.355L66.8071 127.512L67.0561 128.122L67.4928 129.182L67.5439 129.308L67.5678 129.362L67.8851 130.129L68.0556 130.545L68.3934 131.369L69.1302 133.158L69.2155 133.363L69.3383 133.662L69.4065 133.826L69.9557 135.162L70.0888 135.489L70.464 136.402L70.4845 136.45L71.0337 137.782L71.2316 138.269L71.5659 139.077L76.3485 150.706L77.8768 154.42C81.6326 163.552 92.0644 168.118 101.234 164.431C110.472 160.714 114.893 150.199 111.12 141.019L101.892 118.578L100.405 114.963L99.1395 111.886C98.3037 109.855 97.1404 108.059 95.7316 106.539C94.524 105.231 93.139 104.127 91.6312 103.244C90.6931 102.696 89.7106 102.232 88.6906 101.861C87.3739 101.381 86.0025 101.057 84.6005 100.897C84.0615 100.835 83.5191 100.798 82.9733 100.784C80.9674 100.737 78.9309 101.026 76.9353 101.691C76.6521 101.783 76.369 101.888 76.0859 101.997C75.9733 102.042 75.8641 102.083 75.755 102.13C75.656 102.171 75.5571 102.212 75.4616 102.256C74.3666 102.727 73.3432 103.296 72.3982 103.943C71.3783 104.642 70.447 105.439 69.6112 106.311C65.7189 110.376 63.9041 116.135 64.9138 121.798C64.965 122.094 65.0264 122.387 65.0946 122.684C65.2618 123.461 65.4938 124.234 65.7769 124.994Z" fill="#8F5049"/>
<path d="M68.0547 130.547L76.3442 150.708L77.8724 154.422C81.6283 163.554 92.06 168.12 101.23 164.433C110.467 160.716 114.889 150.2 111.116 141.021L107.629 132.543C103.338 132.755 101.574 134.888 96.8905 138.765L91.8417 140.779C86.8817 140.469 79.8203 141.74 76.6751 143.004L70.3403 129.49C70.3369 129.49 68.4913 130.26 68.0547 130.547Z" fill="#1D232A"/>
<path d="M70.4061 148.177C70.2798 148.177 70.1536 148.129 70.0547 148.037C69.85 147.843 69.8398 147.519 70.0342 147.315C71.1258 146.163 71.4601 144.463 70.8871 142.981C70.314 141.502 68.9221 140.47 67.3359 140.35C67.0527 140.33 66.8412 140.085 66.8651 139.802C66.889 139.519 67.1312 139.311 67.4143 139.331C69.3895 139.478 71.1258 140.769 71.8422 142.613C72.5552 144.46 72.139 146.582 70.7779 148.017C70.6755 148.123 70.5425 148.177 70.4061 148.177Z" fill="#1D232A"/>
<path d="M93.025 130.998L97.238 135.983C98.084 136.985 97.6917 138.518 96.467 138.992L91.8379 140.781" fill="#8F5049"/>
<path d="M91.8383 141.287C91.6336 141.287 91.4392 141.165 91.3607 140.96C91.2584 140.698 91.3914 140.402 91.6541 140.299L96.2832 138.51C96.7096 138.347 97.0201 137.996 97.1326 137.553C97.2452 137.11 97.1429 136.657 96.8461 136.306L92.6331 131.321C92.4523 131.106 92.4796 130.782 92.6945 130.602C92.9095 130.421 93.2335 130.449 93.4143 130.663L97.6273 135.648C98.139 136.251 98.3198 137.038 98.1219 137.805C97.9241 138.572 97.3885 139.175 96.6482 139.461L92.0191 141.25C91.9611 141.277 91.8997 141.287 91.8383 141.287Z" fill="#1D232A"/>
<path d="M85.3916 147.178L85.3945 147.179C88.939 149.426 92.3558 149.15 94.585 148.529L94.5859 148.53C94.5894 148.529 94.5918 148.529 94.5928 148.529C94.5941 148.53 94.5953 148.53 94.5967 148.531C94.5982 148.532 94.5997 148.533 94.6006 148.534C94.6011 148.535 94.6017 148.536 94.6025 148.538C94.6028 148.54 94.6027 148.541 94.6025 148.542C94.6023 148.544 94.6014 148.545 94.6006 148.547C94.5999 148.548 94.6 148.549 94.5996 148.55H94.5986C94.5984 148.55 94.5977 148.55 94.5967 148.551H94.5957C93.6959 148.8 92.6152 148.993 91.4131 148.993C89.6083 148.993 87.5236 148.554 85.3809 147.196L85.3789 147.195L85.377 147.193C85.3766 147.193 85.3754 147.192 85.375 147.19C85.3747 147.189 85.3749 147.187 85.375 147.187C85.3751 147.186 85.3751 147.185 85.376 147.184L85.3789 147.18C85.3797 147.178 85.3805 147.178 85.3809 147.178C85.3815 147.177 85.383 147.176 85.3848 147.176C85.3864 147.175 85.3879 147.176 85.3887 147.176C85.3891 147.176 85.3898 147.177 85.3916 147.178Z" fill="#FCFCFC" stroke="#FCFCFC"/>
<path d="M93.0742 130.969C93.0742 130.969 98.4027 133.282 102.118 127.432Z" fill="#8F5049"/>
<path d="M95.5878 131.916C94.0118 131.916 92.8929 131.449 92.869 131.436C92.6098 131.323 92.4904 131.023 92.6029 130.765C92.7155 130.506 93.0157 130.386 93.275 130.499C93.4762 130.584 98.2589 132.553 101.684 127.159C101.834 126.921 102.151 126.849 102.39 127.003C102.629 127.153 102.7 127.47 102.547 127.708C100.36 131.153 97.6005 131.916 95.5878 131.916Z" fill="#1D232A"/>
<path d="M81.2227 136.023C81.2227 136.023 86.5511 138.337 90.266 132.486Z" fill="#8F5049"/>
<path d="M83.7402 136.971C82.1642 136.971 81.0452 136.504 81.0214 136.49C80.7621 136.378 80.6427 136.078 80.7553 135.819C80.8679 135.56 81.1681 135.441 81.4273 135.553C81.6354 135.642 86.4112 137.605 89.8328 132.214C89.9829 131.976 90.3001 131.904 90.5389 132.057C90.7777 132.207 90.8493 132.524 90.6958 132.763C88.5092 136.208 85.7528 136.971 83.7402 136.971Z" fill="#1D232A"/>
<path d="M76.3456 150.709L71.563 139.08L71.2321 138.272L71.0342 137.788L70.485 136.456L70.4645 136.408L70.0927 135.495L69.9597 135.168L69.4104 133.832L69.3456 133.672L69.2194 133.372L66.8792 133.256C66.8792 133.256 63.792 121.756 63.7374 121.463C62.7277 115.8 62.6731 107.616 66.5654 103.554C67.4012 102.682 83.8334 88.8647 96.2404 107.135C82.0016 92.9706 63.8944 108.11 69.83 125.007C69.888 125.174 69.9597 125.338 70.0279 125.505L70.2837 126.128L70.3485 126.285L70.7954 127.368L70.8602 127.525L71.1127 128.132L71.5493 129.191L71.5971 129.317L71.621 129.375L71.9382 130.145L72.1088 130.558L72.4499 131.382L73.1833 133.175L73.2686 133.376L73.3948 133.675L73.4597 133.836L74.0089 135.171L74.1419 135.498L74.5137 136.412L74.5342 136.459L75.0834 137.792L75.2813 138.275L75.6122 139.083L80.3948 150.713H76.3456V150.709Z" fill="#1D232A"/>
<path d="M83.5194 121.283L79.3542 124.091C78.4434 124.745 77.171 124.541 76.516 123.631C75.8611 122.721 76.0657 121.45 76.9766 120.796L81.1418 117.988C82.0526 117.334 83.325 117.538 83.98 118.448C84.6384 119.358 84.4303 120.629 83.5194 121.283Z" fill="#1D232A"/>
<path d="M97.4638 122.894L92.4492 123.221C91.3303 123.33 90.3376 122.509 90.2285 121.395C90.1193 120.277 90.9414 119.286 92.0569 119.177L97.0715 118.85C98.1905 118.741 99.1831 119.562 99.2923 120.676C99.4015 121.797 98.5828 122.789 97.4638 122.894Z" fill="#1D232A"/>
<path d="M222.049 245.723C221.878 245.723 221.714 245.638 221.615 245.485C218.313 240.285 215.625 230.489 215.625 223.654C215.625 223.371 215.854 223.143 216.137 223.143C216.42 223.143 216.648 223.371 216.648 223.654C216.648 230.325 219.265 239.876 222.478 244.94C222.628 245.178 222.56 245.495 222.321 245.645C222.236 245.7 222.141 245.723 222.049 245.723Z" fill="#1D232A"/>
<path d="M111.972 178.952L152.553 174.557L149.923 188.755L111.352 182.925L111.972 178.952Z" fill="#1D232A"/>
<path d="M15.1426 134.125C112.655 203.262 239.569 211.443 358.361 124.404C359.732 123.399 361.571 124.809 360.953 126.397C350.665 152.917 299.284 268.278 183.16 270.336C43.4769 272.814 15.1426 134.125 15.1426 134.125Z" fill="#00A868"/>
<path d="M148.072 248.113L83.6528 271.229C81.241 272.095 78.7303 272.503 76.2332 272.473C72.1158 272.425 68.0461 271.175 64.5529 268.8C58.9447 264.98 55.5062 258.707 55.3083 251.926L54.4043 220.939L96.4896 210.267L96.8171 221.525L133.744 208.274C144.756 204.321 156.894 210.036 160.851 221.038C164.808 232.041 159.087 244.161 148.072 248.113Z" fill="#8F5049"/>
<path d="M123.52 212.094C131.444 209.123 135.067 205.017 135.609 200.883C136.298 195.66 135.51 192.634 135.336 187.237C135.278 185.441 135.261 183.608 135.834 181.904C136.407 180.204 137.683 178.636 139.423 178.187C141.958 177.536 145.031 178.708 146.802 180.637C150.67 184.855 152.018 192.263 153.116 197.878C157.36 195.53 161.573 193.994 166.062 193.21C168.624 192.764 171.066 192.747 173.035 193.633C175.003 194.518 179.844 197.684 178.005 204.11C180.4 204.86 186.028 208.543 182.252 216.387C183.958 217.229 184.954 219.106 185.336 220.967C185.718 222.827 186.444 229.724 179.513 234.774C171.008 240.968 161.249 244.018 147.088 248.495C142.626 249.906 137.728 251.46 132.297 253.296" fill="#8F5049"/>
<path d="M171.579 210.309C171.367 210.309 171.169 210.176 171.094 209.964C171.002 209.699 171.146 209.406 171.412 209.314C174.492 208.254 176.569 206.366 177.589 203.698C177.692 203.436 177.985 203.303 178.251 203.402C178.514 203.504 178.647 203.797 178.548 204.063C177.433 206.983 175.082 209.133 171.749 210.278C171.691 210.302 171.633 210.309 171.579 210.309Z" fill="#1D232A"/>
<path d="M176.361 221.376C176.156 221.376 175.965 221.253 175.886 221.052C175.781 220.79 175.91 220.493 176.173 220.388C178.251 219.56 179.622 219.015 181.849 216.077C182.02 215.853 182.341 215.808 182.566 215.979C182.791 216.149 182.835 216.469 182.665 216.694C180.383 219.706 178.854 220.422 176.552 221.339C176.487 221.362 176.422 221.376 176.361 221.376Z" fill="#1D232A"/>
<path d="M53.1047 176.577L54.401 220.935L103.694 208.44L95.4458 172.175L94.8727 169.755C92.1914 160.804 83.4619 154.517 73.6715 154.8C61.9741 155.144 52.767 164.893 53.1047 176.577Z" fill="#E8E9EA"/>
<path d="M366.131 202.17C360.516 215.445 353.039 234.278 346.898 247.223C344.759 251.741 338.196 263.776 322.961 256.028L317.326 253.114L307.839 248.211C307.839 248.211 295.671 240.96 305.188 222.921C307.365 218.802 333.216 170.089 339.325 162.709C342.235 159.196 345.854 158.344 349.481 158.865C349.764 158.903 350.05 158.95 350.333 159.012C354.468 159.843 367.069 168.924 369.239 171.742C371.405 174.553 374.656 179.678 370.678 190.254C369.191 194.221 367.786 198.269 366.131 202.17Z" fill="#42EC9A"/>
<path d="M319.984 244.852C309.464 243.203 302.375 233.491 287.28 228.224C237.98 211.03 228.299 195.846 219.095 183.968C210.587 171.961 198.525 159.319 206.514 147.366C214.503 135.416 230.68 132.196 242.643 140.176C259.87 151.997 279.584 164.931 297.139 178.561C303.62 183.593 309.931 185.948 311.709 183.927L319.984 244.852Z" fill="#8F5049"/>
<path d="M297.762 199.649C300.924 196.19 306.143 190.241 311.7 183.93C320.297 174.171 329.702 163.551 333.574 159.945C340.311 153.672 349.866 159.543 355.375 164.079C360.383 168.202 366.404 174.004 365.408 180.41C364.408 186.816 361.25 192.653 358.138 198.344C351.974 209.625 343.712 225.688 337.05 236.619C334.723 240.432 327.948 247.812 316.718 244.064L297.762 199.649Z" fill="#8F5049"/>
<path d="M346.838 224.278C345.93 224.278 345.054 223.798 344.59 222.946C334.001 203.551 331.93 191.789 335.915 170.625C330.037 171.174 320.973 172.949 316.842 178.605C316.73 178.759 316.648 178.864 316.593 178.929C315.679 180.006 314.065 180.142 312.987 179.229C311.923 178.329 311.78 176.748 312.65 175.672L312.711 175.59C315.334 172.002 322.232 165.892 338.985 165.306C339.763 165.279 340.523 165.613 341.032 166.213C341.537 166.812 341.741 167.61 341.581 168.38C337.003 190.473 338.545 201.19 349.086 220.499C349.761 221.74 349.304 223.29 348.066 223.968C347.67 224.179 347.251 224.278 346.838 224.278ZM312.684 175.627C312.677 175.634 312.67 175.644 312.66 175.655C312.67 175.644 312.677 175.634 312.684 175.627Z" fill="#42EC9A"/>
<path d="M315.986 233.001C315.024 233.001 314.065 232.838 313.158 232.49C312.895 232.388 312.762 232.095 312.861 231.829C312.963 231.567 313.26 231.434 313.523 231.533C316.784 232.776 320.952 231.243 322.624 228.18C322.757 227.931 323.071 227.839 323.32 227.975C323.569 228.111 323.661 228.422 323.525 228.67C322.051 231.366 319.015 233.001 315.986 233.001Z" fill="#1D232A"/>
<path d="M219.092 184.482C218.956 184.482 218.823 184.428 218.72 184.322C215.705 181.136 211.297 173.677 210.642 169.837C210.594 169.558 210.782 169.295 211.062 169.248C211.342 169.2 211.604 169.387 211.652 169.667C212.263 173.248 216.574 180.564 219.467 183.624C219.662 183.828 219.651 184.152 219.447 184.346C219.348 184.434 219.218 184.482 219.092 184.482Z" fill="#1D232A"/>
<path d="M1.9308 75.9021C2.99715 75.9021 3.8616 75.0387 3.8616 73.9735C3.8616 72.9084 2.99715 72.0449 1.9308 72.0449C0.864448 72.0449 0 72.9084 0 73.9735C0 75.0387 0.864448 75.9021 1.9308 75.9021Z" fill="#00A868"/>
<path d="M201.008 42.2476L148.126 56.1158C144.936 56.9506 141.671 55.0458 140.836 51.8633L132.816 21.35C131.98 18.1641 133.887 14.9032 137.073 14.0684L189.955 0.200213C193.145 -0.634602 196.409 1.27014 197.245 4.45266L205.265 34.966C206.104 38.1519 204.197 41.4094 201.008 42.2476Z" fill="#E8E9EA"/>
<path d="M221.212 72.8808L209.504 75.5586L216.523 106.177L228.231 103.499L221.212 72.8808Z" fill="#42EC9A"/>
<path d="M240.708 79.5233L229 82.2012L233.563 102.107L245.272 99.4293L240.708 79.5233Z" fill="#42EC9A"/>
<path d="M256.691 70.0761L244.982 72.7539L250.807 98.1637L262.516 95.4859L256.691 70.0761Z" fill="#42EC9A"/>
<path d="M211.375 107.864C211.28 107.864 211.184 107.837 211.102 107.786C210.986 107.714 210.905 107.599 210.874 107.466L201.848 68.0829C201.783 67.8069 201.957 67.5343 202.233 67.4695C202.513 67.4082 202.782 67.5786 202.847 67.8546L211.761 106.74L270.159 93.3863C270.439 93.3249 270.708 93.4953 270.773 93.7713C270.838 94.0473 270.664 94.3199 270.387 94.3846L211.491 107.854C211.45 107.861 211.413 107.864 211.375 107.864Z" fill="#1D232A"/>
<path d="M251.208 55.1384C263.255 55.1384 273.02 45.384 273.02 33.3514C273.02 21.3188 263.255 11.5645 251.208 11.5645C239.162 11.5645 229.396 21.3188 229.396 33.3514C229.396 45.384 239.162 55.1384 251.208 55.1384Z" fill="#00A868"/>
<path d="M251.209 33.3501L267.918 19.3457C269.552 21.2913 270.834 23.5096 271.704 25.8981C272.574 28.2867 273.021 30.8082 273.021 33.3501H251.209Z" fill="#42EC9A"/>
<path d="M251.209 33.3512L249.322 11.646C252.822 11.3427 256.346 11.8879 259.594 13.2373C262.841 14.5866 265.71 16.6992 267.962 19.3944L251.209 33.3512Z" fill="#008E5A"/>
<path d="M199.347 12.4504L134.918 29.3443L132.875 21.572C132.005 18.2635 133.987 14.8731 137.299 14.0042L189.731 0.255305C193.043 -0.613584 196.438 1.36612 197.307 4.67471L199.347 12.4504Z" fill="#42EC9A"/>
<path d="M134.918 29.8554C134.689 29.8554 134.484 29.702 134.423 29.4737C134.351 29.2011 134.515 28.9217 134.788 28.8502L199.221 11.9563C199.494 11.8847 199.773 12.0483 199.845 12.3209C199.917 12.5934 199.753 12.8729 199.48 12.9444L135.047 29.8383C135.003 29.852 134.959 29.8554 134.918 29.8554Z" fill="#1D232A"/>
<path d="M138.775 44.537C138.547 44.537 138.342 44.3837 138.28 44.1554C138.209 43.8828 138.373 43.6034 138.646 43.5318L203.078 26.6379C203.351 26.5663 203.631 26.7299 203.703 27.0025C203.774 27.2751 203.61 27.5545 203.338 27.626L138.905 44.52C138.86 44.5336 138.819 44.537 138.775 44.537Z" fill="#1D232A"/>
<path d="M161.32 53.1646C161.091 53.1646 160.887 53.0113 160.825 52.783L149.773 10.7322C149.701 10.4596 149.865 10.1802 150.138 10.1086C150.411 10.037 150.69 10.2006 150.762 10.4732L161.815 52.524C161.886 52.7966 161.722 53.076 161.45 53.1476C161.409 53.1578 161.364 53.1646 161.32 53.1646Z" fill="#1D232A"/>
<path d="M112.525 179.239C112.279 179.239 112.061 179.058 112.02 178.809C111.976 178.53 112.167 178.268 112.446 178.223L145.905 172.887C146.181 172.843 146.447 173.034 146.491 173.313C146.536 173.593 146.345 173.855 146.065 173.899L112.607 179.235C112.58 179.239 112.552 179.239 112.525 179.239Z" fill="#1D232A"/>
</svg>
