<svg width="24" height="24" viewBox="0 0 24 24" fill="none" xmlns="http://www.w3.org/2000/svg">
<path fill-rule="evenodd" clip-rule="evenodd" d="M5 3C3.34315 3 2 4.34315 2 6V17.5592C2 18.9072 3.09277 20 4.44076 20H18.0296C18.0345 20 18.0401 20 18.045 20C18.0636 19.9999 18.0821 19.9996 18.1006 19.9992C19.3837 19.9693 20.5093 19.1248 20.8937 17.8948L22.5494 12.5965C22.9151 11.4264 22.1542 10.2391 21 10.0318V9C21 7.34315 19.6569 6 18 6H12.5352L11.4258 4.3359C10.8694 3.5013 9.93269 3 8.92963 3H5ZM19 10V9C19 8.44772 18.5523 8 18 8H12.5352C11.8665 8 11.242 7.6658 10.8711 7.1094L9.76168 5.4453C9.57622 5.1671 9.26399 5 8.92963 5H5C4.44772 5 4 5.44772 4 6V17.5592C4 17.8027 4.19734 18 4.44076 18C4.63355 18 4.80396 17.8747 4.86146 17.6907L6.60694 12.1052C6.99833 10.8527 8.15823 10 9.47038 10H19Z" fill="black"/>
</svg>
