<svg width="24" height="24" viewBox="0 0 24 24" fill="none" xmlns="http://www.w3.org/2000/svg">
<path d="M4.44076 19H18.0296C18.9044 19 19.6777 18.4315 19.9386 17.5965L21.5943 12.2983C21.7955 11.6543 21.3144 11 20.6398 11H20M4.44076 19C5.07093 19 5.62798 18.5905 5.81594 17.989L7.56142 12.4034C7.82234 11.5685 8.59561 11 9.47038 11H20M4.44076 19C3.64505 19 3 18.3549 3 17.5592V6C3 4.89543 3.89543 4 5 4H8.92963C9.59834 4 10.2228 4.3342 10.5937 4.8906L11.7031 6.5547C11.8886 6.8329 12.2008 7 12.5352 7H18C19.1046 7 20 7.89543 20 9V11" stroke="black" strokeWidth="2" strokeLinecap="round" strokeLinejoin="round"/>
</svg>
