<svg width="24" height="24" viewBox="0 0 24 24" fill="none" xmlns="http://www.w3.org/2000/svg">
<path d="M4 8V6C4 4.89543 4.89543 4 6 4H14C15.1046 4 16 4.89543 16 6M4 8C3.44987 8 3.00391 8.44597 3.00391 8.99609V18C3.00391 19.1046 3.89934 20 5.00391 20H19.0039C20.1085 20 21.0039 19.1046 21.0039 18V12.0039C21.0039 11.4495 20.5544 11 20 11M4 8H8.17548C8.70591 8 9.21462 8.21071 9.58969 8.58579L11.4181 10.4142C11.7932 10.7893 12.3019 11 12.8323 11H16M16 6V11M16 6H18C19.1046 6 20 6.89543 20 8V11M20 11H16" stroke="black" strokeWidth="2" strokeLinejoin="round"/>
</svg>
