<svg width="24" height="24" viewBox="0 0 24 24" fill="none" xmlns="http://www.w3.org/2000/svg">
<path fill-rule="evenodd" clip-rule="evenodd" d="M3 6C3 4.34315 4.34315 3 6 3H14C15.3062 3 16.4175 3.83481 16.8293 5H18C19.6569 5 21 6.34315 21 8V10.267C21.6 10.6132 22.0039 11.2614 22.0039 12.0039V18C22.0039 19.6569 20.6608 21 19.0039 21H5.00391C3.34705 21 2.00391 19.6569 2.00391 18V8.99609C2.00391 8.25806 2.40444 7.61358 3 7.26817V6ZM5 7H8.17548C8.97113 7 9.73419 7.31607 10.2968 7.87868L12.1252 9.70711C12.3128 9.89464 12.5671 10 12.8323 10H15V6C15 5.44772 14.5523 5 14 5H6C5.44772 5 5 5.44772 5 6V7ZM17 7V10H19V8C19 7.44772 18.5523 7 18 7H17Z" fill="black"/>
</svg>
