<svg width="290" height="272" viewBox="0 0 290 272" fill="none" xmlns="http://www.w3.org/2000/svg">
<path d="M2.99586 84.2556C-5.75948 118.389 5.52753 182.304 25.7809 205.357C47.0891 229.695 63.3339 247.109 109.115 264.225C155.423 281.638 198.462 263.434 245.614 223.561C267.766 204.862 294.243 161.922 289.18 132.736C283.8 101.867 237.702 109.386 233.799 75.648C232.112 61.5987 247.091 48.143 240.234 32.9065C229.264 8.17178 207.322 4.21424 179.052 0.652444C144.558 -3.7998 17.7639 13.5145 2.99586 84.2556Z" fill="white"/>
<path d="M263.633 49.7822C257.726 53.5418 264.899 63.9304 271.545 61.5559C276.925 59.676 277.979 50.6726 272.6 48.1991C268.802 46.3193 266.376 48.1002 263.633 49.7822Z" fill="white"/>
<path d="M268.711 94.8203C270.926 94.5235 273.88 94.1277 275.884 92.9404C281.158 89.9723 288.015 78.3965 281.897 73.6474C271.981 66.0291 251.833 89.2797 252.677 91.7532C253.732 95.1171 267.445 94.9192 268.711 94.8203Z" fill="white"/>
<path d="M55.5593 87.1686C58.713 82.0244 90.9352 35.2121 144.822 32.8972C196.926 30.7109 258.902 131.923 225.446 166.518C198.845 194.039 191.304 206.771 192.127 220.146C187.053 219.503 177.73 193.654 152.912 199.055C143.725 200.984 129.191 204.842 121.375 222.847C121.512 222.847 4.68937 169.733 55.5593 87.1686Z" fill="url(#paint0_linear)"/>
<path d="M127.408 189.924C131.522 199.57 140.16 211.401 137.692 221.432C136.595 226.062 130.013 236.479 130.425 237.894C130.836 239.051 154.968 241.109 167.172 241.109C169.64 241.109 186.231 239.823 182.94 237.122C179.238 234.164 170.874 209.858 169.914 204.328C168.954 198.283 177.73 180.15 177.181 179.507C176.907 179.25 150.855 184.008 143.588 185.937C137.966 187.609 125.214 184.651 127.408 189.924Z" fill="url(#paint1_linear)"/>
<path d="M78.5272 134.495C76.0591 131.151 67.8322 130.123 64.6785 133.466C60.4279 137.839 61.3877 143.755 64.9527 147.999C68.9291 152.757 76.6076 155.715 77.5674 156.101C80.3097 157.001 82.6407 155.072 84.2861 153.014L78.5272 134.495Z" fill="url(#paint2_linear)"/>
<path d="M204.783 132.566C206.428 128.837 214.381 126.393 218.083 128.965C223.156 132.438 223.43 138.482 220.825 143.369C217.946 148.77 210.953 153.143 210.13 153.529C207.662 154.815 204.92 153.4 203 151.728L204.783 132.566Z" fill="url(#paint3_linear)"/>
<path d="M77.7721 124.593C77.7721 89.9979 89.9754 61.9619 142.217 61.9619C177.73 61.9619 206.661 89.9979 206.661 124.593C206.661 175.392 177.867 195.197 142.217 195.197C106.566 195.197 77.7721 159.187 77.7721 124.593Z" fill="url(#paint4_linear)"/>
<path d="M167.583 124.078C167.583 119.963 171.148 116.619 175.536 116.619C179.923 116.619 183.488 119.963 183.488 124.078C183.488 128.193 179.923 131.537 175.536 131.537C171.148 131.537 167.583 128.193 167.583 124.078Z" fill="#7953B8"/>
<path d="M104.098 129.094C104.098 124.979 107.663 121.635 112.051 121.635C116.439 121.635 120.004 124.979 120.004 129.094C120.004 133.209 116.439 136.553 112.051 136.553C107.663 136.553 104.098 133.209 104.098 129.094Z" fill="#7953B8"/>
<path d="M100.67 100.287C100.67 100.287 101.082 84.3395 115.89 88.8406" stroke="#3DAACA" strokeLinecap="round" strokeLinejoin="round"/>
<path d="M183.351 110.189C183.351 110.189 171.834 110.189 167.583 101.701" stroke="#3DAACA" strokeLinecap="round" strokeLinejoin="round"/>
<path d="M164.841 126.521C163.607 124.206 164.292 138.096 172.245 137.324C180.061 136.553 178.964 134.881 178.964 134.881C178.964 134.881 169.64 135.524 164.841 126.521Z" fill="#FFD4B8"/>
<path d="M122.883 128.708C123.432 126.136 126.311 139.768 118.496 140.797C110.68 141.954 111.365 140.025 111.365 140.025C111.365 140.025 120.689 138.482 122.883 128.708Z" fill="#FFD4B8"/>
<path d="M143.725 161.888C143.725 161.888 160.727 181.693 165.526 161.374C169.365 145.298 160.179 157.644 156.477 159.573C153.597 161.116 143.725 161.888 143.725 161.888Z" fill="white" stroke="#FFD4B8" strokeWidth="1.5" strokeLinecap="round" strokeLinejoin="round"/>
<path d="M175.81 142.469C175.673 139.64 180.472 137.067 186.368 136.81C192.401 136.553 197.337 138.611 197.474 141.569C197.611 144.398 192.812 146.97 186.916 147.227C180.883 147.356 175.947 145.298 175.81 142.469Z" fill="#FFD4B8"/>
<path d="M89.9754 145.427C90.1125 142.598 95.0487 140.283 101.082 140.54C107.115 140.669 111.914 143.112 111.777 146.07C111.64 148.899 106.704 151.214 100.67 150.957C94.6373 150.7 89.8383 148.256 89.9754 145.427Z" fill="#FFD4B8"/>
<path d="M138.789 141.826C142.217 140.669 142.354 136.939 150.443 141.312L138.789 141.826Z" fill="#FFD8BF" fill-opacity="0.5"/>
<path d="M138.789 141.826C142.217 140.669 142.354 136.939 150.443 141.312" stroke="#FFD4B8" strokeLinecap="round" strokeLinejoin="round"/>
<path d="M147.016 62.4761C147.016 62.4761 150.443 43.5711 114.93 47.5579C79.9659 51.416 64.7461 93.2127 70.9163 110.189C74.6184 120.606 78.0463 133.723 72.8359 139.125C74.7555 139.382 97.1054 131.923 95.5971 116.876C92.0321 83.0529 113.939 59.6226 147.016 62.4761Z" fill="url(#paint5_linear)"/>
<defs>
<linearGradient id="paint0_linear" x1="138.657" y1="-73.433" x2="-115.406" y2="193.821" gradientUnits="userSpaceOnUse">
<stop stop-color="#1DBDC8"/>
<stop offset="0.04" stop-color="#23B9C8"/>
<stop offset="0.35" stop-color="#549BCB"/>
<stop offset="0.63" stop-color="#7785CD"/>
<stop offset="0.85" stop-color="#8D77CF"/>
<stop offset="1" stop-color="#9572CF"/>
</linearGradient>
<linearGradient id="paint1_linear" x1="173.414" y1="218.59" x2="171.786" y2="181.839" gradientUnits="userSpaceOnUse">
<stop stop-color="#FDF0E1"/>
<stop offset="1" stop-color="#F9DFCE"/>
</linearGradient>
<linearGradient id="paint2_linear" x1="80.3152" y1="147.222" x2="79.648" y2="132.362" gradientUnits="userSpaceOnUse">
<stop stop-color="#FDF0E1"/>
<stop offset="1" stop-color="#F9DFCE"/>
</linearGradient>
<linearGradient id="paint3_linear" x1="219.002" y1="144.479" x2="218.157" y2="128.91" gradientUnits="userSpaceOnUse">
<stop stop-color="#FDF0E1"/>
<stop offset="1" stop-color="#F9DFCE"/>
</linearGradient>
<linearGradient id="paint4_linear" x1="183.833" y1="146.5" x2="180.512" y2="67.0083" gradientUnits="userSpaceOnUse">
<stop stop-color="#FDF0E1"/>
<stop offset="1" stop-color="#F9DFCE"/>
</linearGradient>
<linearGradient id="paint5_linear" x1="31.7862" y1="-27.9289" x2="-128.407" y2="193.12" gradientUnits="userSpaceOnUse">
<stop stop-color="#1DBDC8"/>
<stop offset="0.04" stop-color="#23B9C8"/>
<stop offset="0.35" stop-color="#549BCB"/>
<stop offset="0.63" stop-color="#7785CD"/>
<stop offset="0.85" stop-color="#8D77CF"/>
<stop offset="1" stop-color="#9572CF"/>
</linearGradient>
</defs>
</svg>
