<svg width="290" height="272" viewBox="0 0 290 272" fill="none" xmlns="http://www.w3.org/2000/svg">
<path d="M2.99587 84.2556C-5.75948 118.389 5.52753 182.304 25.7809 205.357C47.0891 229.696 63.3339 247.109 109.115 264.225C155.423 281.638 198.462 263.434 245.614 223.561C267.766 204.862 294.243 161.923 289.18 132.736C283.8 101.867 237.702 109.386 233.799 75.648C232.112 61.5987 247.091 48.143 240.234 32.9065C229.264 8.17178 207.322 4.21424 179.052 0.652444C144.558 -3.7998 17.7639 13.5145 2.99587 84.2556Z" fill="white"/>
<path d="M263.633 49.7822C257.726 53.5418 264.899 63.9304 271.545 61.5559C276.925 59.676 277.979 50.6726 272.6 48.1991C268.802 46.3193 266.376 48.1002 263.633 49.7822Z" fill="white"/>
<path d="M268.711 94.8205C270.926 94.5237 273.88 94.1279 275.884 92.9407C281.158 89.9725 288.015 78.3967 281.897 73.6476C271.981 66.0294 251.833 89.2799 252.677 91.7534C253.732 95.1173 267.445 94.9194 268.711 94.8205Z" fill="white"/>
<path d="M53.626 87.0399C56.7797 81.8957 89.0019 35.0834 142.888 32.7685C194.992 30.5822 256.969 131.795 223.513 166.389C196.912 193.911 189.371 206.643 190.193 220.018C185.12 219.375 175.796 193.525 150.978 198.926C141.791 200.855 127.257 204.714 119.442 222.718C119.579 222.847 2.75602 169.733 53.626 87.0399Z" fill="url(#paint0_linear)"/>
<path d="M126.16 189.281C130.274 198.926 138.912 210.758 136.444 220.789C135.347 225.419 128.765 235.836 129.177 237.251C129.588 238.28 153.721 240.466 165.924 240.466C168.392 240.466 184.983 239.18 181.692 236.479C177.99 233.521 169.626 209.215 168.666 203.685C167.706 197.64 176.482 179.507 175.933 178.864C175.659 178.607 149.607 183.365 142.34 185.294C136.718 186.838 123.966 184.008 126.16 189.281Z" fill="url(#paint1_linear)"/>
<path d="M76.6615 133.853C74.1934 130.509 65.9664 129.48 62.8128 132.824C58.5622 137.196 59.522 143.112 62.9499 147.356C66.9263 152.115 74.6047 155.073 75.5646 155.458C78.3069 156.359 80.6378 154.429 82.2832 152.372L76.6615 133.853Z" fill="url(#paint2_linear)"/>
<path d="M202.383 131.795C204.028 128.065 211.981 125.622 215.683 128.194C220.756 131.666 221.031 137.711 218.426 142.598C215.546 147.999 208.553 152.372 207.73 152.758C205.262 154.044 202.52 152.629 200.6 150.957L202.383 131.795Z" fill="url(#paint3_linear)"/>
<path d="M75.8388 124.336C75.8388 89.7413 88.0421 61.7053 140.283 61.7053C175.796 61.7053 204.728 89.7413 204.728 124.336C204.728 175.135 175.933 194.94 140.283 194.94C104.633 194.94 75.8388 158.802 75.8388 124.336Z" fill="url(#paint4_linear)"/>
<path d="M164.141 129.094C164.141 129.094 172.505 132.309 174.562 125.365" stroke="#7953B8" strokeLinecap="round" strokeLinejoin="round"/>
<path d="M115.739 129.866C115.739 129.866 108.198 134.495 104.633 128.065" stroke="#7953B8" strokeLinecap="round" strokeLinejoin="round"/>
<path d="M160.714 105.174C160.714 105.174 169.352 104.274 172.78 99.9011" stroke="#3DAACA" strokeLinecap="round" strokeLinejoin="round"/>
<path d="M121.773 103.888C121.773 103.888 113.134 102.988 109.706 98.615" stroke="#3DAACA" strokeLinecap="round" strokeLinejoin="round"/>
<path d="M136.444 165.747C136.444 165.747 136.855 157.387 157.286 159.702" stroke="#FFD4B8" strokeLinecap="round" strokeLinejoin="round"/>
<path d="M174.425 140.283C174.288 137.453 179.087 134.881 184.983 134.624C191.016 134.367 195.952 136.424 196.089 139.382C196.226 142.212 191.427 144.784 185.531 145.041C179.635 145.17 174.699 143.112 174.425 140.283Z" fill="#FFD4B8"/>
<path d="M88.7277 143.241C88.8648 140.411 93.8009 138.097 99.834 138.354C105.867 138.482 110.666 140.926 110.529 143.884C110.392 146.713 105.456 149.028 99.4227 148.771C93.3896 148.514 88.5905 146.07 88.7277 143.241Z" fill="#FFD4B8"/>
<path d="M136.855 140.411C140.283 139.254 140.42 135.524 148.51 139.897L136.855 140.411Z" fill="#FFD8BF" fill-opacity="0.5"/>
<path d="M136.855 140.411C140.283 139.254 140.42 135.524 148.51 139.897" stroke="#FFD4B8" strokeLinecap="round" strokeLinejoin="round"/>
<path d="M146.728 61.7053C146.728 61.7053 150.156 42.8004 114.643 46.7871C79.678 50.6453 64.4581 92.442 70.6284 109.418C74.3305 119.835 77.7584 132.953 72.548 138.354C74.4676 138.611 96.8175 131.152 95.3092 116.105C91.6071 82.1536 113.321 60.248 146.728 61.7053Z" fill="url(#paint5_linear)"/>
<defs>
<linearGradient id="paint0_linear" x1="136.724" y1="-73.5617" x2="-117.34" y2="193.692" gradientUnits="userSpaceOnUse">
<stop stop-color="#1DBDC8"/>
<stop offset="0.04" stop-color="#23B9C8"/>
<stop offset="0.35" stop-color="#549BCB"/>
<stop offset="0.63" stop-color="#7785CD"/>
<stop offset="0.85" stop-color="#8D77CF"/>
<stop offset="1" stop-color="#9572CF"/>
</linearGradient>
<linearGradient id="paint1_linear" x1="172.166" y1="217.947" x2="170.539" y2="181.196" gradientUnits="userSpaceOnUse">
<stop stop-color="#FDF0E1"/>
<stop offset="1" stop-color="#F9DFCE"/>
</linearGradient>
<linearGradient id="paint2_linear" x1="78.3342" y1="146.58" x2="77.6633" y2="131.72" gradientUnits="userSpaceOnUse">
<stop stop-color="#FDF0E1"/>
<stop offset="1" stop-color="#F9DFCE"/>
</linearGradient>
<linearGradient id="paint3_linear" x1="216.603" y1="143.708" x2="215.757" y2="128.139" gradientUnits="userSpaceOnUse">
<stop stop-color="#FDF0E1"/>
<stop offset="1" stop-color="#F9DFCE"/>
</linearGradient>
<linearGradient id="paint4_linear" x1="181.899" y1="146.244" x2="178.579" y2="66.7517" gradientUnits="userSpaceOnUse">
<stop stop-color="#FDF0E1"/>
<stop offset="1" stop-color="#F9DFCE"/>
</linearGradient>
<linearGradient id="paint5_linear" x1="31.4983" y1="-28.6997" x2="-128.695" y2="192.35" gradientUnits="userSpaceOnUse">
<stop stop-color="#1DBDC8"/>
<stop offset="0.04" stop-color="#23B9C8"/>
<stop offset="0.35" stop-color="#549BCB"/>
<stop offset="0.63" stop-color="#7785CD"/>
<stop offset="0.85" stop-color="#8D77CF"/>
<stop offset="1" stop-color="#9572CF"/>
</linearGradient>
</defs>
</svg>
