<svg width="290" height="272" viewBox="0 0 290 272" fill="none" xmlns="http://www.w3.org/2000/svg">
<path d="M2.99586 84.2556C-5.75948 118.389 5.52753 182.304 25.7809 205.357C47.0891 229.695 63.3339 247.109 109.115 264.225C155.423 281.638 198.462 263.434 245.614 223.561C267.766 204.862 294.243 161.922 289.18 132.736C283.8 101.867 237.702 109.386 233.799 75.648C232.112 61.5987 247.091 48.143 240.234 32.9065C229.264 8.17178 207.322 4.21424 179.052 0.652444C144.558 -3.7998 17.7639 13.5145 2.99586 84.2556Z" fill="white"/>
<path d="M263.633 49.7819C257.726 53.5416 264.899 63.9302 271.545 61.5556C276.925 59.6758 277.979 50.6724 272.6 48.1989C268.802 46.3191 266.376 48.1 263.633 49.7819Z" fill="white"/>
<path d="M268.711 94.8205C270.926 94.5237 273.88 94.1279 275.884 92.9407C281.158 89.9725 288.015 78.3967 281.897 73.6476C271.981 66.0294 251.833 89.2799 252.677 91.7534C253.732 95.1173 267.445 94.9194 268.711 94.8205Z" fill="white"/>
<path d="M54.1745 87.8114C57.3281 82.6672 89.5504 35.8549 143.437 33.54C195.541 31.3537 257.517 132.566 224.061 167.161C197.461 194.682 189.919 207.414 190.742 220.789C185.669 220.146 176.345 194.296 151.527 199.698C142.34 201.627 127.806 205.485 119.99 223.49C120.127 223.49 3.30448 170.505 54.1745 87.8114Z" fill="url(#paint0_linear)"/>
<path d="M126.709 189.539C130.822 199.184 139.461 211.016 136.992 221.047C135.896 225.677 129.314 236.094 129.725 237.509C130.137 238.537 154.269 240.724 166.472 240.724C168.94 240.724 185.531 239.438 182.241 236.737C178.539 233.779 170.174 209.473 169.215 203.943C168.255 197.898 177.03 179.765 176.482 179.122C176.208 178.865 150.156 183.623 142.888 185.552C137.267 187.095 124.515 184.266 126.709 189.539Z" fill="url(#paint1_linear)"/>
<path d="M77.2099 134.11C74.7419 130.766 66.5149 129.866 63.3612 133.081C59.1106 137.453 60.0705 143.369 63.4984 147.613C67.4747 152.371 75.1532 155.329 76.113 155.715C78.8553 156.615 81.1863 154.686 82.8317 152.629L77.2099 134.11Z" fill="url(#paint2_linear)"/>
<path d="M202.931 132.052C204.577 128.322 212.53 125.879 216.232 128.451C221.305 131.923 221.579 137.968 218.974 142.855C216.095 148.256 209.102 152.629 208.279 153.014C205.811 154.3 203.069 152.886 201.149 151.214L202.931 132.052Z" fill="url(#paint3_linear)"/>
<path d="M76.3873 124.593C76.3873 89.9983 88.5906 61.9624 140.832 61.9624C176.345 61.9624 205.276 89.9983 205.276 124.593C205.276 175.392 176.482 195.197 140.832 195.197C105.182 195.197 76.3873 159.059 76.3873 124.593Z" fill="url(#paint4_linear)"/>
<path d="M160.851 113.662C160.851 113.662 168.392 117.649 174.014 115.977" stroke="#3DAACA" strokeLinecap="round" strokeLinejoin="round"/>
<path d="M120.676 112.376C120.676 112.376 114.368 118.034 108.609 117.649" stroke="#3DAACA" strokeLinecap="round" strokeLinejoin="round"/>
<path d="M131.371 161.246C131.371 161.246 126.434 147.871 157.697 158.802" stroke="#FFD4B8" strokeLinecap="round" strokeLinejoin="round"/>
<path d="M158.794 126.265C158.794 123.307 160.714 120.864 163.044 120.864C165.375 120.864 167.295 123.307 167.295 126.265C167.295 129.223 165.375 131.667 163.044 131.667C160.714 131.538 158.794 129.223 158.794 126.265Z" fill="#7953B8"/>
<path d="M108.747 127.68C108.747 124.722 110.666 122.278 112.997 122.278C115.328 122.278 117.248 124.722 117.248 127.68C117.248 130.638 115.328 133.081 112.997 133.081C110.666 133.081 108.747 130.638 108.747 127.68Z" fill="#7953B8"/>
<path d="M174.974 140.54C174.836 137.711 179.636 135.139 185.531 134.882C191.565 134.624 196.501 136.682 196.638 139.64C196.775 142.469 191.976 145.041 186.08 145.299C180.184 145.427 175.111 143.369 174.974 140.54Z" fill="#FFD4B8"/>
<path d="M89.2761 143.498C89.4132 140.669 94.3494 138.354 100.382 138.611C106.416 138.74 111.215 141.183 111.078 144.141C110.94 146.97 106.004 149.285 99.9711 149.028C93.938 148.771 89.139 146.327 89.2761 143.498Z" fill="#FFD4B8"/>
<path d="M137.404 140.668C140.832 139.511 140.969 135.781 149.059 140.154L137.404 140.668Z" fill="#FFD8BF" fill-opacity="0.5"/>
<path d="M137.404 140.668C140.832 139.511 140.969 135.781 149.059 140.154" stroke="#FFD4B8" strokeLinecap="round" strokeLinejoin="round"/>
<path d="M147.276 61.9627C147.276 61.9627 150.704 43.0577 115.191 47.0445C80.2264 50.9026 65.0066 92.6993 71.1768 109.675C74.8789 120.092 78.3068 133.21 73.0964 138.611C75.016 138.869 97.3659 131.409 95.8576 116.363C92.1555 82.4109 113.418 61.1301 147.276 61.9627Z" fill="url(#paint5_linear)"/>
<defs>
<linearGradient id="paint0_linear" x1="137.272" y1="-72.7901" x2="-116.791" y2="194.464" gradientUnits="userSpaceOnUse">
<stop stop-color="#1DBDC8"/>
<stop offset="0.04" stop-color="#23B9C8"/>
<stop offset="0.35" stop-color="#549BCB"/>
<stop offset="0.63" stop-color="#7785CD"/>
<stop offset="0.85" stop-color="#8D77CF"/>
<stop offset="1" stop-color="#9572CF"/>
</linearGradient>
<linearGradient id="paint1_linear" x1="172.715" y1="218.205" x2="171.087" y2="181.453" gradientUnits="userSpaceOnUse">
<stop stop-color="#FDF0E1"/>
<stop offset="1" stop-color="#F9DFCE"/>
</linearGradient>
<linearGradient id="paint2_linear" x1="78.8827" y1="146.856" x2="78.2147" y2="132.029" gradientUnits="userSpaceOnUse">
<stop stop-color="#FDF0E1"/>
<stop offset="1" stop-color="#F9DFCE"/>
</linearGradient>
<linearGradient id="paint3_linear" x1="217.151" y1="143.965" x2="216.306" y2="128.396" gradientUnits="userSpaceOnUse">
<stop stop-color="#FDF0E1"/>
<stop offset="1" stop-color="#F9DFCE"/>
</linearGradient>
<linearGradient id="paint4_linear" x1="182.448" y1="146.501" x2="179.128" y2="67.0087" gradientUnits="userSpaceOnUse">
<stop stop-color="#FDF0E1"/>
<stop offset="1" stop-color="#F9DFCE"/>
</linearGradient>
<linearGradient id="paint5_linear" x1="32.0467" y1="-28.4423" x2="-128.146" y2="192.607" gradientUnits="userSpaceOnUse">
<stop stop-color="#1DBDC8"/>
<stop offset="0.04" stop-color="#23B9C8"/>
<stop offset="0.35" stop-color="#549BCB"/>
<stop offset="0.63" stop-color="#7785CD"/>
<stop offset="0.85" stop-color="#8D77CF"/>
<stop offset="1" stop-color="#9572CF"/>
</linearGradient>
</defs>
</svg>
