<svg width="290" height="272" viewBox="0 0 290 272" fill="none" xmlns="http://www.w3.org/2000/svg">
<path d="M2.99587 84.2556C-5.75948 118.389 5.52753 182.304 25.7809 205.357C47.0891 229.696 63.3339 247.109 109.115 264.225C155.423 281.638 198.462 263.434 245.614 223.561C267.766 204.862 294.243 161.923 289.18 132.736C283.8 101.867 237.702 109.386 233.799 75.648C232.112 61.5987 247.091 48.143 240.234 32.9065C229.264 8.17178 207.322 4.21424 179.052 0.652444C144.558 -3.7998 17.7639 13.5145 2.99587 84.2556Z" fill="white"/>
<path d="M263.633 49.7822C257.726 53.5418 264.899 63.9304 271.545 61.5559C276.925 59.676 277.979 50.6726 272.6 48.1991C268.802 46.3193 266.376 48.1002 263.633 49.7822Z" fill="white"/>
<path d="M268.711 94.8205C270.926 94.5237 273.88 94.1279 275.884 92.9407C281.158 89.9725 288.015 78.3967 281.897 73.6476C271.981 66.0294 251.833 89.2799 252.677 91.7534C253.732 95.1173 267.445 94.9194 268.711 94.8205Z" fill="white"/>
<path d="M54.6235 87.2952C57.755 82.1872 89.7503 35.7046 143.257 33.406C194.994 31.2351 256.534 131.735 223.314 166.086C196.9 193.413 189.412 206.056 190.229 219.336C185.192 218.698 175.933 193.03 151.29 198.394C142.168 200.309 127.736 204.14 119.976 222.018C120.112 222.146 4.11176 169.406 54.6235 87.2952Z" fill="url(#paint0_linear)"/>
<path d="M129.37 187.795C133.454 197.372 142.032 209.121 139.581 219.081C138.492 223.678 131.957 234.022 132.365 235.427C132.774 236.448 156.736 238.619 168.854 238.619C171.304 238.619 187.778 237.342 184.511 234.661C180.835 231.723 172.53 207.588 171.577 202.097C170.623 196.095 179.337 178.09 178.792 177.451C178.52 177.196 152.652 181.921 145.436 183.836C139.854 185.368 127.192 182.559 129.37 187.795Z" fill="url(#paint1_linear)"/>
<path d="M80.2197 132.757C77.769 129.437 69.6 128.543 66.4686 131.735C62.2479 136.077 63.201 141.951 66.7409 146.165C70.6892 150.89 78.3136 153.827 79.2667 154.21C81.9897 155.104 84.3042 153.189 85.938 151.145L80.2197 132.757Z" fill="url(#paint2_linear)"/>
<path d="M205.042 130.713C206.676 127.01 214.573 124.584 218.249 127.138C223.286 130.586 223.559 136.588 220.972 141.44C218.113 146.804 211.169 151.145 210.352 151.529C207.901 152.806 205.178 151.401 203.272 149.741L205.042 130.713Z" fill="url(#paint3_linear)"/>
<path d="M79.4028 123.179C79.4028 88.8275 91.5202 60.989 143.393 60.989C178.793 60.989 207.384 88.8275 207.384 123.179C207.384 173.62 178.793 193.286 143.393 193.286C107.994 193.286 79.4028 157.53 79.4028 123.179Z" fill="url(#paint4_linear)"/>
<path d="M163.68 99.1711C163.68 99.1711 170.079 104.662 175.797 104.279L163.68 99.1711Z" fill="#A87DEF"/>
<path d="M163.68 99.1711C163.68 99.1711 170.079 104.662 175.797 104.279" stroke="#3DAACA" strokeLinecap="round" strokeLinejoin="round"/>
<path d="M124.605 97.2559C124.605 97.2559 119.023 103.385 113.168 103.513L124.605 97.2559Z" fill="#A87DEF"/>
<path d="M124.605 97.2559C124.605 97.2559 119.023 103.385 113.168 103.513" stroke="#3DAACA" strokeLinecap="round" strokeLinejoin="round"/>
<path d="M164.497 130.969C164.905 126.244 174.027 115.389 183.285 127.265" stroke="#7953B8" strokeLinecap="round" strokeLinejoin="round"/>
<path d="M129.778 130.969C129.37 126.244 118.206 119.348 112.623 130.969" stroke="#7953B8" strokeLinecap="round" strokeLinejoin="round"/>
<path d="M138.492 154.849C138.492 154.849 155.102 157.786 160.957 153.316C166.811 148.847 160.276 168.512 153.06 171.705C148.023 174.003 132.91 174.003 138.492 154.849Z" fill="white" stroke="#FFD4B8" strokeWidth="1.5" strokeLinecap="round" strokeLinejoin="round"/>
<path d="M177.295 139.014C177.159 136.205 181.924 133.651 187.778 133.395C193.769 133.14 198.67 135.183 198.807 138.12C198.943 140.93 194.177 143.484 188.323 143.739C182.469 143.994 177.567 141.951 177.295 139.014Z" fill="#FFD4B8"/>
<path d="M92.2009 141.951C92.3371 139.141 97.2385 136.843 103.229 137.098C109.22 137.226 113.985 139.652 113.849 142.589C113.713 145.399 108.811 147.697 102.821 147.442C96.83 147.314 92.0648 144.888 92.2009 141.951Z" fill="#FFD4B8"/>
<path d="M139.99 139.525C143.393 138.375 143.53 134.672 151.562 139.014L139.99 139.525Z" fill="#FFD8BF" fill-opacity="0.5"/>
<path d="M139.99 139.525C143.393 138.375 143.53 134.672 151.562 139.014" stroke="#FFD4B8" strokeLinecap="round" strokeLinejoin="round"/>
<path d="M147.342 60.8615C147.342 60.8615 150.746 42.0897 115.483 46.0484C80.7643 49.8794 65.6517 91.3817 71.7784 108.238C75.4545 118.582 78.8582 131.607 73.6845 136.97C75.5906 137.226 97.7831 129.819 96.2855 114.878C92.7455 81.1658 111.082 60.1222 147.342 60.8615Z" fill="url(#paint5_linear)"/>
<defs>
<linearGradient id="paint0_linear" x1="137.136" y1="-72.1755" x2="-115.138" y2="193.196" gradientUnits="userSpaceOnUse">
<stop stop-color="#1DBDC8"/>
<stop offset="0.04" stop-color="#23B9C8"/>
<stop offset="0.35" stop-color="#549BCB"/>
<stop offset="0.63" stop-color="#7785CD"/>
<stop offset="0.85" stop-color="#8D77CF"/>
<stop offset="1" stop-color="#9572CF"/>
</linearGradient>
<linearGradient id="paint1_linear" x1="175.052" y1="216.259" x2="173.436" y2="179.766" gradientUnits="userSpaceOnUse">
<stop stop-color="#FDF0E1"/>
<stop offset="1" stop-color="#F9DFCE"/>
</linearGradient>
<linearGradient id="paint2_linear" x1="81.9951" y1="145.414" x2="81.3355" y2="130.69" gradientUnits="userSpaceOnUse">
<stop stop-color="#FDF0E1"/>
<stop offset="1" stop-color="#F9DFCE"/>
</linearGradient>
<linearGradient id="paint3_linear" x1="219.162" y1="142.542" x2="218.322" y2="127.083" gradientUnits="userSpaceOnUse">
<stop stop-color="#FDF0E1"/>
<stop offset="1" stop-color="#F9DFCE"/>
</linearGradient>
<linearGradient id="paint4_linear" x1="184.716" y1="144.932" x2="181.42" y2="65.9998" gradientUnits="userSpaceOnUse">
<stop stop-color="#FDF0E1"/>
<stop offset="1" stop-color="#F9DFCE"/>
</linearGradient>
<linearGradient id="paint5_linear" x1="32.9239" y1="-28.9068" x2="-126.141" y2="190.586" gradientUnits="userSpaceOnUse">
<stop stop-color="#1DBDC8"/>
<stop offset="0.04" stop-color="#23B9C8"/>
<stop offset="0.35" stop-color="#549BCB"/>
<stop offset="0.63" stop-color="#7785CD"/>
<stop offset="0.85" stop-color="#8D77CF"/>
<stop offset="1" stop-color="#9572CF"/>
</linearGradient>
</defs>
</svg>
