<svg width="344" height="294" viewBox="0 0 344 294" fill="none" xmlns="http://www.w3.org/2000/svg">
<path d="M205.783 26.481L202.917 26.5219L203.169 30.7198L200.303 30.7607L200.551 34.9587L197.685 34.9995L197.924 39.143C195.534 35.7764 191.004 34.6213 186.862 34.6281C182.679 34.6384 178.526 35.279 174.343 35.2142C166.985 35.0984 158.009 30.7607 155.201 26.0278L155.211 26.0108L155.215 26.021L158.506 25.5917L158.081 22.3206L161.352 21.8947L160.926 18.6201L164.197 18.1976L163.772 14.9231L167.039 14.4972L166.614 11.2227C167.145 11.6281 172.529 19.2062 187.325 18.1704C190.994 17.9148 194.697 17.649 198.352 18.1056C201.998 18.5588 205.946 19.5163 208.431 22.2252L205.537 22.2729L205.783 26.481Z" fill="#E8E9EA"/>
<path d="M208.986 139.169C213.056 133.632 218.363 127.175 224.125 123.433C227.958 120.946 232.175 119.12 236.201 116.959C240.228 114.799 244.152 112.233 246.96 108.628C249.768 105.023 251.334 100.212 250.18 95.7857C253.27 95.7142 256.17 94.0956 258.301 91.8502C260.432 89.6047 261.623 86.4937 261.534 83.3998C262.971 83.0522 264.41 82.582 265.745 81.9516C267.082 81.3179 268.314 80.3808 269.053 79.0996C269.805 77.7912 269.989 76.1693 269.543 74.7245C269.097 73.2832 267.753 71.9271 264.604 71.6988C253.699 70.9082 242.668 72.721 231.232 76.8167C225.507 78.8679 219.67 80.9771 214.871 84.7151C212.699 86.4051 210.783 88.3985 208.877 90.385C199.67 99.9632 190.467 109.541 181.26 119.12C190.606 125.454 199.643 132.838 208.986 139.169Z" fill="#8F5049"/>
<path d="M218.928 109.677L232.134 111.234L233.128 110.12L221.086 102.668L218.928 109.677Z" fill="#1D232A"/>
<path d="M229.777 46.6639C228.439 50.5279 227.425 57.4279 225.938 60.9512L222.783 67.3878V67.3912L209.879 93.7168C209.114 95.5295 209.723 97.7512 211.248 98.678L220.397 104.242L231.03 86.4556L252.547 50.4563L239.882 42.7522C236.169 40.4965 231.646 42.2479 229.777 46.6639Z" fill="#00A868"/>
<path d="M228.595 75.5392L218.994 75.1133L209.875 93.7177C209.11 95.5305 209.719 97.7521 211.244 98.6789L220.393 104.243L228.595 75.5392Z" fill="#1D232A"/>
<path d="M215.736 96.6371L246.062 46.5176L259.707 54.818C263.084 56.8727 264.152 62.0281 261.957 65.6945L235.228 109.793C234.34 111.258 232.689 111.729 231.335 110.904L216.849 102.092C215.157 101.06 214.63 98.4669 215.736 96.6371Z" fill="#42EC9A"/>
<path d="M248.327 47.8908L239.6 42.582C242.976 44.6367 244.045 49.7921 241.849 53.4585L246.825 51.4379L248.327 47.8908Z" fill="#42EC9A"/>
<path d="M218.108 96.9164L222.934 89.0964C223.343 88.4218 224.15 88.2309 224.83 88.6466L238.322 96.8517C239.166 97.3662 239.469 98.5758 238.966 99.4106L234.136 107.231C233.727 107.905 232.921 108.096 232.24 107.68L218.748 99.4754C217.907 98.9609 217.604 97.7478 218.108 96.9164Z" fill="#1D232A"/>
<path d="M255.155 73.4294C255.063 73.4294 254.974 73.4055 254.889 73.3544L238.606 63.4491C238.365 63.3025 238.29 62.989 238.436 62.7471C238.582 62.5052 238.896 62.4302 239.137 62.5768L255.42 72.4821C255.662 72.6286 255.737 72.9421 255.59 73.184C255.495 73.3408 255.328 73.4294 255.155 73.4294Z" fill="#1D232A"/>
<path d="M232.361 107.618L218.6 99.2462C217.878 98.8067 217.647 97.8628 218.086 97.1405L222.878 89.2489C223.317 88.5265 224.26 88.2948 224.981 88.7344L238.742 97.1064C239.464 97.5459 239.695 98.4898 239.256 99.2122L234.464 107.104C234.025 107.829 233.082 108.058 232.361 107.618Z" fill="#1D232A"/>
<path d="M225.825 87.4001L239.586 95.7721C240.308 96.2117 241.25 95.9799 241.689 95.2576L253.357 76.0364C253.796 75.314 253.565 74.3702 252.843 73.9306L239.082 65.5586C238.361 65.1191 237.418 65.3508 236.979 66.0731L225.311 85.2943C224.872 86.0167 225.1 86.9605 225.825 87.4001Z" fill="#1D232A"/>
<path d="M240.979 58.6232L244.052 53.0827C244.75 51.822 246.373 51.5222 247.796 52.3876L259.447 59.475C261.07 60.4632 261.785 62.5553 260.985 63.9933" fill="#42EC9A"/>
<path d="M260.988 64.5089C260.903 64.5089 260.818 64.4885 260.74 64.4442C260.495 64.3079 260.403 63.9944 260.543 63.7491C261.206 62.5496 260.573 60.7608 259.185 59.9157L247.534 52.8283C246.908 52.4467 246.203 52.3172 245.604 52.4773C245.124 52.6034 244.743 52.8999 244.501 53.336L241.428 58.8765C241.292 59.1252 240.979 59.2104 240.734 59.0741C240.488 58.9378 240.397 58.6243 240.536 58.379L243.61 52.8385C243.984 52.1673 244.6 51.6868 245.345 51.4892C246.224 51.2575 247.19 51.421 248.068 51.956L259.719 59.0434C261.588 60.1781 262.374 62.5633 261.438 64.2465C261.342 64.4135 261.165 64.5089 260.988 64.5089Z" fill="#00A868"/>
<path d="M221.579 90.5991L221.049 91.4727L238.158 101.881L238.688 101.007L221.579 90.5991Z" fill="#42EC9A"/>
<path d="M228.959 90.5452L221.879 102.215L222.752 102.745L229.831 91.0759L228.959 90.5452Z" fill="#42EC9A"/>
<path d="M234.418 93.8655L227.338 105.535L228.211 106.066L235.29 94.3962L234.418 93.8655Z" fill="#42EC9A"/>
<path d="M219.2 94.5209L218.67 95.3945L229.941 102.251L230.472 101.378L219.2 94.5209Z" fill="#42EC9A"/>
<path d="M220.316 112.464C226.13 104.787 227.025 95.7847 223.056 85.4977C223.686 83.5794 225.432 82.2437 227.236 81.3441C229.04 80.4446 231 79.8483 232.695 78.7545C234.39 77.6607 235.84 75.8889 235.81 73.8683C235.786 72.1134 234.608 70.5086 233.087 69.6329C231.565 68.7571 229.754 68.5186 227.998 68.5766C224.121 68.706 219.629 70.2462 216.746 72.8426C213.022 76.2023 211.266 79.1395 208.655 83.4226C202.403 93.6755 192.927 102.92 183.251 110.024L177.516 116.226L201.215 135.052" fill="#8F5049"/>
<path d="M240.43 103.066C240.494 102.358 240.559 101.652 240.62 100.944C240.739 99.6113 240.862 98.2756 241.117 96.9603C241.342 95.812 241.679 94.6705 242.291 93.6721C242.904 92.6738 243.823 91.8355 244.94 91.4846C246.056 91.1336 247.373 91.3483 248.21 92.1627C249.231 93.1542 249.555 93.88 250.181 95.7813" fill="#8F5049"/>
<path d="M247.295 89.9005C247.908 88.8885 249.912 85.982 250.181 84.5066C251.029 79.8725 252.234 77.886 254.871 76.7309C257.574 75.5485 261.308 77.3783 261.539 81.7227" fill="#8F5049"/>
<path d="M250.181 96.2955C249.966 96.2955 249.765 96.1592 249.697 95.9445C249.078 94.067 248.782 93.4298 247.856 92.5337C247.57 92.2543 247.196 92.0499 246.774 91.9374C246.501 91.8659 246.338 91.5864 246.409 91.3138C246.481 91.0413 246.763 90.8811 247.032 90.9493C247.624 91.106 248.152 91.399 248.564 91.8011C249.69 92.8949 250.034 93.7195 250.664 95.6276C250.752 95.8968 250.606 96.1864 250.337 96.2716C250.286 96.2887 250.235 96.2955 250.181 96.2955Z" fill="#1D232A"/>
<path d="M261.536 83.9108C261.253 83.9108 261.025 83.6825 261.025 83.3997C261.025 80.8884 260.44 79.0621 259.289 77.9751C258.214 76.9631 256.934 76.8813 256.267 76.9188C255.974 76.9359 255.743 76.7212 255.726 76.4384C255.709 76.1556 255.923 75.9136 256.205 75.8966C257.039 75.8455 258.636 75.9511 259.99 77.2289C261.355 78.5169 262.049 80.592 262.049 83.3963C262.046 83.6825 261.818 83.9108 261.536 83.9108Z" fill="#1D232A"/>
<path d="M248.381 147.482L232.717 190.644C227.18 188.967 176.602 173.733 176.602 173.733L201.598 134.5C201.598 134.5 201.652 134.514 201.751 134.544C201.788 134.558 201.833 134.572 201.887 134.585C202.051 134.636 202.282 134.704 202.575 134.79C202.633 134.807 202.694 134.827 202.755 134.844C203.5 135.066 204.583 135.389 205.924 135.788C206.097 135.839 206.271 135.894 206.455 135.948C206.622 135.992 206.799 136.047 206.976 136.098C207.221 136.17 207.469 136.248 207.728 136.32C208.041 136.415 208.361 136.51 208.691 136.606C208.769 136.63 208.844 136.65 208.922 136.674C209.304 136.786 209.695 136.899 210.1 137.021C221.271 140.306 242.295 146.14 248.381 147.482Z" fill="#8F5049"/>
<path d="M238.226 144.904L223.58 193.292C209.016 188.43 173.07 176.446 173.07 176.446L198.271 132.279L238.226 144.904Z" fill="#008E5A"/>
<path d="M214.891 190.395C214.428 190.238 213.965 190.081 213.506 189.932L209.017 138.565C209.017 138.565 211.311 177.423 212.087 189.458C211.624 189.301 211.161 189.148 210.701 188.998C210.565 186.892 210.235 180.742 209.67 171.613L209.585 188.62C191.716 182.65 176.447 177.563 176.447 177.563L201.648 133.352C201.648 133.352 201.702 133.365 201.801 133.403C201.838 133.416 201.883 133.433 201.937 133.447C202.1 133.501 202.332 133.576 202.625 133.672C202.682 133.692 202.744 133.713 202.805 133.733C203.55 133.979 204.629 134.333 205.967 134.776C206.137 134.83 206.314 134.892 206.495 134.95C206.661 135.001 206.838 135.059 207.015 135.113C207.26 135.195 207.509 135.28 207.764 135.359C208.077 135.464 208.397 135.57 208.727 135.675C208.806 135.699 208.88 135.727 208.959 135.75C209.34 135.876 209.731 136.003 210.133 136.135C210.473 139.604 210.861 143.063 211.168 146.545C212.379 160.359 213.54 174.356 214.891 190.395Z" fill="#1D232A"/>
<path d="M248.726 148.071C249.007 148.135 249.394 148.222 249.816 148.316C250.447 148.457 251.16 148.612 251.72 148.732L240.963 192.519C238.821 191.899 236.764 191.305 233.368 190.309L248.699 148.064C248.708 148.066 248.717 148.069 248.726 148.071Z" fill="#FCFCFC" stroke="#FCFCFC"/>
<path d="M151.053 91.1685C150.968 91.2094 150.879 91.2537 150.794 91.2912C150.345 91.499 149.889 91.6728 149.43 91.8023C149.361 91.8193 149.29 91.8432 149.219 91.8568C149.12 91.8875 149.014 91.9113 148.916 91.9352V91.9386C148.711 91.9829 148.514 92.0203 148.31 92.051C148.228 92.0646 148.15 92.0749 148.075 92.0817C147.98 92.0953 147.881 92.1055 147.786 92.1089C147.772 92.1123 147.758 92.1192 147.745 92.1123C147.527 92.1362 147.309 92.1498 147.088 92.1532H147.084C146.938 92.1566 146.792 92.1566 146.645 92.1532C146.54 92.1498 146.438 92.143 146.329 92.1396C146.234 92.1362 146.135 92.126 146.036 92.1158H146.033C145.846 92.0987 145.662 92.0749 145.481 92.0442C145.372 92.0306 145.263 92.0135 145.161 91.9897C144.971 91.9522 144.78 91.9113 144.593 91.8636C144.447 91.8261 144.304 91.7852 144.157 91.7409C141.826 91.022 139.787 89.3898 138.606 87.0387C136.309 82.4558 138.15 76.8744 142.728 74.571C147.306 72.2642 152.888 74.1144 155.185 78.6974C157.476 83.2838 155.628 88.8651 151.053 91.1685Z" fill="#8F5049"/>
<path d="M148.412 81.9724C147.52 85.3559 146.543 88.719 145.474 92.0481C145.365 92.0345 145.257 92.0174 145.154 91.9936C144.964 91.9561 144.773 91.9152 144.586 91.8675C144.44 91.83 144.297 91.7891 144.15 91.7448C145.226 88.3919 146.21 85.0186 147.105 81.6112C147.326 80.7661 148.633 81.1239 148.412 81.9724Z" fill="#1D232A"/>
<path d="M150.795 91.2879C150.346 91.4957 149.89 91.6695 149.43 91.799C149.44 91.3594 149.444 90.9199 149.447 90.4803C149.369 90.9369 149.287 91.3969 149.216 91.8535C149.117 91.8842 149.012 91.908 148.913 91.9319V91.9353C148.709 91.9796 148.511 92.017 148.307 92.0477C148.225 92.0613 148.147 92.0716 148.072 92.0784C147.977 92.092 147.878 92.1022 147.783 92.1056C147.793 92.0239 147.8 91.9455 147.81 91.8671C147.786 91.9489 147.766 92.0307 147.742 92.1124C147.524 92.1363 147.306 92.1499 147.085 92.1533H147.082C146.935 92.1568 146.789 92.1568 146.643 92.1533C146.537 92.1499 146.435 92.1431 146.326 92.1397C147.215 89.1514 147.916 86.1154 148.436 83.0385C148.559 82.3366 149.454 82.4525 149.696 82.9874C150.121 82.892 150.683 83.2464 150.584 83.8222C150.56 83.9551 150.543 84.0812 150.519 84.2107C150.639 84.3231 150.717 84.4833 150.727 84.6775C150.805 86.8821 150.829 89.0867 150.795 91.2879Z" fill="#1D232A"/>
<path d="M175.335 97.6385C165.669 102.498 153.896 98.596 149.039 88.919L143.477 77.8449C143.474 77.8449 143.474 77.8449 143.474 77.8449L143.215 77.327L143.11 77.1123C141.027 72.9689 140.554 68.4337 141.449 64.2255C142.381 59.847 144.798 55.8195 148.436 52.9368C149.468 52.1224 150.594 51.3966 151.816 50.7867C154.474 49.4442 157.299 48.7695 160.087 48.7014C160.128 48.7014 160.169 48.698 160.209 48.698C160.274 48.6946 160.335 48.6946 160.4 48.6946C162.834 48.6673 165.237 49.1001 167.493 49.9485C167.694 50.0235 167.891 50.1018 168.089 50.1836C172.289 51.9146 175.91 55.1141 178.113 59.4995L184.038 71.3095C188.899 80.99 185.002 92.7762 175.335 97.6385Z" fill="#8F5049"/>
<path d="M172.394 89.1308C169.106 90.7697 165.209 89.9486 162.775 87.4748C167.772 84.2582 171.832 82.3637 176.86 80.4453C177.37 83.8766 175.682 87.4918 172.394 89.1308Z" fill="#E09661"/>
<path d="M164.284 88.048C163.78 88.048 163.266 88.0276 162.739 87.9867C162.456 87.9663 162.249 87.7209 162.269 87.4381C162.289 87.1553 162.541 86.9475 162.817 86.9679C168.749 87.4211 173.327 85.1347 176.428 80.1769C176.578 79.9384 176.894 79.8669 177.133 80.0134C177.371 80.1633 177.446 80.4802 177.296 80.7187C174.253 85.5879 169.879 88.048 164.284 88.048Z" fill="#1D232A"/>
<path d="M172.193 59.3125C172.268 62.1168 170.232 65.3504 165.92 65.0949Z" fill="#1D232A"/>
<path d="M150.41 69.3295C151.85 66.9239 155.298 65.2849 158.803 67.8167Z" fill="#1D232A"/>
<path d="M184.504 58.3377L144.259 79.3069C143.786 79.5556 143.701 80.2303 144.076 80.6903C146.496 83.6343 150.08 85.263 153.722 85.2153C154.028 85.2119 154.331 85.1983 154.637 85.171C155.236 85.1165 155.832 85.0177 156.424 84.8678C157.006 84.7247 157.581 84.5339 158.143 84.2919C158.439 84.1693 158.732 84.033 159.021 83.883C164.038 81.2696 166.4 75.5383 165.076 70.1546C167.489 72.918 170.954 74.4479 174.48 74.4002C174.787 74.3968 175.09 74.3832 175.396 74.3559C175.995 74.3014 176.591 74.2026 177.183 74.0527C177.765 73.9096 178.34 73.7187 178.902 73.4768C179.198 73.3541 179.49 73.2179 179.78 73.0679C184.909 70.3965 187.268 64.4642 185.743 58.9817C185.58 58.4093 184.977 58.0924 184.504 58.3377Z" fill="#1D232A"/>
<mask id="path-36-inside-1_11961_1223" fill="white">
<path d="M155.186 73.6133C155.002 77.4671 154.818 81.3174 154.634 85.1678C154.328 85.1951 154.025 85.2121 153.719 85.2121C153.896 81.5083 154.069 77.8044 154.246 74.1005L155.186 73.6133Z"/>
</mask>
<path d="M155.186 73.6133C155.002 77.4671 154.818 81.3174 154.634 85.1678C154.328 85.1951 154.025 85.2121 153.719 85.2121C153.896 81.5083 154.069 77.8044 154.246 74.1005L155.186 73.6133Z" fill="#FCFCFC"/>
<path d="M155.186 73.6133L156.185 73.6609L156.267 71.9257L154.725 72.7256L155.186 73.6133ZM154.634 85.1678L154.723 86.1639L155.592 86.0866L155.633 85.2155L154.634 85.1678ZM153.719 85.2121L152.72 85.1644L152.67 86.2121H153.719V85.2121ZM154.246 74.1005L153.786 73.2129L153.275 73.4779L153.247 74.0528L154.246 74.1005ZM155.186 73.6133L154.187 73.5656C154.003 77.4194 153.819 81.2698 153.635 85.1201L154.634 85.1678L155.633 85.2155C155.817 81.3651 156.001 77.5147 156.185 73.6609L155.186 73.6133ZM154.634 85.1678L154.546 84.1717C154.26 84.1971 153.988 84.2121 153.719 84.2121V85.2121V86.2121C154.062 86.2121 154.396 86.193 154.723 86.1639L154.634 85.1678ZM153.719 85.2121L154.718 85.2598C154.806 83.4076 154.894 81.5555 154.981 79.7036C155.069 77.8516 155.157 75.9999 155.245 74.1483L154.246 74.1005L153.247 74.0528C153.159 75.905 153.071 77.7572 152.984 79.6091C152.896 81.461 152.808 83.3127 152.72 85.1644L153.719 85.2121ZM154.246 74.1005L154.707 74.9882L155.646 74.501L155.186 73.6133L154.725 72.7256L153.786 73.2129L154.246 74.1005Z" fill="#FCFCFC" mask="url(#path-36-inside-1_11961_1223)"/>
<path d="M158.064 73.6484C158.067 73.6468 158.072 73.6469 158.075 73.6445C158.089 73.6348 158.103 73.6214 158.111 73.6064C158.115 73.5993 158.117 73.5937 158.118 73.5908L157.211 73.5312C157.119 77.0865 157.035 80.6464 156.938 84.2012C157.176 84.1262 157.413 84.0422 157.649 83.9492C157.772 80.5137 157.898 77.0815 158.023 73.6494V73.6475C158.024 73.6328 158.022 73.6304 158.024 73.6357C158.026 73.6395 158.028 73.6434 158.031 73.6475M158.064 73.6484L158.031 73.6475M158.064 73.6484C158.063 73.6492 158.062 73.6498 158.061 73.6504M158.064 73.6484L158.031 73.6475M158.031 73.6475L158.032 73.6494M158.061 73.6504C158.044 73.6585 158.036 73.6586 158.041 73.6592C158.046 73.6598 158.042 73.6613 158.034 73.6523C158.033 73.6515 158.033 73.6503 158.032 73.6494M158.061 73.6504L158.032 73.6494M158.061 73.6504L158.032 73.6494" fill="#FCFCFC" stroke="#FCFCFC"/>
<mask id="path-39-inside-2_11961_1223" fill="white">
<path d="M175.943 62.7988C175.76 66.6526 175.576 70.503 175.392 74.3533C175.086 74.3806 174.783 74.3976 174.477 74.3976C174.654 70.6938 174.827 66.9899 175.004 63.2861L175.943 62.7988Z"/>
</mask>
<path d="M175.943 62.7988C175.76 66.6526 175.576 70.503 175.392 74.3533C175.086 74.3806 174.783 74.3976 174.477 74.3976C174.654 70.6938 174.827 66.9899 175.004 63.2861L175.943 62.7988Z" fill="#FCFCFC"/>
<path d="M175.943 62.7988L176.942 62.8465L177.025 61.1113L175.483 61.9111L175.943 62.7988ZM175.392 74.3533L175.481 75.3494L176.349 75.2721L176.391 74.401L175.392 74.3533ZM174.477 74.3976L173.478 74.3499L173.428 75.3976H174.477V74.3976ZM175.004 63.2861L174.544 62.3984L174.033 62.6634L174.005 63.2384L175.004 63.2861ZM175.943 62.7988L174.945 62.7512C174.761 66.6049 174.577 70.4553 174.393 74.3057L175.392 74.3533L176.391 74.401C176.575 70.5506 176.759 66.7003 176.942 62.8465L175.943 62.7988ZM175.392 74.3533L175.303 73.3573C175.018 73.3827 174.746 73.3976 174.477 73.3976V74.3976V75.3976C174.82 75.3976 175.153 75.3785 175.481 75.3494L175.392 74.3533ZM174.477 74.3976L175.475 74.4454C175.564 72.5932 175.652 70.741 175.739 68.8891C175.827 67.0372 175.914 65.1855 176.003 63.3338L175.004 63.2861L174.005 63.2384C173.917 65.0905 173.829 66.9427 173.741 68.7946C173.654 70.6465 173.566 72.4982 173.478 74.3499L174.477 74.3976ZM175.004 63.2861L175.465 64.1738L176.404 63.6865L175.943 62.7988L175.483 61.9111L174.544 62.3984L175.004 63.2861Z" fill="#FCFCFC" mask="url(#path-39-inside-2_11961_1223)"/>
<path d="M178.879 62.7734C178.88 62.7672 178.879 62.7746 178.871 62.7891C178.862 62.8042 178.849 62.8182 178.835 62.8281C178.828 62.8328 178.821 62.8337 178.816 62.8359L178.791 62.835C178.787 62.8307 178.785 62.8261 178.783 62.8223C178.784 62.8246 178.783 62.8287 178.783 62.835C178.658 66.267 178.531 69.6993 178.409 73.1348C178.173 73.2278 177.936 73.3118 177.697 73.3867C177.795 69.8316 177.879 66.2714 177.971 62.7158L178.879 62.7734ZM178.814 62.8369C178.806 62.8404 178.801 62.8438 178.799 62.8438C178.803 62.8443 178.801 62.8453 178.793 62.8369L178.792 62.8359L178.814 62.8369Z" fill="#FCFCFC" stroke="#FCFCFC"/>
<path d="M160.089 54.0576C158.142 55.7715 154.153 55.3797 151.896 54.429C153.271 56.8244 153.19 59.9831 151.692 62.3069C150.195 64.6274 147.349 65.9972 144.606 65.728C145.651 67.861 146.396 70.2121 146.253 72.5871C146.144 74.4475 145.045 77.32 143.479 77.8447C143.476 77.8447 143.476 77.8447 143.476 77.8447L143.217 77.3268L143.112 77.1155C141.029 72.9721 140.555 68.4369 141.451 64.2287C142.383 59.8468 144.8 55.8227 148.438 52.94C149.47 52.1256 150.596 51.3998 151.818 50.7899C154.578 49.3997 157.509 48.725 160.402 48.7012C160.637 49.1612 162.468 51.9621 160.089 54.0576Z" fill="#1D232A"/>
<path d="M147.656 53.8426C147.156 61.3286 138.038 64.7463 126.955 62.6711C116.288 60.6744 110.441 54.2446 110.771 49.3618C111.098 44.4824 117.711 39.7836 128.467 40.1686C140.512 40.598 148.16 46.3599 147.656 53.8426Z" fill="#1D232A"/>
<path d="M92.8277 65.8852C92.004 59.694 98.1714 55.0531 106.657 54.4772C114.825 53.9218 120.155 57.9596 120.69 61.994C121.228 66.0283 117.106 71.2008 109.131 73.0851C100.197 75.1977 93.6514 72.0731 92.8277 65.8852Z" fill="#1D232A"/>
<path d="M75.4893 49.7104C77.9978 45.584 84.9242 44.6197 90.9112 48.0169C96.6735 51.288 98.0486 56.457 96.2242 59.4862C94.3999 62.5154 88.8452 64.2396 82.4906 61.9736C75.3736 59.4385 72.9808 53.8367 75.4893 49.7104Z" fill="#1D232A"/>
<path d="M160.666 162.315L129.621 179.264C129.621 179.264 123.216 182.756 105.867 192.222C88.6179 201.637 66.1879 201.589 53.8464 186.225C47.4782 178.299 44.8472 166.074 48.9179 153.323C52.1446 143.21 61.1676 137.816 70.2723 137.816C72.8216 137.816 75.3777 138.238 77.8113 139.097C79.0332 139.53 80.2313 140.068 81.3749 140.722C84.4416 142.47 87.1781 145.012 89.2918 148.393L107.573 139.448L136.03 125.525L160.666 162.315Z" fill="#008E5A"/>
<path d="M124.008 131.406L146.421 169.695L154.29 159.108L124.008 131.406Z" fill="#1D232A"/>
<path d="M156.421 115.572L89.2948 148.399L81.1942 135.427C76.9907 128.698 78.958 119.832 85.6189 115.521L108.597 100.645C119.202 93.7786 133.079 94.8349 142.524 103.227L156.421 115.572Z" fill="#42EC9A"/>
<path d="M196.779 164.59C190.022 173.286 184.199 180.861 179.992 187.437L137.48 178.704C146.694 167.47 168.082 141.689 168.082 141.689L159.512 114.062C159.512 114.062 161.34 113.139 166.507 110.648C174.144 106.964 191.714 106.937 200.417 120.55C209.113 134.155 207.827 150.361 196.779 164.59Z" fill="#008E5A"/>
<path d="M179.992 187.436C179.318 188.493 178.681 189.522 178.092 190.527C176.796 192.725 175.7 194.878 174.804 197.055L130.588 187.307C131.595 186.019 132.623 184.717 133.655 183.409C133.886 183.116 136.347 180.083 137.48 178.703L179.992 187.436Z" fill="#8F5049"/>
<path d="M177.293 190.906C176.304 192.627 175.436 194.328 174.69 196.041L174.341 196.866L174.337 196.877C173.847 198.155 173.397 199.507 173.021 200.889L129.344 189.686C130.463 188.266 132.847 185.238 133.863 183.946L177.293 190.906Z" fill="#FCFCFC" stroke="#FCFCFC"/>
<path d="M199.742 243.326H102.619C102.619 234.545 103.429 222.019 115.985 205.919C119.457 201.469 123.8 195.932 128.477 189.979C129.174 189.1 129.875 188.208 130.587 187.305L150.733 191.748L174.803 197.053C174.262 198.464 173.772 199.963 173.377 201.497C171.835 207.425 171.726 213.893 175.906 218.005C186.692 228.63 199.742 230.395 199.742 243.326Z" fill="#008E5A"/>
<path d="M149.14 270.596C148.861 272.173 148.432 273.713 147.867 275.199C143.885 285.714 133.208 293.623 122.085 293.623H121.972C119.29 293.623 113.531 293.623 113.531 293.623L117.102 273.88L121.857 247.568C121.857 247.568 126.581 247.568 130.195 247.568C138.565 247.568 145.1 252.046 147.942 258.738C148.051 258.997 148.153 259.252 148.252 259.515C148.415 259.941 148.555 260.373 148.687 260.816C148.769 261.092 148.847 261.375 148.909 261.658C149.028 262.115 149.123 262.581 149.201 263.052C149.31 263.679 149.392 264.316 149.436 264.96C149.474 265.461 149.497 265.965 149.494 266.479C149.504 267.812 149.385 269.192 149.14 270.596Z" fill="#42EC9A"/>
<path d="M147.867 275.197C143.885 285.713 133.208 293.621 122.085 293.621H113.746L132.476 284.38L147.867 275.197Z" fill="#1D232A"/>
<path d="M137.579 266.871C141.299 264.898 144.999 262.884 148.685 260.819C148.555 260.376 148.412 259.944 148.249 259.518C144.539 261.596 140.812 263.627 137.061 265.613C136.17 266.084 136.687 267.341 137.579 266.871Z" fill="#1D232A"/>
<path d="M138.273 269.596C142.092 267.463 145.907 265.334 149.729 263.204C149.665 262.731 149.583 262.257 149.477 261.797C145.587 263.971 141.693 266.145 137.796 268.319C136.915 268.806 137.388 270.091 138.273 269.596Z" fill="#1D232A"/>
<path d="M135.605 280.988C139.383 278.763 143.154 276.538 146.932 274.319C146.854 273.849 146.759 273.382 146.64 272.926C142.79 275.195 138.944 277.461 135.088 279.73C134.217 280.241 134.727 281.502 135.605 280.988Z" fill="#1D232A"/>
<path d="M139.319 273.812C143.097 271.587 146.868 269.362 150.646 267.144C150.568 266.673 150.472 266.207 150.353 265.75C146.504 268.019 142.658 270.285 138.801 272.555C137.933 273.066 138.44 274.326 139.319 273.812Z" fill="#1D232A"/>
<path d="M117.1 273.882L147.94 258.74C145.098 252.048 138.559 247.57 130.193 247.57C126.579 247.57 121.854 247.57 121.854 247.57L117.1 273.882Z" fill="#1D232A"/>
<path d="M132.01 286.15C142.241 276.771 144.167 262.207 136.312 253.618C128.457 245.03 113.795 245.671 103.564 255.05C93.333 264.428 91.4069 278.993 99.262 287.581C107.117 296.17 121.779 295.529 132.01 286.15Z" fill="#42EC9A"/>
<path d="M116.084 281.622C112.466 281.622 110.057 278.841 109.818 276.156C109.794 275.873 110.002 275.628 110.281 275.601C110.564 275.577 110.809 275.785 110.836 276.064C111.033 278.293 113.052 280.599 116.084 280.599C118.402 280.599 120.652 279.512 121.956 277.764C122.847 276.572 123.147 275.267 122.8 274.091C122.119 271.784 120.4 271.277 118.024 270.578L117.81 270.513C115.308 269.774 113.191 268.97 112.671 266.615C112.351 265.171 112.776 263.586 113.831 262.268C115.186 260.581 117.35 259.572 119.628 259.572C121.857 259.572 123.838 260.792 124.798 262.751C124.92 263.004 124.818 263.31 124.563 263.436C124.308 263.559 124.005 263.453 123.879 263.201C123.263 261.94 121.823 260.594 119.628 260.594C117.657 260.594 115.788 261.46 114.628 262.908C113.763 263.985 113.416 265.256 113.668 266.394C114.032 268.046 115.448 268.748 118.099 269.532L118.314 269.597C120.693 270.299 122.939 270.96 123.78 273.802C124.216 275.27 123.848 276.936 122.776 278.374C121.282 280.378 118.719 281.622 116.084 281.622Z" fill="#1D232A"/>
<path d="M115.515 284.079C115.485 284.079 115.457 284.075 115.427 284.072C115.148 284.024 114.964 283.758 115.011 283.479L119.579 257.538C119.627 257.259 119.892 257.075 120.171 257.123C120.45 257.17 120.634 257.436 120.587 257.716L116.019 283.656C115.975 283.905 115.757 284.079 115.515 284.079Z" fill="#1D232A"/>
<path d="M199.759 270.596C199.701 270.919 199.64 271.25 199.562 271.57C199.426 272.197 199.269 272.814 199.085 273.42C198.905 274.023 198.704 274.616 198.486 275.199C194.504 285.714 183.827 293.623 172.704 293.623H172.591C169.909 293.623 164.15 293.623 164.15 293.623L167.721 273.88L172.476 247.568C172.476 247.568 177.2 247.568 180.815 247.568C189.184 247.568 195.719 252.046 198.561 258.738C198.67 258.997 198.772 259.252 198.871 259.515C199.034 259.941 199.174 260.373 199.306 260.816C199.388 261.092 199.466 261.375 199.528 261.658C199.647 262.115 199.742 262.581 199.82 263.052C199.929 263.679 200.011 264.316 200.055 264.96C200.093 265.461 200.117 265.965 200.113 266.479C200.123 267.812 200.008 269.192 199.759 270.596Z" fill="#42EC9A"/>
<path d="M198.487 275.197C194.504 285.713 183.827 293.621 172.704 293.621H164.365L183.095 284.38L198.487 275.197Z" fill="#1D232A"/>
<path d="M188.198 266.871C191.918 264.898 195.618 262.884 199.304 260.819C199.174 260.376 199.032 259.944 198.868 259.518C195.158 261.596 191.431 263.627 187.68 265.613C186.789 266.084 187.306 267.341 188.198 266.871Z" fill="#1D232A"/>
<path d="M199.566 271.57C199.429 272.197 199.273 272.814 199.089 273.421C194.95 275.85 189.212 279.23 186.227 280.988C185.349 281.503 184.841 280.242 185.709 279.731C188.956 277.816 195.338 274.065 199.566 271.57Z" fill="#1D232A"/>
<path d="M167.721 273.882L198.561 258.74C195.719 252.048 189.181 247.57 180.814 247.57C177.2 247.57 172.476 247.57 172.476 247.57L167.721 273.882Z" fill="#1D232A"/>
<path d="M182.629 286.152C192.86 276.773 194.786 262.208 186.931 253.62C179.076 245.032 164.414 245.673 154.183 255.052C143.952 264.43 142.026 278.995 149.881 287.583C157.736 296.172 172.398 295.531 182.629 286.152Z" fill="#42EC9A"/>
<path d="M154.487 264.742C154.399 264.742 154.307 264.718 154.225 264.67C153.983 264.524 153.905 264.21 154.048 263.968C157.771 257.75 164.541 253.732 171.298 253.732C177.261 253.732 182.138 256.789 184.347 261.91C184.459 262.169 184.34 262.469 184.082 262.581C183.823 262.694 183.523 262.575 183.411 262.316C181.369 257.583 176.842 254.755 171.298 254.755C164.892 254.755 158.466 258.578 154.926 264.493C154.831 264.653 154.661 264.742 154.487 264.742Z" fill="#1D232A"/>
<path d="M103.842 264.742C103.754 264.742 103.662 264.718 103.58 264.67C103.339 264.524 103.26 264.21 103.403 263.968C107.127 257.75 113.897 253.732 120.653 253.732C126.616 253.732 131.494 256.789 133.703 261.91C133.815 262.169 133.696 262.469 133.437 262.581C133.178 262.694 132.879 262.575 132.767 262.316C130.724 257.583 126.198 254.755 120.653 254.755C114.247 254.755 107.821 258.578 104.282 264.493C104.183 264.653 104.016 264.742 103.842 264.742Z" fill="#1D232A"/>
<path d="M166.707 281.622C163.089 281.622 160.68 278.841 160.441 276.156C160.417 275.873 160.625 275.628 160.904 275.601C161.187 275.577 161.432 275.785 161.459 276.064C161.656 278.293 163.675 280.599 166.707 280.599C169.025 280.599 171.275 279.512 172.579 277.764C173.47 276.572 173.77 275.267 173.423 274.091C172.742 271.784 171.023 271.277 168.647 270.578L168.433 270.513C165.928 269.774 163.814 268.97 163.294 266.615C162.974 265.171 163.399 263.586 164.454 262.268C165.809 260.581 167.974 259.572 170.251 259.572C172.48 259.572 174.461 260.792 175.421 262.751C175.543 263.007 175.441 263.31 175.186 263.436C174.934 263.559 174.628 263.457 174.502 263.201C173.886 261.94 172.446 260.594 170.251 260.594C168.28 260.594 166.411 261.46 165.251 262.908C164.39 263.985 164.039 265.256 164.291 266.394C164.655 268.046 166.071 268.748 168.722 269.532L168.937 269.597C171.316 270.299 173.562 270.96 174.403 273.802C174.839 275.27 174.471 276.936 173.399 278.374C171.901 280.378 169.338 281.622 166.707 281.622Z" fill="#1D232A"/>
<path d="M166.136 284.079C166.106 284.079 166.078 284.075 166.048 284.072C165.769 284.024 165.585 283.758 165.633 283.479L170.2 257.538C170.248 257.259 170.513 257.075 170.792 257.123C171.072 257.17 171.255 257.436 171.208 257.716L166.64 283.656C166.596 283.905 166.381 284.079 166.136 284.079Z" fill="#1D232A"/>
<path d="M198.993 248.042H103.348C102.047 248.042 100.992 246.986 100.992 245.684C100.992 244.382 102.047 243.326 103.348 243.326H198.996C200.296 243.326 201.352 244.382 201.352 245.684C201.348 246.986 200.293 248.042 198.993 248.042Z" fill="#42EC9A"/>
<path d="M131.836 243.325V234.081C131.836 233.406 132.578 232.997 133.146 233.355L149.055 243.329H131.836V243.325Z" fill="#1D232A"/>
<path d="M172.422 209.991H159.321C159.039 209.991 158.811 209.763 158.811 209.48C158.811 209.197 159.039 208.969 159.321 208.969H172.422C172.704 208.969 172.932 209.197 172.932 209.48C172.932 209.763 172.704 209.991 172.422 209.991Z" fill="#1D232A"/>
<path d="M174.304 216.253H159.321C159.039 216.253 158.811 216.024 158.811 215.742C158.811 215.459 159.039 215.23 159.321 215.23H174.304C174.586 215.23 174.814 215.459 174.814 215.742C174.814 216.024 174.586 216.253 174.304 216.253Z" fill="#1D232A"/>
<path d="M195.903 238.974H153.493C153.395 238.974 153.299 238.947 153.218 238.893L136.775 228.401H106.333C106.05 228.401 105.822 228.173 105.822 227.89C105.822 227.607 106.05 227.379 106.333 227.379H136.925C137.023 227.379 137.119 227.406 137.2 227.461L153.643 237.952H195.903C196.185 237.952 196.413 238.18 196.413 238.463C196.413 238.746 196.185 238.974 195.903 238.974Z" fill="#1D232A"/>
<path d="M153.889 165.157C153.75 165.154 153.61 165.147 153.474 165.144C153.794 165.215 154.046 165.464 154.039 165.822C154.032 166.166 153.712 166.52 153.345 166.486C151.561 166.302 149.778 166.122 147.994 165.941C148.648 165.147 149.301 164.363 149.941 163.59C151.265 163.723 152.589 163.791 153.92 163.798C154.798 163.798 154.764 165.157 153.889 165.157Z" fill="#1D232A"/>
<path d="M159.413 169.308C155.145 168.746 150.874 168.187 146.605 167.625C146.946 167.216 147.283 166.807 147.62 166.395C151.561 166.909 155.506 167.427 159.444 167.948C160.298 168.064 160.281 169.42 159.413 169.308Z" fill="#1D232A"/>
<path d="M164.008 172.95C157.977 171.308 151.84 170.125 145.635 169.423C145.479 169.406 145.353 169.345 145.254 169.26C145.57 168.881 145.887 168.503 146.197 168.125C152.34 168.844 158.423 170.023 164.393 171.645C165.237 171.873 164.849 173.175 164.008 172.95Z" fill="#1D232A"/>
<path d="M124.008 131.406C148.882 167.119 177.292 194.814 193.823 184.718C210.355 174.622 199.429 153.854 157.472 112.018L124.008 131.406Z" fill="#8F5049"/>
<path d="M166.505 110.646L124.004 131.407C114.984 117.181 112.792 105.132 120.736 99.7316C138.854 87.4105 166.505 110.646 166.505 110.646Z" fill="#1D232A"/>
<path d="M75.289 156.511C75.1086 156.511 74.9316 156.416 74.8397 156.242C74.7036 155.993 74.7989 155.683 75.0439 155.55L86.5312 149.315L61.1231 153.019C60.8474 153.06 60.5853 152.865 60.5445 152.586C60.5036 152.307 60.6977 152.048 60.9767 152.007L89.2235 147.891C89.4685 147.853 89.7034 148 89.7817 148.235C89.8599 148.47 89.7578 148.725 89.54 148.845L75.5341 156.45C75.4558 156.491 75.3707 156.511 75.289 156.511Z" fill="#1D232A"/>
<path d="M158.348 172.904C158.229 172.904 158.11 172.863 158.014 172.778C154.611 169.827 151.081 166.44 147.528 162.709C147.334 162.505 147.34 162.181 147.545 161.987C147.749 161.793 148.072 161.799 148.266 162.004C151.799 165.711 155.302 169.074 158.681 172.005C158.896 172.189 158.92 172.512 158.732 172.727C158.63 172.846 158.491 172.904 158.348 172.904Z" fill="#1D232A"/>
<path d="M305.707 125.28L283.767 192.6L277.889 210.629C264.19 205.027 257.771 199.435 247.689 195.35C245.729 194.552 243.635 193.82 241.324 193.149L252.328 148.358C265.902 151.254 278.369 140.753 285.119 133.757C291.582 127.062 298.206 123.712 305.707 125.28Z" fill="#008E5A"/>
<path d="M297.709 185.284C297.589 185.284 297.47 185.243 297.372 185.158C297.161 184.974 297.137 184.65 297.324 184.436C301.323 179.843 307.654 178.108 313.447 180.016C315.111 180.565 316.653 181.383 318.025 182.453C318.246 182.626 318.287 182.947 318.113 183.172C317.94 183.393 317.62 183.434 317.399 183.26C316.119 182.265 314.682 181.499 313.127 180.987C307.725 179.209 301.824 180.827 298.093 185.107C297.994 185.226 297.852 185.284 297.709 185.284Z" fill="#1D232A"/>
<path d="M266.311 157.657C266.079 157.657 265.872 157.5 265.814 157.265L263.561 147.942C263.496 147.666 263.663 147.39 263.939 147.326C264.211 147.257 264.49 147.428 264.555 147.704L266.808 157.026C266.873 157.299 266.706 157.578 266.43 157.643C266.389 157.65 266.348 157.657 266.311 157.657Z" fill="#1D232A"/>
<path d="M273.516 154.549C273.305 154.549 273.108 154.419 273.033 154.208L269.936 145.4C269.841 145.134 269.983 144.841 270.249 144.749C270.518 144.657 270.807 144.797 270.899 145.062L273.996 153.871C274.092 154.136 273.949 154.429 273.683 154.521C273.632 154.539 273.574 154.549 273.516 154.549Z" fill="#1D232A"/>
<path d="M264.384 203.034C264.323 203.034 264.261 203.024 264.2 203C263.938 202.897 263.805 202.604 263.908 202.339L274.112 175.689C274.142 175.611 274.19 175.543 274.251 175.488L287.985 163.484L300.02 127.018C300.109 126.749 300.398 126.606 300.663 126.694C300.932 126.783 301.075 127.072 300.987 127.342L288.907 163.941C288.88 164.026 288.825 164.104 288.757 164.165L275.014 176.177L264.854 202.71C264.782 202.908 264.588 203.034 264.384 203.034Z" fill="#1D232A"/>
<path d="M291.861 167.764L281.408 176.66C280.884 177.107 281.04 177.955 281.691 178.18L287.773 180.3L291.861 167.764Z" fill="#1D232A"/>
<path d="M283.768 192.6L277.89 210.628C264.19 205.026 257.771 199.435 247.689 195.349L283.768 192.6Z" fill="#1D232A"/>
<path d="M250.569 196.331C250.32 196.331 250.102 196.15 250.065 195.898C250.021 195.619 250.215 195.36 250.494 195.315L284.792 190.068C285.075 190.027 285.33 190.218 285.374 190.497C285.418 190.777 285.224 191.036 284.945 191.08L250.647 196.327C250.62 196.327 250.596 196.331 250.569 196.331Z" fill="#1D232A"/>
<path d="M342.453 157.603C342.453 157.603 342.252 158.23 341.949 159.137C341.415 160.765 340.584 163.317 340.104 164.783L340.074 164.878C339.533 166.531 338.797 168.074 337.909 169.481C337.504 170.119 337.065 170.735 336.602 171.315C336.347 171.631 336.085 171.942 335.816 172.241C335.595 172.483 335.37 172.718 335.139 172.954C334.74 173.359 334.325 173.744 333.896 174.105C333.893 174.112 333.886 174.115 333.883 174.119C333.495 174.453 333.096 174.77 332.685 175.063C332.633 175.1 332.576 175.141 332.525 175.175C328.44 178.112 323.325 179.506 318.141 178.896C316.8 178.733 315.445 178.439 314.101 177.997C312.906 177.605 311.773 177.111 310.707 176.535C310.295 176.317 309.897 176.078 309.506 175.833C308.999 175.516 308.512 175.172 308.042 174.811C307.688 174.545 307.345 174.262 307.011 173.962C306.803 173.792 306.599 173.604 306.402 173.414C306.085 173.114 305.775 172.81 305.479 172.483C305.296 172.286 305.119 172.095 304.945 171.887C300.374 166.599 298.604 159.113 300.932 151.995C301.936 148.925 303.253 144.9 303.253 144.9L325.646 152.158L341.622 157.334L342.453 157.603Z" fill="#1D232A"/>
<path d="M342.391 157.786C341.785 159.647 340.934 161.361 339.892 162.904C338.211 165.392 336.026 167.446 333.524 168.959C328.565 171.965 322.371 172.864 316.428 170.905C305.621 167.348 299.726 155.708 303.259 144.903C304.182 142.078 305.659 139.591 307.531 137.519C309.212 135.662 311.203 134.142 313.399 133.015C313.817 132.8 314.246 132.599 314.678 132.411C315.335 132.129 316.013 131.88 316.697 131.669C317 131.573 317.303 131.485 317.612 131.403C318.633 131.137 319.675 130.946 320.733 130.841C323.477 130.565 326.326 130.841 329.12 131.744C329.151 131.754 329.185 131.764 329.215 131.774C337.044 134.35 342.295 141.168 343.252 148.839C343.623 151.762 343.364 154.808 342.391 157.786Z" fill="#42EC9A"/>
<path d="M335.124 157.922C334.966 158.223 334.799 158.516 334.62 158.801L334.38 159.17C333.244 160.856 331.763 162.245 330.07 163.268C329.935 163.35 329.798 163.428 329.661 163.505L312.159 142.337C312.259 142.218 312.361 142.1 312.466 141.985L312.467 141.984C313.735 140.579 315.27 139.462 316.966 138.68L317.307 138.527C317.751 138.336 318.205 138.168 318.668 138.025L335.124 157.922Z" fill="#FCFCFC" stroke="#FCFCFC"/>
<path d="M318.63 136.785C318.242 136.897 317.86 137.024 317.483 137.166L314.19 133.183C314.418 133.074 314.648 132.97 314.878 132.872L314.877 132.871C315.004 132.817 315.133 132.768 315.262 132.716L318.63 136.785Z" fill="#FCFCFC" stroke="#FCFCFC"/>
<path d="M300.026 221.053C300.301 221.145 300.584 221.233 300.863 221.305C301.401 221.458 301.939 221.591 302.476 221.693C303.007 221.799 303.538 221.884 304.066 221.945C313.593 223.077 322.898 217.393 325.992 207.931L326.023 207.835C326.768 205.552 328.371 200.656 328.371 200.656L311.571 195.211L289.178 187.953C289.178 187.953 287.865 191.97 286.861 195.044C284.532 202.162 286.299 209.645 290.87 214.936C291.047 215.141 291.224 215.335 291.408 215.533C291.704 215.853 292.01 216.16 292.33 216.463C292.528 216.65 292.732 216.838 292.943 217.012C293.276 217.308 293.62 217.591 293.978 217.86C294.451 218.221 294.937 218.565 295.441 218.882C295.833 219.131 296.231 219.366 296.643 219.584C297.698 220.167 298.834 220.657 300.026 221.053Z" fill="#1D232A"/>
<path d="M325.376 206.586C332.082 197.414 330.077 184.525 320.895 177.796C311.714 171.068 298.835 173.048 292.128 182.22C285.421 191.391 287.427 204.281 296.608 211.009C305.789 217.738 318.669 215.758 325.376 206.586Z" fill="#42EC9A"/>
<path d="M325.949 158.676C325.844 158.676 325.742 158.673 325.64 158.666C325.357 158.649 325.143 158.407 325.16 158.124C325.177 157.841 325.425 157.63 325.701 157.644C327.78 157.773 330.445 156.352 331.307 153.763C331.926 151.899 331.654 149.997 330.578 148.679C329.782 147.701 328.638 147.224 327.447 147.367C325.149 147.646 324.156 149.118 322.896 150.982L322.777 151.159C321.416 153.173 320.105 154.85 317.872 154.979C316.395 155.068 315.03 154.431 314.115 153.235C313.043 151.834 312.781 149.868 313.407 147.973C314.033 146.086 315.674 144.573 317.685 144.024C317.958 143.949 318.237 144.11 318.312 144.382C318.386 144.655 318.226 144.934 317.954 145.009C316.634 145.37 315 146.423 314.377 148.294C313.846 149.888 314.047 151.463 314.925 152.611C315.629 153.531 316.685 154.018 317.811 153.957C319.581 153.855 320.68 152.43 321.93 150.584L322.049 150.41C323.4 148.41 324.564 146.686 327.324 146.352C328.87 146.164 330.343 146.778 331.368 148.031C332.665 149.623 333.005 151.885 332.273 154.083C331.3 157.02 328.362 158.676 325.949 158.676Z" fill="#1D232A"/>
<path d="M333.839 155.248C333.784 155.248 333.73 155.241 333.679 155.221L311.65 147.915C311.381 147.827 311.238 147.537 311.327 147.268C311.415 146.999 311.705 146.856 311.974 146.944L334.002 154.25C334.271 154.338 334.414 154.628 334.325 154.897C334.254 155.112 334.053 155.248 333.839 155.248Z" fill="#1D232A"/>
<path d="M309.784 126.994L282.099 211.913C281.721 213.068 280.479 213.698 279.325 213.324C278.168 212.949 277.538 211.705 277.913 210.553L305.598 125.634C305.976 124.479 307.218 123.849 308.372 124.223C309.529 124.598 310.159 125.839 309.784 126.994Z" fill="#42EC9A"/>
<path d="M92.7527 254.042H61.9227C61.6402 254.042 61.4121 253.813 61.4121 253.531C61.4121 253.248 61.6402 253.02 61.9227 253.02H92.7527C93.0352 253.02 93.2633 253.248 93.2633 253.531C93.2633 253.813 93.0352 254.042 92.7527 254.042Z" fill="#1D232A"/>
<path d="M45.3469 206.247H24.3602C24.0777 206.247 23.8496 206.019 23.8496 205.736C23.8496 205.453 24.0777 205.225 24.3602 205.225H45.3469C45.6294 205.225 45.8575 205.453 45.8575 205.736C45.8575 206.019 45.6294 206.247 45.3469 206.247Z" fill="#1D232A"/>
<path d="M92.7514 221.024H38.3172C38.0347 221.024 37.8066 220.796 37.8066 220.513C37.8066 220.23 38.0347 220.002 38.3172 220.002H92.7548C93.0373 220.002 93.2654 220.23 93.2654 220.513C93.2654 220.796 93.0339 221.024 92.7514 221.024Z" fill="#1D232A"/>
<path d="M89.0284 259.655H30.6902C30.4077 259.655 30.1797 259.427 30.1797 259.144C30.1797 258.861 30.4077 258.633 30.6902 258.633H89.0284C89.3109 258.633 89.539 258.861 89.539 259.144C89.539 259.427 89.3109 259.655 89.0284 259.655Z" fill="#1D232A"/>
<path d="M168.33 82.0765C167.602 82.0765 166.887 81.8857 166.261 81.5211C166.016 81.3814 165.934 81.0679 166.074 80.8226C166.213 80.5772 166.527 80.4954 166.772 80.6351C167.245 80.9077 167.782 81.0509 168.33 81.0509C170.053 81.0509 171.455 79.647 171.455 77.9229C171.455 76.9824 171.04 76.1033 170.315 75.507C170.097 75.3264 170.066 75.0061 170.243 74.788C170.42 74.57 170.744 74.5393 170.961 74.7165C171.925 75.507 172.476 76.6791 172.476 77.9229C172.476 80.2126 170.614 82.0765 168.33 82.0765Z" fill="#1D232A"/>
<path d="M168.088 50.1875C164.548 54.3275 162.223 52.8419 160.086 48.7053C160.127 48.7053 160.168 48.7019 160.208 48.7019C160.273 48.6985 160.334 48.6985 160.399 48.6985C162.833 48.6712 165.236 49.104 167.492 49.9524C167.693 50.0274 167.894 50.1023 168.088 50.1875Z" fill="#1D232A"/>
<path d="M291.018 131.67C291.631 131.355 292.259 131.258 292.767 131.333C293.276 131.408 293.622 131.645 293.785 131.961C293.947 132.278 293.937 132.698 293.701 133.156C293.466 133.613 293.02 134.067 292.408 134.381C291.795 134.696 291.167 134.794 290.659 134.719C290.15 134.643 289.803 134.406 289.641 134.09C289.479 133.773 289.489 133.353 289.725 132.895C289.96 132.438 290.405 131.985 291.018 131.67Z" fill="#FCFCFC" stroke="#FCFCFC"/>
<mask id="path-109-inside-3_11961_1223" fill="white">
<path d="M321.462 136.749C321.381 136.817 321.282 136.851 321.18 136.851C321.054 136.851 320.928 136.797 320.84 136.691L316.742 131.737C316.724 131.716 316.711 131.696 316.697 131.672C317 131.577 317.303 131.488 317.613 131.406L321.517 136.129C321.673 136.316 321.65 136.592 321.462 136.749Z"/>
</mask>
<path d="M321.462 136.749C321.381 136.817 321.282 136.851 321.18 136.851C321.054 136.851 320.928 136.797 320.84 136.691L316.742 131.737C316.724 131.716 316.711 131.696 316.697 131.672C317 131.577 317.303 131.488 317.613 131.406L321.517 136.129C321.673 136.316 321.65 136.592 321.462 136.749Z" fill="#FCFCFC"/>
<path d="M321.462 136.749L322.103 137.517L322.104 137.516L321.462 136.749ZM320.84 136.691L320.069 137.329L320.073 137.333L320.84 136.691ZM316.742 131.737L317.512 131.099L317.51 131.097L316.742 131.737ZM316.697 131.672L316.397 130.718L315.214 131.091L315.829 132.168L316.697 131.672ZM317.613 131.406L318.384 130.769L317.976 130.276L317.358 130.439L317.613 131.406ZM321.517 136.129L320.746 136.766L320.749 136.77L321.517 136.129ZM321.462 136.749L320.822 135.981C320.924 135.896 321.054 135.851 321.18 135.851V136.851V137.851C321.51 137.851 321.837 137.739 322.103 137.517L321.462 136.749ZM321.18 136.851V135.851C321.342 135.851 321.5 135.922 321.606 136.049L320.84 136.691L320.073 137.333C320.356 137.672 320.766 137.851 321.18 137.851V136.851ZM320.84 136.691L321.61 136.054L317.512 131.099L316.742 131.737L315.971 132.374L320.069 137.329L320.84 136.691ZM316.742 131.737L317.51 131.097C317.523 131.113 317.535 131.128 317.545 131.144C317.555 131.159 317.562 131.17 317.566 131.176L316.697 131.672L315.829 132.168C315.865 132.23 315.911 132.302 315.973 132.377L316.742 131.737ZM316.697 131.672L316.998 132.626C317.287 132.535 317.575 132.45 317.868 132.373L317.613 131.406L317.358 130.439C317.031 130.526 316.713 130.619 316.397 130.718L316.697 131.672ZM317.613 131.406L316.842 132.043L320.746 136.766L321.517 136.129L322.288 135.492L318.384 130.769L317.613 131.406ZM321.517 136.129L320.749 136.77C320.554 136.536 320.582 136.182 320.82 135.982L321.462 136.749L322.104 137.516C322.717 137.003 322.793 136.096 322.284 135.488L321.517 136.129Z" fill="#FCFCFC" mask="url(#path-109-inside-3_11961_1223)"/>
<path d="M318.09 204.719C317.418 205.334 316.691 205.879 315.918 206.347L315.917 206.348C315.782 206.43 315.646 206.508 315.51 206.585L298.007 185.416C298.106 185.297 298.209 185.18 298.313 185.065L298.314 185.064C298.927 184.387 299.598 183.776 300.32 183.237L318.09 204.719Z" fill="#FCFCFC" stroke="#FCFCFC"/>
<path d="M304.474 179.861C304.086 179.973 303.704 180.1 303.327 180.242L300.034 176.259C300.262 176.15 300.492 176.046 300.722 175.948L300.721 175.947C300.848 175.894 300.977 175.844 301.105 175.792L304.474 179.861Z" fill="#FCFCFC" stroke="#FCFCFC"/>
<mask id="path-113-inside-4_11961_1223" fill="white">
<path d="M307.31 179.821C307.228 179.889 307.13 179.924 307.027 179.924C306.902 179.924 306.776 179.869 306.687 179.763L302.589 174.809C302.572 174.789 302.559 174.768 302.545 174.744C302.848 174.649 303.151 174.56 303.46 174.479L307.364 179.201C307.521 179.392 307.494 179.668 307.31 179.821Z"/>
</mask>
<path d="M307.31 179.821C307.228 179.889 307.13 179.924 307.027 179.924C306.902 179.924 306.776 179.869 306.687 179.763L302.589 174.809C302.572 174.789 302.559 174.768 302.545 174.744C302.848 174.649 303.151 174.56 303.46 174.479L307.364 179.201C307.521 179.392 307.494 179.668 307.31 179.821Z" fill="#FCFCFC"/>
<path d="M307.31 179.821L306.669 179.053L306.669 179.053L307.31 179.821ZM306.687 179.763L305.917 180.401L305.921 180.406L306.687 179.763ZM302.589 174.809L303.36 174.172L303.358 174.169L302.589 174.809ZM302.545 174.744L302.245 173.79L301.062 174.163L301.676 175.24L302.545 174.744ZM303.46 174.479L304.231 173.841L303.824 173.348L303.205 173.512L303.46 174.479ZM307.364 179.201L308.138 178.567L308.135 178.564L307.364 179.201ZM307.31 179.821L306.669 179.053C306.772 178.968 306.902 178.924 307.027 178.924V179.924V180.924C307.358 180.924 307.684 180.811 307.951 180.589L307.31 179.821ZM307.027 179.924V178.924C307.19 178.924 307.347 178.994 307.454 179.121L306.687 179.763L305.921 180.406C306.204 180.744 306.614 180.924 307.027 180.924V179.924ZM306.687 179.763L307.458 179.126L303.36 174.172L302.589 174.809L301.819 175.446L305.917 180.401L306.687 179.763ZM302.589 174.809L303.358 174.169C303.371 174.185 303.383 174.201 303.393 174.216C303.403 174.231 303.41 174.243 303.413 174.249L302.545 174.744L301.676 175.24C301.712 175.303 301.758 175.374 301.821 175.449L302.589 174.809ZM302.545 174.744L302.845 175.698C303.135 175.607 303.423 175.523 303.716 175.445L303.46 174.479L303.205 173.512C302.879 173.598 302.561 173.691 302.245 173.79L302.545 174.744ZM303.46 174.479L302.69 175.116L306.594 179.838L307.364 179.201L308.135 178.564L304.231 173.841L303.46 174.479ZM307.364 179.201L306.591 179.836C306.404 179.607 306.427 179.256 306.669 179.053L307.31 179.821L307.951 180.589C308.561 180.08 308.638 179.177 308.138 178.567L307.364 179.201Z" fill="#FCFCFC" mask="url(#path-113-inside-4_11961_1223)"/>
<path d="M311.796 142.207C311.676 142.207 311.557 142.166 311.462 142.081C311.251 141.897 311.227 141.573 311.411 141.359C312.956 139.583 314.934 138.176 317.129 137.283C319.934 136.145 322.976 135.876 325.934 136.506C326.452 136.616 326.989 136.759 327.531 136.936C329.205 137.488 330.744 138.309 332.112 139.376C332.333 139.549 332.374 139.87 332.2 140.091C332.027 140.313 331.707 140.353 331.482 140.18C330.209 139.185 328.773 138.421 327.214 137.904C326.707 137.74 326.207 137.604 325.723 137.501C322.963 136.915 320.124 137.168 317.514 138.227C315.465 139.059 313.62 140.37 312.18 142.026C312.081 142.146 311.939 142.207 311.796 142.207Z" fill="#1D232A"/>
<path d="M319.611 185.284C319.468 185.284 319.328 185.227 319.23 185.111C317.589 183.254 315.469 181.86 313.1 181.08C308.896 179.696 304.233 180.395 300.622 182.954C300.394 183.117 300.074 183.063 299.911 182.831C299.747 182.599 299.802 182.283 300.033 182.119C303.906 179.376 308.91 178.626 313.42 180.109C315.959 180.943 318.232 182.439 319.992 184.433C320.179 184.644 320.159 184.968 319.948 185.155C319.852 185.24 319.73 185.284 319.611 185.284Z" fill="#1D232A"/>
<path d="M311.837 202.083C311.732 202.083 311.63 202.08 311.528 202.073C311.245 202.056 311.031 201.814 311.048 201.531C311.065 201.248 311.306 201.037 311.589 201.05C313.665 201.173 316.334 199.759 317.195 197.169C317.814 195.306 317.542 193.404 316.466 192.086C315.67 191.108 314.523 190.631 313.335 190.774C311.038 191.053 310.044 192.525 308.781 194.392L308.662 194.566C307.3 196.58 305.99 198.26 303.757 198.389C302.283 198.478 300.915 197.841 300 196.645C298.927 195.244 298.665 193.278 299.292 191.384C299.918 189.496 301.558 187.983 303.57 187.434C303.839 187.36 304.121 187.52 304.196 187.792C304.271 188.065 304.111 188.344 303.839 188.419C302.518 188.78 300.885 189.833 300.262 191.704C299.731 193.299 299.932 194.873 300.81 196.021C301.514 196.941 302.569 197.428 303.696 197.367C305.466 197.265 306.562 195.841 307.814 193.994L307.933 193.82C309.285 191.82 310.449 190.096 313.209 189.762C314.758 189.574 316.232 190.188 317.253 191.442C318.549 193.033 318.89 195.295 318.158 197.493C317.191 200.424 314.251 202.083 311.837 202.083Z" fill="#1D232A"/>
<path d="M319.727 198.652C319.673 198.652 319.618 198.646 319.567 198.625L297.539 191.32C297.27 191.231 297.127 190.941 297.216 190.672C297.304 190.403 297.593 190.26 297.862 190.348L319.891 197.654C320.159 197.743 320.302 198.032 320.214 198.301C320.142 198.516 319.942 198.652 319.727 198.652Z" fill="#1D232A"/>
<path d="M51.7903 243.185L40.7047 242.133L42.1478 253.186L37.5155 243.049L28.6762 249.83L35.1295 240.746L24.8438 236.469L35.9294 237.522L34.4862 226.469L39.1186 236.606L47.9578 229.825L41.5045 238.913L51.7903 243.185Z" fill="#E8E9EA"/>
<path d="M6.50433 213.735L4.27155 210.035L0 209.394L3.69634 207.159L4.33622 202.883L6.57241 206.583L10.844 207.224L7.14762 209.459L6.50433 213.735Z" fill="#42EC9A"/>
<path d="M173.544 30.2705C173.347 30.2705 173.16 30.1581 173.078 29.9639C172.966 29.7049 173.081 29.4051 173.34 29.2892L184.974 24.1542C185.232 24.0418 185.532 24.1576 185.648 24.4166C185.76 24.6756 185.644 24.9754 185.385 25.0913L173.752 30.2262C173.684 30.2569 173.612 30.2705 173.544 30.2705Z" fill="#1D232A"/>
<path d="M178.715 25.4828C178.504 25.4828 178.306 25.3499 178.231 25.1387C178.139 24.8729 178.279 24.5798 178.545 24.4878L188.84 20.8896C189.106 20.7976 189.399 20.9373 189.491 21.2031C189.582 21.4689 189.443 21.7619 189.177 21.8539L178.881 25.4521C178.827 25.476 178.769 25.4828 178.715 25.4828Z" fill="#1D232A"/>
<path d="M184.219 232C184.385 231.805 184.677 231.686 185.08 231.722C185.481 231.757 185.949 231.947 186.369 232.305C186.788 232.664 187.047 233.098 187.145 233.489C187.242 233.881 187.17 234.188 187.003 234.383C186.837 234.578 186.546 234.697 186.143 234.661C185.742 234.626 185.274 234.437 184.855 234.078C184.436 233.719 184.176 233.286 184.078 232.894C183.981 232.502 184.053 232.195 184.219 232Z" fill="#FCFCFC" stroke="#FCFCFC"/>
<path d="M120.763 205.865C121.04 205.515 121.532 205.437 121.901 205.672L121.974 205.723C122.323 206 122.401 206.493 122.166 206.863L122.115 206.936C119.054 210.814 117.629 213.044 116.433 215.197C116.271 215.483 115.976 215.646 115.673 215.646C115.566 215.645 115.46 215.626 115.356 215.585L115.254 215.537C114.84 215.306 114.69 214.78 114.922 214.365L114.923 214.364C115.999 212.427 117.253 210.427 119.658 207.285L120.763 205.865Z" fill="#FCFCFC" stroke="#FCFCFC"/>
<path d="M266.774 42.2541C261.988 36.9692 255.181 36.4309 250.276 36.9113C247.802 37.1532 245.807 37.6541 244.807 37.9369L246.018 35.6097L243.717 33.4664L244.912 31.163L242.611 29.0163L243.806 26.7129L241.505 24.5697L242.7 22.2663L240.375 20.1094C244.085 20.5932 247.683 21.5439 250.681 23.4997C251.736 24.188 252.713 24.999 253.598 25.9565L260.494 34.4409L266.774 42.2541Z" fill="#BBBDBF"/>
<path d="M266.773 42.2547C261.987 36.9698 255.18 36.4314 250.275 36.9119L253.597 25.957L260.493 34.4415L266.773 42.2547Z" fill="#1D232A"/>
<path d="M266.821 42.2274L253.598 25.957C255.303 27.797 264.469 41.3687 239.014 63.0671L254.81 72.6487C254.81 72.6487 275.62 54.0511 266.821 42.2274Z" fill="#E8E9EA"/>
<path d="M211.969 35.0205L211.993 35.0137C211.986 35.0239 211.979 35.0341 211.976 35.0443L211.969 35.0205Z" fill="#E8E9EA"/>
<path d="M214.996 30.1084L215.02 30.1016C215.017 30.1118 215.01 30.122 215.003 30.1322L214.996 30.1084Z" fill="#E8E9EA"/>
<path d="M218.029 25.1982L218.053 25.1914C218.046 25.2016 218.039 25.2119 218.036 25.2221L218.029 25.1982Z" fill="#E8E9EA"/>
<path d="M169.266 11.7585H169.256L169.266 11.748V11.7585Z" fill="#E8E9EA"/>
<path d="M172.561 7.47507L172.537 7.47847L172.547 7.46484C172.547 7.46484 172.551 7.46825 172.561 7.47507Z" fill="#E8E9EA"/>
<path d="M221.062 20.2663C221.062 20.2698 221.058 20.2698 221.058 20.2733L221.055 20.2559C221.055 20.2594 221.058 20.2628 221.062 20.2663Z" fill="#E8E9EA"/>
<path d="M221.056 20.257C221.052 20.2535 221.049 20.2535 221.049 20.25H221.052L221.056 20.257Z" fill="#E8E9EA"/>
<path d="M172.595 7.49992C172.578 7.48969 172.567 7.48288 172.561 7.47606L172.591 7.47266L172.595 7.49992Z" fill="#BBBDBF"/>
<path d="M123.939 25.7322L121.781 21.6569L119.177 22.9176L116.961 18.6039L114.358 19.8851L112.142 15.5542L109.545 16.8456L107.326 12.5012L104.705 13.7994C104.722 12.2252 104.633 10.8588 104.45 9.65602C103.997 6.64727 102.969 4.64031 101.591 2.86505C101.325 2.52772 101.053 2.1972 100.767 1.8735C100.719 1.81557 100.668 1.76105 100.617 1.70312L102.081 2.21083L118.445 7.89439C118.993 8.10905 119.851 8.63039 120.739 9.42772C121.692 10.2864 122.683 11.4688 123.36 12.9476C123.81 13.9255 124.133 15.0533 124.334 16.28C124.814 19.1559 124.64 22.5565 123.939 25.7322Z" fill="#BBBDBF"/>
<path d="M118.446 7.89452C116.268 7.09718 113.946 6.56904 111.663 7.04607C107.98 7.81615 104.716 9.96281 101.959 12.5218C96.7104 17.3841 93.0038 23.8923 91.496 30.8911L89.9746 26.7L87.136 27.9676L85.6282 23.9025L82.7861 25.1701L81.2783 21.105L78.4397 22.3726L76.9285 18.3076L74.0898 19.5751C75.9925 14.3243 79.151 9.52667 83.2456 5.72741C86.0026 3.17185 89.2666 1.02178 92.9494 0.251702C94.7124 -0.116298 97.6498 -0.133335 99.2971 0.486813L118.446 7.89452Z" fill="#E8E9EA"/>
<path d="M64.7261 73.8898C54.5288 87.3627 38.6475 91.9456 17.7186 88.6268L20.0466 86.061L16.8336 83.0727L19.1379 80.5342L15.9248 77.5459L18.2325 75.0074L15.0161 72.0191L17.3237 69.4806L14.0801 66.4685C28.811 70.0735 42.6672 67.5316 51.6289 55.6602L51.6051 60.2908L54.8896 60.2397L54.8692 64.8397L58.1537 64.7886L58.1333 69.3886L61.4212 69.3375L61.3973 73.9375L64.7261 73.8898Z" fill="#E8E9EA"/>
</svg>
