<svg width="160" height="160" viewBox="0 0 160 160" fill="none" xmlns="http://www.w3.org/2000/svg">
<path d="M154.303 87.1575L154.049 88.9038L153.644 91.6883L152.099 102.301L149.077 123.076C148.749 125.329 146.796 127.003 144.492 127.003H96.8809L98.202 117.924L99.746 107.31L100.151 104.525L100.63 101.231L102.868 85.8545C103.195 83.5995 105.149 81.9258 107.453 81.9258H149.717C152.023 81.9258 153.888 83.5731 154.276 85.6817C154.363 86.1555 154.376 86.6516 154.303 87.1575Z" fill="#00A868"/>
<path d="M147.231 120.846H101.35C101.233 120.846 101.139 120.752 101.139 120.637C101.139 120.521 101.233 120.428 101.35 120.428H147.231C147.348 120.428 147.443 120.521 147.443 120.637C147.443 120.752 147.348 120.846 147.231 120.846Z" fill="#1D232A"/>
<path d="M37.204 84.5058C37.6933 82.1255 39.8097 80.4141 42.2673 80.4141H68.3437C68.3437 80.4141 77.7342 80.4642 74.3685 96.3141C71.0029 112.164 68.3437 113.215 63.9149 113.215H37.6313C34.3657 113.215 31.918 110.256 32.568 107.093L37.204 84.5058Z" fill="#FCFCFC" stroke="#FCFCFC" stroke-width="0.421954" stroke-miterlimit="10"/>
<path d="M45.8549 88.4336L50.3542 111.957L43.0547 113.639L45.8549 88.4336Z" fill="#1D232A"/>
<path d="M33.9709 127.005H8.1582V97.7045C8.1582 93.8567 11.3152 90.7363 15.2082 90.7363H33.9709V127.005Z" fill="#E8E9EA"/>
<path d="M40.9722 59.9928C38.6936 53.2893 37.6206 48.282 37.7081 45.0334C37.8166 41.0169 39.8964 39.3 42.7234 40.7256C46.8702 28.4463 56.664 27.6059 56.5526 35.8813C59.8999 32.9045 63.8789 32.1324 62.9737 39.2818C66.9766 38.323 67.1924 43.9101 63.8281 52.7305C54.5631 61.8881 40.9722 59.9928 40.9722 59.9928Z" fill="#1D232A"/>
<path d="M81.3403 83.1252V112.704C81.3403 114.242 80.0784 115.491 78.5204 115.491H30.5892C28.9282 115.491 27.6282 114.079 27.7819 112.446L27.9469 110.687L28.1146 108.909L28.3106 106.813L28.3501 106.398L29.8221 90.7359L30.561 82.8674C30.6949 81.4347 31.9117 80.3379 33.3683 80.3379H78.5204C80.0784 80.3379 81.3403 81.5866 81.3403 83.1252Z" fill="#00A868"/>
<path d="M38.1839 100.655C39.0186 104.277 39.8533 107.901 40.688 111.523C40.8078 112.04 40.9263 112.557 41.0461 113.075C41.1279 113.431 41.6496 113.275 41.5904 112.928C40.8515 108.593 40.1127 104.259 39.3725 99.9249C39.2667 99.3075 39.1624 98.6888 39.0566 98.0714C38.8747 98.1201 38.6943 98.1703 38.5124 98.2191C39.6108 102.335 40.7091 106.45 41.8075 110.565C41.9654 111.156 42.1219 111.746 42.2799 112.337C42.3729 112.684 42.9172 112.536 42.8241 112.189C41.7257 108.074 40.6274 103.958 39.529 99.8427C39.3711 99.2518 39.2146 98.6623 39.0566 98.0714C38.9622 97.7188 38.4532 97.8721 38.5124 98.2191C39.2512 102.553 39.99 106.888 40.7303 111.222C40.836 111.839 40.9404 112.458 41.0461 113.075C41.228 113.027 41.4085 112.976 41.5904 112.928C40.7557 109.306 39.921 105.682 39.0862 102.06C38.9664 101.543 38.848 101.026 38.7281 100.507C38.6477 100.158 38.1035 100.305 38.1839 100.655Z" fill="#1D232A"/>
<path d="M37.7016 99.5488L37.2871 111.409L40.994 114.25C40.0761 109.311 39.082 104.537 38.1641 99.5976L37.7016 99.5488Z" fill="#1D232A"/>
<path d="M45.7363 80.3379H61.5747C61.5747 80.3379 61.947 87.2016 55.4314 87.6336C47.269 88.1757 45.7363 80.3379 45.7363 80.3379Z" fill="#E09661"/>
<path d="M61.262 81.1964C60.9842 81.6423 60.6571 82.0535 60.2877 82.4228C59.9127 82.7977 59.4925 83.1307 59.037 83.4109C57.2971 84.4854 55.0877 84.7111 53.1588 84.0227C51.4147 83.3997 50.0103 82.0799 49.2545 80.4159C49.2433 80.3908 49.232 80.3644 49.2207 80.3379H49.8496C49.8608 80.3644 49.8735 80.3908 49.8876 80.4159C50.2585 81.1643 50.7914 81.8333 51.4302 82.3768C52.8303 83.5739 54.7747 84.0826 56.5935 83.7467C57.2746 83.6213 57.9246 83.3802 58.521 83.0443C57.1378 83.7035 55.5191 83.9321 54.0189 83.6143C52.2917 83.2478 50.8478 81.9726 50.0991 80.4159C50.0921 80.4006 50.085 80.3867 50.078 80.3713C50.0723 80.3602 50.0681 80.349 50.0639 80.3379H50.7068C50.7195 80.3644 50.7336 80.3895 50.7491 80.4159C51.0833 81.0263 51.5274 81.5824 52.0661 82.0284C51.574 81.5573 51.158 81.0068 50.8351 80.4159C50.8337 80.4131 50.8323 80.4118 50.8309 80.409C50.8182 80.3853 50.8084 80.3616 50.8027 80.3379H59.5489H61.0308C61.0576 80.3588 61.0815 80.3867 61.0985 80.4159C61.1675 80.5246 61.1718 80.6696 61.059 80.7602C61.0519 80.7657 61.0449 80.7699 61.0378 80.7755C61.2225 80.8006 61.3875 80.9929 61.262 81.1964Z" fill="#1D232A"/>
<path d="M86.428 109.021C85.9147 111.085 85.2563 112.848 84.4906 114.349C84.3764 114.571 84.2622 114.787 84.1438 114.996C79.3893 123.498 71.0153 122.91 67.2916 121.663C66.4272 121.373 65.8125 121.048 65.553 120.793C63.8596 119.129 63.0813 117.31 62.843 115.492C62.7429 114.729 62.7373 113.969 62.7993 113.217C62.8416 112.695 62.9178 112.179 63.0165 111.672C63.1194 111.144 63.2477 110.624 63.3901 110.119L63.4451 109.931C63.4916 109.774 63.5382 109.618 63.5875 109.464C63.6087 109.396 63.6298 109.328 63.6524 109.259C63.9598 108.308 64.301 107.418 64.5971 106.624C64.638 106.517 64.6774 106.411 64.7155 106.306C64.7804 106.131 64.8424 105.961 64.9002 105.796C64.9538 105.644 65.013 105.446 65.0765 105.207C66.0381 101.589 68.053 88.6474 68.4703 86.6155C68.4901 86.5263 68.5042 86.458 68.5168 86.412C68.5056 86.4719 68.4689 86.5319 68.4111 86.5918C67.8133 87.2022 64.9482 87.6621 63.7342 85.088C63.6622 84.9361 63.596 84.7745 63.5368 84.6003C63.4677 84.6198 63.3986 84.6337 63.3281 84.6449C62.2734 84.7954 61.0806 83.8993 60.2867 82.4234C59.9709 81.8367 59.7185 81.158 59.5634 80.4165C59.5578 80.3901 59.5521 80.365 59.5479 80.3385C59.5211 80.2089 59.4985 80.0765 59.4802 79.9427C59.3618 79.1441 59.359 78.2843 59.5056 77.3979C59.5169 77.3408 59.5267 77.2836 59.538 77.2265C59.5394 77.2153 59.5408 77.2042 59.5437 77.193C59.5126 77.2195 59.4816 77.2474 59.452 77.2753C59.4295 77.2934 59.4083 77.3129 59.3872 77.3324C58.7343 77.9136 58.1125 78.5323 57.3779 79.0104C56.5869 79.5246 55.6267 79.8647 54.6933 79.7016C54.0616 79.5901 53.4694 79.1999 53.1014 78.6731C53.0704 78.6299 53.0408 78.5839 53.014 78.5379C52.8843 78.3219 52.7912 78.085 52.7489 77.8383C51.8832 72.8435 58.6652 68.6751 64.7353 67.634C65.2964 67.5365 65.8506 67.4668 66.3934 67.4264C66.4625 67.4194 66.5316 67.4111 66.6035 67.4055C71.4116 66.9595 82.8579 68.7266 84.8544 85.8601C85.7286 93.3705 86.1586 99.8286 86.3419 104.005C86.349 104.163 86.356 104.318 86.3617 104.468C86.3631 104.485 86.3631 104.502 86.3631 104.518C86.4731 107.207 86.4745 108.833 86.428 109.021Z" fill="#E09661"/>
<path d="M72.0967 103.686C70.5302 104.242 68.9637 104.798 67.3972 105.354C66.5033 105.671 65.6107 105.988 64.7168 106.306C64.7817 106.13 64.8437 105.96 64.9015 105.796C64.9551 105.644 65.0143 105.446 65.0778 105.206L71.8499 102.802C72.1263 102.705 72.3251 102.868 72.3899 103.083C72.4576 103.305 72.3801 103.586 72.0967 103.686Z" fill="#1D232A"/>
<path d="M74.7419 102.482L65.2301 109.723L63.6523 109.259C63.9597 108.307 64.3009 107.418 64.597 106.623C65.5304 106.198 66.4625 105.776 67.3945 105.354H67.3959C69.0568 104.601 70.7192 103.849 72.3886 103.082C73.0683 102.77 73.7493 102.456 74.4317 102.139L74.7419 102.482Z" fill="#1D232A"/>
<path d="M67.0286 59.3458C66.9285 59.5507 66.8129 59.7486 66.686 59.9395C66.5055 60.2057 66.3025 60.4565 66.0755 60.6865C65.9049 60.8593 65.7258 61.0196 65.534 61.1673C65.441 61.2398 65.3437 61.3067 65.245 61.3722C65.0434 61.5074 64.8333 61.6272 64.6105 61.7359H64.6077C64.5611 61.7596 64.5132 61.7791 64.4653 61.8028C64.2354 61.9032 63.9986 61.9896 63.7532 62.0565C63.5544 62.1122 63.3514 62.1582 63.1427 62.1902L60.726 62.5721L59.0664 52.3316L61.4817 51.9497C62.2318 51.8299 62.9678 51.8745 63.6559 52.0557C65.5975 52.5643 67.1555 54.1601 67.4939 56.2491C67.673 57.3459 67.4897 58.419 67.0286 59.3458Z" fill="#E09661"/>
<path d="M65.2466 61.3717C65.0449 61.5069 64.8348 61.6268 64.6121 61.7355H64.6092C64.3089 61.4846 64.0029 61.2421 63.6927 61.0052C63.9508 61.27 64.2102 61.5362 64.4682 61.8024C64.2384 61.9027 64.0015 61.9891 63.7562 62.056C63.0047 61.2839 62.2545 60.5133 61.5002 59.7398C61.3592 59.5976 61.386 59.4179 61.4833 59.2966C61.4833 59.0569 61.73 58.8214 61.9923 58.9872C63.133 59.7077 64.2187 60.5035 65.2466 61.3717Z" fill="#1D232A"/>
<path d="M66.0752 60.6864C65.9046 60.8592 65.7256 61.0195 65.5338 61.1672C63.9983 60.2822 62.5361 59.2816 61.1487 58.1806C60.8033 57.9061 61.2968 57.4253 61.638 57.6984C63.0381 58.8064 64.5214 59.8056 66.0752 60.6864Z" fill="#1D232A"/>
<path d="M67.0278 59.3475C66.9277 59.5524 66.8121 59.7503 66.6852 59.9412C64.9396 58.9838 63.1955 58.0305 61.4485 57.0731C61.0622 56.8612 61.3653 56.248 61.7531 56.4599C63.5113 57.4229 65.2696 58.3859 67.0278 59.3475Z" fill="#1D232A"/>
<path d="M55.9563 78.4823C50.2557 79.3854 44.8935 75.5487 43.9813 69.917L40.72 49.8095C40.6466 49.3594 40.6043 48.9106 40.5902 48.4674C40.5522 47.1504 40.7679 45.8725 41.2008 44.6851C42.4472 41.2595 45.4928 38.5879 49.3857 37.9733C49.4929 37.9566 49.5987 37.9412 49.7044 37.9287C50.0752 37.8813 50.4418 37.8548 50.8056 37.8451C51.8039 37.82 52.7824 37.9398 53.7158 38.1851C53.8187 38.2116 53.9245 38.2423 54.026 38.2729C54.284 38.3496 54.5378 38.4346 54.7874 38.5293C58.1488 39.8087 60.7531 42.7702 61.3622 46.54L64.6235 66.6475C65.5357 72.2806 61.6541 77.5793 55.9563 78.4823Z" fill="#E09661"/>
<path d="M41.677 64.9039L44.0275 64.5318L42.4116 54.5645L40.0612 54.9366C37.2764 55.3783 35.38 57.9663 35.827 60.7188C36.2725 63.4712 38.8923 65.3457 41.677 64.9039Z" fill="#E09661"/>
<path d="M41.0664 62.4491C41.0353 62.4491 41.0043 62.4422 40.9747 62.4282C40.869 62.378 40.8253 62.2526 40.876 62.1495C41.2384 61.4081 41.2454 60.5147 40.8943 59.7594C40.618 59.1657 39.9962 58.3797 38.6031 58.0145C38.4903 57.9853 38.4227 57.871 38.4523 57.7595C38.4819 57.648 38.5989 57.5811 38.7103 57.6104C40.2627 58.0173 40.9634 58.9079 41.2779 59.5838C41.6811 60.452 41.6727 61.4791 41.2553 62.3307C41.2201 62.4059 41.1453 62.4491 41.0664 62.4491Z" fill="#1D232A"/>
<path d="M59.5441 77.4009C59.5272 77.4009 59.5103 77.3996 59.4933 77.3954C59.3805 77.3675 59.31 77.2546 59.3382 77.1431C59.7852 75.3384 61.8057 69.4851 69.0559 69.9742C69.173 69.9826 69.2604 70.0815 69.2519 70.1972C69.2435 70.3129 69.1391 70.4007 69.0263 70.3909C62.1061 69.9241 60.1744 75.5167 59.7472 77.2421C59.7246 77.3368 59.6386 77.4009 59.5441 77.4009Z" fill="#1D232A"/>
<path d="M68.5187 86.622C68.4651 86.622 68.4115 86.6025 68.3692 86.5621C68.286 86.4813 68.286 86.3489 68.3678 86.2666C69.2603 85.3761 69.3477 84.6054 69.4676 83.5393C69.4817 83.4152 69.4958 83.287 69.5127 83.156C69.806 80.759 70.972 80.1011 72.1874 79.7472C72.2988 79.7137 72.4173 79.7778 72.4497 79.8879C72.4821 79.998 72.4187 80.1151 72.3073 80.1471C71.0623 80.5095 70.1824 81.1687 69.9343 83.2048C69.9188 83.3358 69.9047 83.4612 69.8906 83.5839C69.7651 84.6918 69.6664 85.5656 68.6709 86.5593C68.6272 86.6011 68.5737 86.622 68.5187 86.622Z" fill="#1D232A"/>
<path d="M18.8555 109.788L17.8728 115.792C17.1847 120.052 18.8499 127.002 29.6434 127.002H67.2929V111.671H37.8946C37.8946 111.671 35.4469 107.019 18.8555 109.788Z" fill="#E09661"/>
<path d="M66.8416 127.003C70.1508 127.003 70.7853 127.003 73.7181 127.003C76.7848 127.003 80.4889 126.238 81.8199 125.663C88.6062 122.723 88.7486 119.33 88.1663 116.789C89.3309 115.142 89.4776 112.727 87.8758 111.772C87.935 111.672 88.0365 111.577 88.107 111.488C88.3482 111.18 88.5752 110.861 88.781 110.528C89.204 109.843 89.5354 109.095 89.6792 108.302C89.9245 106.949 89.5382 105.421 88.4468 104.57C88.2678 104.43 88.0718 104.311 87.8532 104.248C87.6474 104.189 87.4274 104.185 87.2145 104.206C86.5857 104.269 86.0696 104.6 85.5719 104.985C81.9059 107.828 77.6153 109.499 73.2429 111.092C73.9578 110.431 74.6712 109.77 75.3861 109.109C76.2081 108.348 77.0386 107.577 77.6195 106.648C78.199 105.72 78.5092 104.6 78.2075 103.566C77.9058 102.534 76.8877 101.643 75.7189 101.635C74.7446 101.628 73.8873 102.189 73.1174 102.737C68.6238 105.94 64.47 109.567 59.6562 112.353L66.8416 127.003Z" fill="#E09661"/>
<path d="M18.8555 109.788C18.8555 109.788 21.3089 98.324 23.5084 88.8095C24.6237 83.9834 28.6098 80.3125 33.3713 80.3125C38.1004 80.3125 40.7653 83.6726 40.3874 89.2681L37.896 111.671L18.8555 109.788Z" fill="#00A868"/>
<path d="M70.1215 111.826C70.0143 111.826 69.9227 111.747 69.9114 111.64C69.8987 111.525 69.9833 111.422 70.0989 111.41C75.5909 110.824 83.0187 106.636 86.5395 103.851C86.6311 103.778 86.7637 103.793 86.837 103.883C86.9103 103.973 86.8948 104.104 86.8045 104.177C83.2443 106.995 75.7206 111.231 70.1441 111.825C70.137 111.826 70.1286 111.826 70.1215 111.826Z" fill="#1D232A"/>
<path d="M80.9111 116.364C80.8237 116.364 80.7419 116.31 80.7109 116.225C80.6729 116.116 80.7307 115.996 80.8406 115.958C85.1735 114.462 87.9864 112.19 88.8522 110.604C88.9071 110.502 89.0355 110.465 89.1384 110.519C89.2413 110.573 89.2794 110.7 89.2244 110.802C87.9695 113.103 84.1795 115.248 80.9802 116.353C80.9577 116.361 80.9337 116.364 80.9111 116.364Z" fill="#1D232A"/>
<path d="M81.5371 121.853C81.4398 121.853 81.3524 121.786 81.3313 121.688C81.3059 121.575 81.3778 121.464 81.492 121.439C86.1393 120.428 88.4461 116.696 88.9424 115.343C88.9819 115.234 89.1031 115.178 89.2131 115.218C89.3231 115.257 89.3795 115.376 89.34 115.485C88.6942 117.242 86.2437 120.833 81.5822 121.847C81.5667 121.851 81.5512 121.853 81.5371 121.853Z" fill="#1D232A"/>
<path d="M63.6649 85.1C63.5846 85.1 63.507 85.054 63.4718 84.9774C62.3423 82.519 62.441 79.7457 63.734 77.559C65.0115 75.4003 67.2985 74.0763 70.1763 73.831C70.2891 73.8199 70.3948 73.9063 70.4047 74.022C70.4146 74.1376 70.3286 74.238 70.2115 74.2477C67.4747 74.4819 65.3033 75.7334 64.0978 77.7709C62.8739 79.8404 62.7823 82.4702 63.8553 84.8046C63.9032 84.9091 63.8567 85.0331 63.7495 85.0819C63.7241 85.0945 63.6945 85.1 63.6649 85.1Z" fill="#1D232A"/>
<path d="M52.9906 78.7034C52.9173 78.7034 52.8454 78.6658 52.8059 78.5975C52.6734 78.3662 52.5845 78.1223 52.5422 77.8728C52.2588 76.2381 52.7354 74.6242 53.9579 73.0745C56.3478 70.0447 61.5718 67.5807 66.3799 67.2156C66.4913 67.2058 66.5985 67.2922 66.6069 67.4079C66.6154 67.5236 66.528 67.6239 66.4123 67.6323C61.7128 67.9891 56.6157 70.3847 54.2921 73.3309C53.1457 74.7845 52.6973 76.2882 52.9596 77.8017C52.9949 78.0038 53.0668 78.2031 53.1753 78.3926C53.2331 78.493 53.1965 78.6212 53.095 78.6769C53.0611 78.6951 53.0259 78.7034 52.9906 78.7034Z" fill="#1D232A"/>
<path d="M60.45 112.097C60.3823 112.097 60.3146 112.063 60.2737 112.004C60.2088 111.907 60.2356 111.778 60.3329 111.714C62.7609 110.118 65.674 107.958 68.4925 105.87C70.1084 104.673 71.634 103.541 72.9932 102.573C73.491 102.217 74.4032 101.7 75.3366 101.409C76.631 101.005 77.673 101.128 78.3512 101.764C79.5567 102.896 79.3678 104.581 77.79 106.773C77.4939 107.184 75.9147 109.315 73.8815 110.921C73.7899 110.993 73.6573 110.978 73.584 110.887C73.5107 110.797 73.5262 110.666 73.6179 110.593C75.6074 109.024 77.1541 106.933 77.4446 106.531C78.9011 104.506 79.1027 103.047 78.0593 102.067C76.772 100.859 74.1424 102.266 73.2386 102.911C71.8822 103.879 70.358 105.007 68.7435 106.203C65.9207 108.295 63.002 110.458 60.5642 112.061C60.5317 112.086 60.4908 112.097 60.45 112.097Z" fill="#1D232A"/>
<path d="M42.1581 54.6243L42.316 48.8491C42.316 48.8491 48.637 55.8229 53.2872 43.0055C53.2872 43.0055 55.8068 48.6414 62.7595 46.4367C61.7795 42.6376 59.1372 37.233 55.2936 36.7425C51.4499 36.2519 47.6077 35.6401 43.5779 39.8057C39.5482 43.9713 39.3705 46.1161 39.8936 49.3633C40.1503 50.9549 40.9286 54.818 40.9286 54.818L42.1581 54.6243Z" fill="#1D232A"/>
<path d="M50.7168 53.4111H50.7178C51.0467 53.4099 51.3585 53.4916 51.6309 53.6396V53.6387C51.7372 53.6968 51.8364 53.7635 51.9277 53.8379C52.2525 54.1042 52.4858 54.4746 52.5723 54.9043L52.6006 55.0928C52.6609 55.7294 52.3905 56.3214 51.9268 56.7002H51.9258C51.7166 56.8716 51.4676 56.9987 51.1934 57.0664L51.0752 57.0918C51.015 57.1024 50.9599 57.1106 50.9072 57.1152L50.9062 57.1162L46.2695 57.5508C45.7493 57.5986 45.262 57.4364 44.8916 57.1328C44.5204 56.8285 44.2683 56.3861 44.2188 55.876C44.1202 54.8598 44.8757 53.9516 45.9131 53.8545L50.5488 53.4199L50.5527 53.4189L50.7168 53.4111Z" fill="#FCFCFC" stroke="#FCFCFC" stroke-width="0.513638"/>
<path d="M52.8562 55.0678C52.7998 54.4866 52.5122 53.9849 52.0906 53.6393C51.9863 53.5543 51.8735 53.479 51.7536 53.4135C51.4434 53.2449 51.0895 53.1529 50.7173 53.1543C50.6538 53.1543 50.5904 53.1571 50.5255 53.1641L48.4824 53.355L48.8857 57.561L50.9288 57.3701C50.9922 57.3645 51.0557 57.3548 51.1191 57.3436C51.4843 57.2781 51.8156 57.1206 52.0878 56.8976C52.6165 56.4684 52.9253 55.7939 52.8562 55.0678Z" fill="#1D232A"/>
<path d="M60.748 51.2656C61.0718 51.2129 61.3919 51.2456 61.6846 51.3496V51.3506C61.798 51.3912 61.9065 51.4417 62.0098 51.502C62.4248 51.7452 62.7434 52.1415 62.8721 52.6377C63.0127 53.1799 62.8966 53.727 62.5977 54.1533L62.459 54.3281C62.2535 54.5581 61.9882 54.7391 61.6797 54.8457L61.6777 54.8467C61.6241 54.8656 61.5703 54.8827 61.5186 54.8955H61.5166L57.0059 56.0371C56.5012 56.1648 55.9938 56.0789 55.5791 55.8359C55.2161 55.6232 54.9264 55.292 54.7734 54.8799L54.7168 54.6982C54.46 53.7099 55.0628 52.697 56.0723 52.4414L60.583 51.3008L60.5859 51.2998C60.6369 51.2861 60.6916 51.2753 60.7471 51.2666L60.748 51.2656Z" fill="#FCFCFC" stroke="#FCFCFC" stroke-width="0.513638"/>
<path d="M63.1208 52.5734C62.9741 52.0076 62.6104 51.556 62.1394 51.2801C62.0224 51.2118 61.8997 51.1546 61.7714 51.1087C61.4387 50.9902 61.0749 50.9526 60.7069 51.0125C60.6448 51.0222 60.5814 51.0348 60.5193 51.0515L58.5312 51.5546L59.5916 55.6478L61.5797 55.1447C61.6417 55.1293 61.7037 55.1098 61.7629 55.0889C62.114 54.9677 62.4158 54.7614 62.6498 54.4994C63.1038 53.9935 63.3041 53.28 63.1208 52.5734Z" fill="#1D232A"/>
<path d="M54.3879 53.3789C54.3879 53.3789 56.1701 57.3104 56.4098 57.9445C56.8314 59.0594 56.1729 60.4293 54.997 60.6857C54.5486 60.7833 53.0371 60.7722 53.0371 60.7722L54.3879 53.3789Z" fill="#E09661"/>
<path d="M53.181 60.9835C53.0992 60.9835 53.0456 60.9835 53.0343 60.9835C52.9173 60.9821 52.8228 60.8887 52.8242 60.7731C52.8256 60.6588 52.9201 60.5654 53.0357 60.5654H53.0371C53.4503 60.5682 54.6008 60.5598 54.9505 60.4832C55.4257 60.3801 55.8261 60.0693 56.0785 59.6094C56.3506 59.1146 56.3999 58.5209 56.2096 58.0192C55.9755 57.3977 54.2117 53.5052 54.1933 53.4662C54.1454 53.3603 54.1933 53.2376 54.3005 53.1903C54.4076 53.1429 54.5317 53.1903 54.5797 53.2962C54.653 53.4564 56.3661 57.2416 56.6058 57.8743C56.837 58.4875 56.7792 59.2108 56.4493 59.8101C56.1419 60.3703 55.6273 60.7647 55.0407 60.8929C54.6558 60.9751 53.5772 60.9835 53.181 60.9835Z" fill="#1D232A"/>
<path d="M56.6209 49.9605C57.5813 49.3606 58.0658 48.4144 57.703 47.847C57.3403 47.2797 56.2677 47.3061 55.3073 47.906C54.3469 48.5059 53.8624 49.4521 54.2252 50.0194C54.5879 50.5868 55.6605 50.5604 56.6209 49.9605Z" fill="#1D232A"/>
<path d="M53.0898 63.7325C51.7842 63.4245 50.7464 62.7403 49.9766 61.6797L53.0898 63.7325Z" fill="#E09661"/>
<path d="M53.0899 63.9417C53.073 63.9417 53.0575 63.9403 53.0406 63.9362C51.6898 63.6184 50.6013 62.8993 49.8032 61.8011C49.7356 61.7077 49.7567 61.5767 49.8512 61.5098C49.9457 61.4429 50.0782 61.4638 50.1459 61.5572C50.8819 62.5718 51.8886 63.2352 53.1364 63.5292C53.2506 63.5557 53.3197 63.6686 53.2929 63.7815C53.2718 63.8776 53.1858 63.9417 53.0899 63.9417Z" fill="#1D232A"/>
<path d="M37.8944 111.599C37.8873 111.599 37.8789 111.599 37.8704 111.598C37.7548 111.585 37.6702 111.482 37.6829 111.368L39.561 94.4266C39.5737 94.3123 39.678 94.2301 39.7936 94.2412C39.9093 94.2538 39.9939 94.3569 39.9812 94.4712L38.1031 111.412C38.0918 111.52 38.0001 111.599 37.8944 111.599Z" fill="#1D232A"/>
<path d="M32.9366 107.335C32.9281 107.335 32.9211 107.335 32.9126 107.334L20.0253 105.876C19.9097 105.863 19.8265 105.759 19.8392 105.644C19.8519 105.53 19.9562 105.447 20.0732 105.461L32.9605 106.918C33.0762 106.931 33.1593 107.035 33.1466 107.15C33.134 107.257 33.0423 107.335 32.9366 107.335Z" fill="#1D232A"/>
<path d="M99.0469 127.001V125.875L149.075 123.074C149.028 123.478 148.38 127.001 144.489 127.001C140.599 127.001 99.0469 127.001 99.0469 127.001Z" fill="#1D232A"/>
<path d="M98.6462 127H61.5395C58.9803 127 56.9062 124.949 56.9062 122.42V121.332C56.9062 120.947 57.2221 120.635 57.6112 120.635H98.6462C100.424 120.635 101.867 122.059 101.867 123.818C101.867 125.575 100.424 127 98.6462 127Z" fill="#42EC9A"/>
</svg>
