<svg width="375" height="375" viewBox="0 0 375 375" fill="none" xmlns="http://www.w3.org/2000/svg">
<g clip-path="url(#clip0_11961_7241)">
<path d="M159.526 77.6596C160.101 76.0226 161.022 74.4653 162.378 73.3829C163.734 72.2971 165.563 71.7326 167.255 72.1244C168.744 72.4698 170.004 73.5124 170.875 74.7708C171.742 76.0293 172.258 77.4936 172.673 78.9645C173.537 77.6928 175.333 77.2578 176.792 77.7393C178.251 78.2207 179.368 79.4725 179.977 80.8837C180.585 82.2949 180.741 83.8588 180.761 85.3929C182.599 86.2628 184.062 87.8965 184.727 89.8157C185.392 91.7349 185.249 93.9197 184.341 95.7393C181.539 94.959 178.737 94.1787 175.934 93.3984C173.132 92.6181 170.33 91.8378 167.527 91.0575C166.211 90.6889 164.885 90.3469 163.575 89.9518C162.794 89.7161 162.006 89.4438 161.304 89.0155C160.091 88.275 159.519 87.0896 159.217 85.7415C158.688 83.4006 158.612 80.9568 159.23 78.6258C159.316 78.3004 159.413 77.9783 159.526 77.6596Z" fill="#8F5049"/>
<path d="M191.765 251.094L189.532 424.45H35.6289L77.0267 296.97C79.3153 285.719 95.9545 272.401 103.364 270.121L191.765 251.094Z" fill="#1D232A"/>
<path d="M177.18 182.103L168.673 263.57L94.1638 223.184C85.8034 218.621 83.9518 207.432 90.3941 200.419L117.118 170.694C121.755 165.578 125.132 164.293 129.251 164.146L132.369 164.156L157.766 164.253L171.572 164.303C177.369 165.199 177.788 176.269 177.18 182.103Z" fill="#008E5A"/>
<path d="M144.758 221.636L130.746 241.499C130.746 241.499 148.584 251.567 148.434 251.069C148.285 250.571 149.332 214.594 149.332 214.594L144.758 221.636Z" fill="#1D232A"/>
<path d="M108.661 126.952C108.275 129.034 107.314 130.953 106.423 132.872C105.981 133.825 105.562 134.788 105.167 135.761C104.661 136.996 104.186 138.245 103.751 139.503C102.684 142.551 101.809 145.672 101.105 148.833C101.071 148.97 101.041 149.109 101.008 149.252C97.9732 163.101 98.0263 177.758 98.7776 191.245L54.4258 195.007L72.9018 144.603C79.9758 140.984 83.8718 133.247 88.9545 127.088C89.7291 126.142 90.5302 125.238 91.3779 124.388C93.1863 122.582 95.1875 121.035 97.5344 119.942C100.769 118.441 105.134 118.206 107.417 120.938C108.777 122.562 109.046 124.873 108.661 126.952Z" fill="#E09661"/>
<path d="M103.748 139.503C102.681 142.551 101.807 145.673 101.102 148.834C101.069 148.97 101.039 149.109 101.005 149.252L88.9551 127.088C89.7296 126.142 90.5308 125.239 91.3784 124.389L103.748 139.503Z" fill="#1D232A"/>
<path d="M168.692 296.656C165.883 296.689 163.058 296.231 160.345 295.255L87.8838 269.253C75.4944 264.807 69.0588 251.173 73.5099 238.798C77.961 226.423 91.6136 219.994 104 224.44L145.536 239.346L147.055 187.401C147.441 174.259 158.421 163.916 171.575 164.297C184.732 164.683 195.087 175.647 194.705 188.789L192.225 273.546C192.002 281.17 188.136 288.226 181.826 292.522C177.901 295.199 173.32 296.6 168.692 296.656Z" fill="#E09661"/>
<path d="M148.045 181.256L147.4 183.979C147.56 183.049 147.779 182.142 148.045 181.256Z" fill="#E09661"/>
<path d="M79.6329 274.433C67.157 274.586 57.2342 270.276 52.8595 251.11C48.4849 231.945 49.7248 174.764 49.7248 174.764C48.7342 161.651 58.5706 150.219 71.6979 149.23C84.8253 148.234 96.2673 158.065 97.2612 171.178L103.132 248.833C104.122 261.945 94.2861 273.374 81.1587 274.367C80.6501 274.407 80.1381 274.426 79.6329 274.433Z" fill="#E09661"/>
<path d="M52.8594 251.11L103.132 248.832C104.122 261.944 94.2859 273.373 81.1585 274.366C80.6499 274.406 52.8594 251.11 52.8594 251.11Z" fill="#1D232A"/>
<path d="M53.3239 106.491C54.4375 108.61 55.9234 110.954 57.8515 113.564L34.8777 121.729L34.881 121.716L31.7363 120.504L30.257 123.366L27.7672 122.011L25.6297 125.013L25.6197 125.016C17.9674 104.459 29.5091 99.3093 29.5689 99.2894L53.8491 88.9629C53.4535 89.4576 53.0845 89.9524 52.7488 90.4637C52.6823 90.5633 52.6125 90.6696 52.5493 90.7725C52.4163 90.9784 52.2933 91.1843 52.177 91.3968C51.8213 92.0243 51.5188 92.6751 51.2728 93.3492C51.193 93.5716 51.1199 93.8008 51.0501 94.0299C50.8805 94.6076 50.7576 95.2053 50.6811 95.8229C50.6645 95.9458 50.6512 96.0719 50.6412 96.1981C50.6279 96.3243 50.6179 96.4505 50.6146 96.5833C50.5149 98.3066 50.7841 100.216 51.5221 102.387C51.5587 102.507 51.6019 102.626 51.6484 102.746C51.7515 103.032 51.8612 103.327 51.9809 103.619C52.0307 103.749 52.0839 103.882 52.1438 104.011C52.2003 104.147 52.2568 104.28 52.3166 104.416C52.433 104.682 52.556 104.951 52.6889 105.223C52.7421 105.336 52.7953 105.452 52.8551 105.568C52.9582 105.784 53.0712 106 53.1809 106.222C53.2275 106.309 53.274 106.395 53.3172 106.488L53.3239 106.491Z" fill="#BBBDBF"/>
<path d="M53.3232 106.491C54.4369 108.61 23.8008 106.701 23.8008 106.701C25.5427 101.079 29.5317 99.2994 29.5683 99.2894L53.8485 88.9629C53.4529 89.4576 53.0839 89.9524 52.7482 90.4637C52.6817 90.5633 52.6119 90.6696 52.5487 90.7725C52.4157 90.9784 52.2927 91.1843 52.1764 91.3968C51.8207 92.0243 51.5182 92.6751 51.2722 93.3492C51.1924 93.5716 51.1193 93.8008 51.0495 94.0299C50.8799 94.6076 50.7569 95.2053 50.6805 95.8229C50.6639 95.9458 50.6506 96.0719 50.6406 96.1981C50.6273 96.3243 50.6173 96.4505 50.614 96.5833C50.5143 98.3066 50.7835 100.216 51.5215 102.387C51.5581 102.507 51.6013 102.626 51.6478 102.746C51.7509 103.032 51.8606 103.327 51.9803 103.619C52.0301 103.749 52.0833 103.882 52.1431 104.011C52.1997 104.147 52.2562 104.28 52.316 104.416C52.4324 104.682 52.5553 104.951 52.6883 105.223C52.7415 105.336 52.7947 105.452 52.8545 105.568C52.9576 105.784 53.0706 106 53.1803 106.222C53.2268 106.309 53.2734 106.395 53.3166 106.488L53.3232 106.491Z" fill="#1D232A"/>
<path d="M115.495 228.743C106.58 225.403 102.507 220.784 101.896 216.132C101.121 210.255 102.009 206.851 102.202 200.782C102.265 198.763 102.285 196.697 101.643 194.785C101.002 192.872 99.5622 191.109 97.6042 190.604C94.7554 189.871 91.9664 191.929 89.9785 194.098C85.627 198.842 83.935 203.836 82.6984 210.149C77.9248 207.505 72.3368 206.26 66.8851 206.479C64.4584 206.579 62.0117 206.981 59.7978 207.98C57.5839 208.98 52.1388 212.536 54.2098 219.764C51.5138 220.608 45.1845 224.748 49.4329 233.574C47.5148 234.52 46.3945 236.636 45.9657 238.727C45.5335 240.819 44.7191 248.579 52.5177 254.26C62.0815 261.227 73.0648 264.657 88.9912 269.694C94.0108 271.281 99.519 273.027 105.629 275.093" fill="#E09661"/>
<path d="M70.9509 264.863C70.8877 264.863 70.8245 264.849 70.7614 264.826C63.345 261.795 55.8223 257.073 53.6948 255.698C53.4621 255.549 53.3989 255.24 53.5452 255.011C53.6948 254.779 54.0039 254.715 54.2333 254.862C56.3442 256.223 63.8004 260.905 71.137 263.903C71.393 264.006 71.5127 264.298 71.4096 264.554C71.3365 264.746 71.1503 264.863 70.9509 264.863Z" fill="#1D232A"/>
<path d="M49.7761 223.377C49.6664 223.377 49.56 223.34 49.467 223.271C49.2509 223.101 49.2143 222.786 49.3839 222.57C50.6504 220.966 52.3424 219.927 53.6422 219.432C53.0039 215.7 53.6488 212.589 55.557 210.181C59.1538 205.642 66.0582 205.021 68.0893 204.938C70.6257 204.836 73.7272 205.377 76.8287 206.459C79.0892 207.249 81.1136 208.262 82.3735 209.212C83.537 203.265 84.6905 197.653 88.9422 193.018C91.1627 190.598 94.8593 189.379 97.7314 190.116C97.9974 190.186 98.1602 190.455 98.0904 190.724C98.0206 190.989 97.748 191.149 97.4821 191.082C94.9457 190.428 91.6614 191.527 89.6768 193.692C85.5415 198.201 84.4977 203.541 83.291 209.72L83.0117 211.154L82.3502 210.5C80.3391 208.511 73.4779 205.722 68.1292 205.935C66.7596 205.991 59.7555 206.486 56.3381 210.799C54.5464 213.057 53.9979 216.042 54.6993 219.668L54.7824 220.106L54.3569 220.239C53.1602 220.611 51.4316 221.584 50.1651 223.188C50.0687 223.314 49.9224 223.377 49.7761 223.377Z" fill="#1D232A"/>
<path d="M62.4551 162.899C64.7754 163.403 67.119 163.915 69.4925 163.881C71.866 163.848 74.3093 163.224 76.121 161.693C77.9327 160.162 78.9865 157.619 78.3382 155.338" fill="#E09661"/>
<path d="M69.2673 164.38C66.9038 164.38 64.5868 163.875 62.3463 163.384C62.077 163.324 61.9075 163.058 61.964 162.789C62.0238 162.52 62.2864 162.351 62.559 162.407C64.8195 162.902 67.1631 163.413 69.4834 163.377C71.2751 163.35 73.8215 162.972 75.7961 161.305C77.5912 159.791 78.4189 157.443 77.8571 155.468C77.7806 155.202 77.9369 154.926 78.1995 154.853C78.4621 154.777 78.738 154.933 78.8145 155.195C79.4827 157.543 78.5253 160.306 76.4377 162.065C74.237 163.921 71.448 164.343 69.4934 164.37C69.4202 164.38 69.3438 164.38 69.2673 164.38Z" fill="#1D232A"/>
<path d="M32.3243 124.163C35.5953 128.081 42.513 133.547 45.2854 137.415L69.3695 175.879C70.7956 177.871 73.7541 178.585 75.9714 177.473L89.3082 170.789L54.2808 101.209L35.818 110.463C30.4095 113.172 28.8471 119.309 32.3243 124.163Z" fill="#00A868"/>
<path d="M44.5859 134.765L69.368 175.882C70.7941 177.874 73.7527 178.591 75.97 177.475L89.3068 170.791L49.5523 113.992L44.5859 134.765Z" fill="#1D232A"/>
<path d="M44.7451 133.056C44.7252 133.056 44.7019 133.056 44.682 133.053C44.4094 133.02 44.2166 132.767 44.2498 132.495L46.5502 114.478C46.5834 114.206 46.8327 114.013 47.1087 114.047C47.3812 114.08 47.574 114.332 47.5408 114.605L45.2404 132.621C45.2072 132.874 44.9944 133.056 44.7451 133.056Z" fill="#1D232A"/>
<path d="M77.1893 171.19L44.8379 105.944L64.7301 95.9726C69.6532 93.5055 76.2419 95.5576 78.6287 100.302L107.061 157.759C108.005 159.668 107.247 161.8 105.272 162.79L84.1535 173.375C81.677 174.614 78.3727 173.578 77.1893 171.19Z" fill="#42EC9A"/>
<path d="M80.0146 115.974C80.5184 115.721 81.1056 115.678 81.623 115.812C82.1426 115.946 82.5485 116.246 82.7461 116.635L95.0166 141.457L95.0205 141.463C95.297 142.003 95.1135 142.689 94.4209 143.106L94.2754 143.187L74.5557 153.048C74.0519 153.298 73.4647 153.341 72.9473 153.207C72.4924 153.089 72.1253 152.844 71.9082 152.524L71.8242 152.383L59.5537 127.564L59.5508 127.559L59.501 127.448C59.2861 126.891 59.5343 126.215 60.2949 125.835L80.0146 115.974Z" fill="#FCFCFC" stroke="#FCFCFC" stroke-width="0.974474"/>
<path d="M48.1398 104.291L35.418 110.67C40.3412 108.202 46.9298 110.255 49.3166 114.999L50.9355 108.193L48.1398 104.291Z" fill="#42EC9A"/>
<path d="M79.3482 168.727L74.3751 158.444C73.9397 157.567 74.3552 156.548 75.3491 156.05L95.0152 146.191C96.2452 145.574 97.8342 145.999 98.3727 147.085L103.346 157.368C103.781 158.245 103.366 159.264 102.372 159.762L82.7056 169.62C81.4757 170.238 79.8867 169.813 79.3482 168.727Z" fill="#1D232A"/>
<path d="M100.61 148.215L74.2168 161.443L74.6641 162.334L101.057 149.105L100.61 148.215Z" fill="#42EC9A"/>
<path d="M94.7259 157.551L77.5762 166.146L78.0234 167.037L95.1732 158.441L94.7259 157.551Z" fill="#42EC9A"/>
<path d="M90.4629 147.761L89.5625 148.189L96.8651 163.509L97.7656 163.081L90.4629 147.761Z" fill="#42EC9A"/>
<path d="M81.1485 152.429L80.248 152.857L87.5507 168.177L88.4511 167.749L81.1485 152.429Z" fill="#42EC9A"/>
<path d="M54.3991 119.212L50.6061 112.309C49.7452 110.738 50.6693 108.743 52.7436 107.704L69.7271 99.1899C72.0939 98.0045 74.986 98.5258 75.97 100.316" fill="#42EC9A"/>
<path d="M54.3985 119.709C54.2223 119.709 54.0528 119.616 53.9597 119.45L50.1667 112.547C49.7479 111.786 49.6714 110.926 49.9407 110.063C50.2964 108.924 51.2371 107.901 52.5203 107.257L69.5038 98.7436C72.1266 97.4287 75.2879 98.0396 76.4082 100.075C76.5411 100.317 76.4514 100.62 76.212 100.752C75.9694 100.885 75.6669 100.796 75.5339 100.557C74.6796 99.0025 72.0701 98.5709 69.9492 99.6367L52.9657 108.15C51.9219 108.675 51.164 109.478 50.8914 110.362C50.7053 110.963 50.7551 111.554 51.041 112.072L54.8339 118.975C54.9669 119.217 54.8772 119.519 54.6378 119.652C54.5614 119.689 54.4783 119.709 54.3985 119.709Z" fill="#00A868"/>
<path d="M49.5644 194.157C49.1887 175.881 41.1408 171.409 37.4708 152.808C35.1173 140.881 36.8326 129.003 37.4276 127.423C39.6183 121.612 46.7753 121.19 50.1195 128.575C51.6985 132.065 52.8686 139.718 53.2775 143.009C56.8411 143.427 60.3914 144.503 63.5394 146.226C66.6875 147.95 69.3934 150.659 70.5868 154.043C71.7802 157.423 71.2649 159.631 68.4593 161.338C72.0926 163.171 74.4528 164.363 76.597 166.77C77.6109 167.909 79.2165 170.037 79.7051 171.611C80.2204 171.495 80.7456 171.435 81.2742 171.425C82.3313 171.409 83.3917 171.598 84.3823 171.963C85.476 172.365 86.4932 172.982 87.3442 173.783C89.4484 175.758 90.5122 178.737 90.3327 181.616" fill="#E09661"/>
<path d="M49.0508 164.746C49.0674 164.577 53.2027 152.188 68.4576 161.333Z" fill="#E09661"/>
<path d="M49.051 165.247C49.0344 165.247 49.0145 165.247 48.9978 165.243C48.7252 165.213 48.5258 164.968 48.5557 164.695C48.559 164.659 49.789 160.522 53.8479 158.506C57.7904 156.55 62.79 157.357 68.7105 160.907C68.9465 161.05 69.023 161.355 68.88 161.591C68.7371 161.827 68.4313 161.903 68.1952 161.76C62.913 158.592 58.4453 157.703 54.915 159.117C50.9591 160.701 49.5862 164.689 49.533 164.858C49.4865 165.084 49.2837 165.247 49.051 165.247Z" fill="#1D232A"/>
<path d="M39.8676 153.423C39.8177 153.197 39.2992 141.221 53.2742 143.01Z" fill="#E09661"/>
<path d="M39.8691 153.919C39.6397 153.919 39.4336 153.76 39.3837 153.527C39.3737 153.488 39.048 148.872 42.0996 145.538C44.5296 142.885 48.3126 141.869 53.3421 142.51C53.6147 142.547 53.8075 142.796 53.7743 143.068C53.7377 143.34 53.4851 143.533 53.2158 143.5C48.7414 142.925 45.354 143.732 43.1434 145.897C40.1383 148.836 40.3544 153.189 40.3644 153.345C40.4043 153.6 40.2347 153.85 39.9788 153.906C39.9389 153.916 39.9056 153.919 39.8691 153.919Z" fill="#1D232A"/>
<path d="M80.6023 140.728C80.7086 140.948 80.9746 141.034 81.1873 140.914C84.4185 139.111 85.7282 135.087 84.1093 131.707C82.4904 128.327 78.5279 126.826 75.0973 128.21C74.8713 128.3 74.7716 128.562 74.8746 128.782L76.0182 131.166C76.1245 131.388 76.3805 131.488 76.6132 131.408C78.282 130.847 80.1435 131.604 80.9247 133.228C81.7059 134.855 81.1275 136.777 79.6416 137.723C79.4355 137.856 79.3524 138.119 79.4587 138.341L80.6023 140.728Z" fill="#1D232A"/>
<path d="M72.9645 133.269C72.7351 133.189 72.4824 133.309 72.4027 133.538L71.319 137.16C71.2558 137.366 71.2658 137.592 71.3655 137.801C71.4652 138.01 71.6381 138.16 71.8342 138.239L75.3379 139.667C75.5673 139.747 75.82 139.627 75.8997 139.398C75.9396 139.282 75.9297 139.163 75.8798 139.06L73.2104 133.491C73.1672 133.392 73.0808 133.309 72.9645 133.269Z" fill="#1D232A"/>
<path d="M29.4844 99.3184C29.6872 99.2221 29.9198 99.1225 30.1825 99.0195L29.4844 99.3184Z" fill="#E8E9EA"/>
<path d="M79.8786 113.177L78.8946 113.668L58.3276 123.978L58.3177 123.931C57.686 120.604 56.599 117.384 55.2826 114.485V114.482C53.5374 110.63 51.3966 107.349 49.412 105.158C41.2145 96.1129 33.5522 97.6835 30.2246 99.005L56.5758 87.6956C66.226 85.7798 77.5915 92.8589 79.8786 113.177Z" fill="#E8E9EA"/>
<path d="M58.3302 124.473C58.1473 124.473 57.9711 124.373 57.8847 124.197C57.7617 123.951 57.8614 123.653 58.1074 123.53L79.6584 112.728C79.9044 112.606 80.2036 112.705 80.3266 112.951C80.4496 113.197 80.3498 113.495 80.1038 113.618L58.5529 124.42C58.4831 124.456 58.4066 124.473 58.3302 124.473Z" fill="#1D232A"/>
<path d="M61.6758 179.134C63.8166 180.067 65.9807 181.01 68.301 181.465C70.6213 181.92 73.1444 181.853 75.2453 180.837C78.7158 179.157 80.2815 175.183 79.8759 171.613" fill="#E09661"/>
<path d="M71.0028 182.242C69.969 182.242 69.0083 182.115 68.2072 181.959C65.8204 181.491 63.6131 180.525 61.4789 179.595C61.2263 179.486 61.1099 179.19 61.223 178.938C61.3327 178.685 61.6285 178.569 61.8812 178.682C63.9688 179.592 66.1262 180.535 68.4033 180.983C70.8865 181.471 73.2434 181.262 75.0351 180.395C78.5156 178.709 79.7323 174.694 79.3899 171.676C79.3599 171.404 79.5561 171.155 79.8287 171.125C80.1046 171.092 80.3506 171.291 80.3805 171.563C80.7727 175.03 79.4098 179.383 75.4706 181.292C73.9913 182.002 72.4289 182.242 71.0028 182.242Z" fill="#1D232A"/>
<path d="M61.4383 226.657C61.3851 226.657 61.3286 226.647 61.2754 226.63C57.4958 225.328 54.9361 222.991 53.6729 219.684C53.5765 219.428 53.7028 219.139 53.9621 219.039C54.2181 218.94 54.5073 219.069 54.607 219.328C55.7605 222.35 58.1141 224.488 61.6012 225.69C61.8605 225.78 62.0001 226.062 61.9103 226.324C61.8405 226.527 61.6477 226.657 61.4383 226.657Z" fill="#1D232A"/>
<path d="M56.0596 239.107C55.9964 239.107 55.9366 239.097 55.8734 239.071C53.2174 238.015 51.5918 237.251 49.0289 233.874C48.8626 233.655 48.9059 233.343 49.1253 233.177C49.3447 233.011 49.6571 233.054 49.8233 233.273C52.3398 236.594 53.8922 237.211 56.2424 238.148C56.4984 238.251 56.6214 238.54 56.5217 238.795C56.4452 238.988 56.259 239.107 56.0596 239.107Z" fill="#1D232A"/>
<path d="M82.2896 215.092C82.0137 215.092 81.791 214.87 81.791 214.594C81.791 214.445 81.801 210.859 83.0343 206.064C83.1041 205.799 83.3733 205.636 83.6426 205.706C83.9085 205.775 84.0714 206.044 84.0016 206.313C82.8016 210.978 82.7883 214.561 82.7883 214.594C82.7883 214.87 82.5656 215.092 82.2896 215.092Z" fill="#1D232A"/>
<path d="M194.702 188.792L193.047 234.186L137.795 224.633L147.076 183.841L147.721 181.119C150.739 171.051 160.556 163.979 171.569 164.297C184.726 164.683 195.085 175.65 194.702 188.792Z" fill="#008E5A"/>
<path d="M145.356 226.436C145.329 226.436 145.299 226.433 145.269 226.43L137.71 225.121C137.574 225.098 137.457 225.022 137.381 224.906C137.304 224.793 137.278 224.653 137.311 224.517L145.455 188.809C145.515 188.54 145.784 188.374 146.054 188.434C146.323 188.494 146.489 188.763 146.429 189.032L138.401 224.228L145.442 225.447C145.715 225.493 145.894 225.752 145.848 226.021C145.804 226.267 145.595 226.436 145.356 226.436Z" fill="#1D232A"/>
<path d="M159.089 164.259C157.022 166.653 147.73 171.72 140.982 171.72C131.392 171.72 133.406 164.917 135.162 164.146L159.089 164.259Z" fill="#E09661"/>
<path d="M103.517 219.26C103.46 219.26 103.404 219.25 103.347 219.23C103.088 219.137 102.952 218.852 103.045 218.593L115.025 185.169C115.118 184.91 115.404 184.774 115.664 184.867C115.923 184.96 116.059 185.246 115.966 185.505L103.986 218.928C103.916 219.134 103.723 219.26 103.517 219.26Z" fill="#1D232A"/>
<path d="M90.3274 182.11C90.3175 182.11 90.3075 182.11 90.2942 182.11C90.0183 182.094 89.8122 181.858 89.8288 181.582C90.0083 178.757 88.9479 175.977 86.9966 174.145C86.2087 173.404 85.2447 172.813 84.2042 172.431C83.9449 172.335 83.812 172.049 83.9084 171.79C84.0048 171.531 84.2907 171.402 84.5499 171.495C85.7134 171.923 86.7971 172.587 87.6814 173.417C89.8454 175.45 91.0222 178.528 90.8261 181.645C90.8095 181.908 90.5901 182.11 90.3274 182.11Z" fill="#1D232A"/>
<path d="M192.656 228.615C192.656 228.615 231.703 224.022 250.245 208.885C263.2 198.309 271.244 182.842 268.322 167.273C268.07 167.429 267.81 167.578 267.544 167.725C262.266 170.647 256.335 171.297 250.893 169.992C250.727 169.953 250.558 169.909 250.391 169.866C244.474 168.312 239.182 164.441 235.981 158.673C235.186 157.239 234.558 155.758 234.096 154.25C233.784 153.251 233.548 152.238 233.381 151.219C226.926 148.948 219.473 148.948 212.396 151.747C210.075 152.663 207.928 153.829 205.986 155.197C200.624 158.962 196.782 164.255 194.923 170.085C194.637 170.972 194.405 171.872 194.215 172.778C193.7 175.242 193.537 177.772 193.753 180.299C194.348 183.991 192.656 228.615 192.656 228.615Z" fill="#FE6A34"/>
<path d="M232.31 201.952C218.93 207.245 204.213 202.523 197.405 191.406C196.657 190.178 196.002 188.876 195.454 187.495C194.516 185.141 193.961 182.723 193.755 180.306C193.645 179.011 193.635 177.713 193.722 176.428C193.798 175.206 193.968 173.987 194.217 172.789C194.407 171.879 194.643 170.979 194.925 170.092C196.783 164.262 200.626 158.972 205.988 155.204C207.933 153.839 210.08 152.673 212.397 151.754C219.478 148.951 226.931 148.955 233.387 151.226C234.39 151.578 235.378 151.986 236.332 152.454C238.552 153.53 240.62 154.898 242.452 156.528C245.38 159.122 247.741 162.386 249.253 166.214C249.735 167.423 250.114 168.641 250.397 169.877C253.375 182.776 245.872 196.586 232.31 201.952Z" fill="#FFCBD9"/>
<path d="M197.952 174.727L190.831 177.532C184.871 179.88 181.919 186.67 184.269 192.624C186.619 198.577 193.418 201.526 199.378 199.178L206.498 196.372L197.952 174.727Z" fill="#FFCBD9"/>
<path d="M196.368 194.863C196.365 194.863 196.358 194.863 196.355 194.863C196.079 194.856 195.863 194.627 195.87 194.351C195.929 192.266 195.314 190.234 194.091 188.481C192.868 186.724 191.172 185.446 189.191 184.778C188.929 184.692 188.789 184.407 188.879 184.148C188.965 183.889 189.251 183.746 189.51 183.835C191.694 184.569 193.563 185.98 194.909 187.913C196.255 189.842 196.933 192.08 196.867 194.381C196.857 194.647 196.638 194.863 196.368 194.863Z" fill="#1D232A"/>
<path d="M257.967 195.084C256.813 195.084 255.656 194.875 254.503 194.457C254.243 194.364 254.11 194.078 254.204 193.819C254.297 193.56 254.582 193.427 254.842 193.52C258.389 194.809 261.889 193.932 265.24 190.911C265.443 190.725 265.759 190.741 265.945 190.947C266.131 191.15 266.114 191.465 265.908 191.651C263.388 193.926 260.689 195.084 257.967 195.084Z" fill="#1D232A"/>
<path d="M258.538 200.519C257.408 200.519 255.789 200.257 253.831 199.218C253.588 199.088 253.495 198.786 253.625 198.544C253.755 198.301 254.057 198.208 254.3 198.338C257.714 200.151 259.938 199.334 259.961 199.324C260.217 199.228 260.506 199.351 260.606 199.606C260.706 199.862 260.583 200.147 260.327 200.25C260.273 200.274 259.635 200.519 258.538 200.519Z" fill="#1D232A"/>
<path d="M236.329 152.451C235.654 153.069 234.909 153.673 234.098 154.254C231.675 155.991 228.663 157.501 225.279 158.584C218.404 160.782 211.769 160.623 207.767 158.557C207.538 161.177 207.258 168.256 200.573 174.037C198.409 175.906 195.926 176.312 193.719 176.428C193.795 175.206 193.965 173.987 194.214 172.789C194.404 171.879 194.64 170.979 194.922 170.092C196.78 164.262 200.623 158.972 205.985 155.204C207.93 153.839 210.077 152.673 212.394 151.754C219.475 148.951 226.928 148.955 233.383 151.226C234.387 151.574 235.375 151.986 236.329 152.451Z" fill="#FE6A34"/>
<path d="M216.307 166.12C217.709 164.968 218.373 163.459 217.788 162.75C217.204 162.04 215.594 162.399 214.191 163.551C212.789 164.703 212.126 166.212 212.71 166.921C213.294 167.631 214.905 167.272 216.307 166.12Z" fill="#FE6A34"/>
<path d="M231.248 164.277C232.503 162.966 232.981 161.389 232.316 160.754C231.652 160.119 230.095 160.667 228.84 161.978C227.586 163.289 227.107 164.866 227.772 165.501C228.437 166.136 229.993 165.588 231.248 164.277Z" fill="#FE6A34"/>
<path d="M301.061 232.27C307.008 217.939 314.593 195.502 321.983 191.212C329.646 186.766 335.835 170.317 339.937 163.626C344.093 156.846 349.611 157.816 352.048 161.528C353.367 163.537 353.164 166.645 352.762 169.088C352.237 172.306 350.179 178.751 349.335 181.347C351.213 179.292 352.51 176.828 354.441 173.113C356.878 168.431 364.643 169.261 365.664 176.141C366.142 179.435 365.221 183.37 364.191 186.624C367.608 182.068 373.485 183.111 374.922 188.128C375.566 190.382 375.001 195.054 374.483 197.578C369.078 223.849 356.299 228.74 344.222 246.554" fill="#FFCBD9"/>
<path d="M356.269 199.272C356.143 199.272 356.013 199.222 355.917 199.126C355.72 198.933 355.72 198.618 355.917 198.422C355.963 198.375 360.501 193.773 363.739 186.419C363.848 186.166 364.144 186.053 364.397 186.163C364.649 186.272 364.762 186.568 364.653 186.82C361.335 194.358 356.814 198.937 356.621 199.126C356.525 199.222 356.395 199.272 356.269 199.272Z" fill="#1D232A"/>
<path d="M346.92 242.497L306.278 303.669C302.329 310.708 294.963 315.151 286.885 315.36C286.529 315.367 286.173 315.367 285.821 315.36C278.149 315.207 271.028 311.22 266.906 304.695L240.149 252.365C233.391 241.673 236.592 227.535 247.296 220.788C258 214.037 272.155 217.235 278.91 227.927L291.432 247.743L300.557 231.476L306.936 220.114C313.123 209.087 327.091 205.159 338.131 211.338C349.177 217.517 353.11 231.47 346.92 242.497Z" fill="#FFCBD9"/>
<path d="M271.651 281.436C271.388 281.436 271.169 281.23 271.152 280.965L269.696 254.484C269.683 254.209 269.892 253.976 270.168 253.96C270.434 253.946 270.677 254.155 270.693 254.431L272.149 280.911C272.162 281.187 271.953 281.42 271.677 281.436C271.671 281.436 271.661 281.436 271.651 281.436Z" fill="#1D232A"/>
<path d="M270.196 252.289L268.819 283.079H261.569L253.275 269.313L270.196 252.289Z" fill="#1D232A"/>
<path d="M255.716 269.5L345.605 424.451H189.469L191.611 264.871L255.716 269.5Z" fill="#008E5A"/>
<path d="M296.807 178.886L302 187.576L303.06 189.349L303.625 190.295L323.6 223.705C325.495 226.873 329.601 227.906 332.772 226.013L356.042 212.13C359.213 210.241 360.247 206.14 358.352 202.973L331.559 158.16C329.667 154.992 325.562 153.96 322.39 155.849L310.217 163.114L299.121 169.732C295.949 171.621 294.916 175.722 296.807 178.886Z" fill="#1D232A"/>
<path d="M296.807 178.887L302 187.576L310.992 172.455L314.908 165.861C314.117 165.615 312.345 164.529 310.214 163.111L299.118 169.729C295.95 171.622 294.916 175.722 296.807 178.887Z" fill="#42EC9A"/>
<path d="M303.062 189.351L303.628 190.297C306.234 185.97 308.833 181.644 311.44 177.317C311.573 177.088 311.406 176.766 311.187 176.67C310.921 176.56 310.678 176.693 310.539 176.922C309.678 178.363 308.803 179.804 307.942 181.242C306.317 183.942 304.691 186.644 303.062 189.351Z" fill="#42EC9A"/>
<path d="M340.038 221.678L363.587 207.63C366.758 205.737 367.792 201.636 365.901 198.472L339.107 153.656C337.213 150.488 333.107 149.456 329.939 151.345L306.39 165.394C303.219 167.286 302.185 171.387 304.077 174.552L330.87 219.367C332.761 222.535 336.867 223.568 340.038 221.678Z" fill="#00A868"/>
<path d="M333.377 214.498L360.412 198.373L336.541 158.443L309.506 174.568L333.377 214.498Z" fill="#42EC9A"/>
<path d="M357.033 199.825L333.662 160.732L336.373 159.115L359.744 198.208L357.033 199.825Z" fill="#FCFCFC" stroke="#FCFCFC" stroke-width="0.974474"/>
<path d="M320.549 163.762C321.32 163.762 321.945 163.137 321.945 162.367C321.945 161.597 321.32 160.973 320.549 160.973C319.777 160.973 319.152 161.597 319.152 162.367C319.152 163.137 319.777 163.762 320.549 163.762Z" fill="#1D232A"/>
<path d="M337.675 192.499C337.814 192.712 338.104 192.762 338.306 192.609C341.388 190.298 342.179 185.961 340.035 182.701C337.891 179.44 333.593 178.441 330.245 180.347C330.026 180.473 329.956 180.758 330.096 180.967L331.608 183.269C331.748 183.484 332.027 183.551 332.256 183.438C333.899 182.624 335.93 183.146 336.96 184.716C337.991 186.287 337.665 188.352 336.265 189.534C336.069 189.7 336.023 189.982 336.162 190.195L337.675 192.499Z" fill="#1D232A"/>
<path d="M328.753 185.867C328.504 185.814 328.261 185.977 328.208 186.223L327.596 190.114C327.56 190.333 327.603 190.566 327.733 190.768C327.866 190.968 328.062 191.1 328.278 191.154L332.094 192.14C332.343 192.193 332.586 192.03 332.639 191.784C332.666 191.662 332.639 191.535 332.573 191.439L329.039 186.067C328.983 185.967 328.88 185.894 328.753 185.867Z" fill="#1D232A"/>
<path d="M329.815 233.198L317.907 240.865L300.655 231.826C306.578 218.658 301.283 204.954 296.553 196.308C294.163 191.938 296.513 186.781 300.881 186.669C304.388 186.576 308.018 189.003 312.353 199.11C313.057 200.754 313.902 205.21 316.508 206.724C316.771 206.877 317.033 207.029 317.309 207.149C330.23 212.677 330.942 228.931 329.815 233.198Z" fill="#FFCBD9"/>
<path d="M276.431 237.592L274.111 255.86C272.811 266.074 263.47 273.299 253.248 272.004L204.621 265.838L219.334 206.781L239.466 211.686L250.738 214.432L260.272 216.752C261.379 216.892 262.449 217.128 263.48 217.45C266.568 218.406 269.281 220.129 271.418 222.377C275.161 226.295 277.169 231.801 276.431 237.592Z" fill="#00A868"/>
<path d="M249.61 229.92C252.921 233.005 253.101 238.184 250.013 241.492C246.924 244.799 241.739 244.978 238.428 241.893L249.61 229.92Z" fill="#42EC9A"/>
<path d="M227.209 231.81C225.809 227.51 228.163 222.891 232.468 221.493C236.772 220.095 241.396 222.446 242.796 226.746L227.209 231.81Z" fill="#42EC9A"/>
<path d="M235.775 238.384C234.625 242.757 230.144 245.373 225.766 244.224L227.886 236.152L235.775 238.384Z" fill="#42EC9A"/>
<path d="M207.27 244.986L222.172 246.394C221.744 250.897 217.745 254.201 213.24 253.772C210.348 253.5 207.948 251.757 206.715 249.353L207.27 244.986Z" fill="#42EC9A"/>
<path d="M220.531 239.067L209.025 231.208V231.204L209.501 227.452C212.167 225.832 215.647 225.812 218.393 227.688C222.13 230.241 223.087 235.335 220.531 239.067Z" fill="#42EC9A"/>
<path d="M243.558 270.773L232.213 269.336L243.568 265.471C244.18 267.26 244.134 269.113 243.558 270.773Z" fill="#42EC9A"/>
<path d="M235.594 250.519C239.147 247.72 244.303 248.331 247.106 251.88C249.908 255.43 249.296 260.58 245.743 263.379L235.594 250.519Z" fill="#42EC9A"/>
<path d="M232.377 260.818C227.873 261.253 223.867 257.956 223.432 253.456L231.749 252.656L232.377 260.818Z" fill="#42EC9A"/>
<path d="M276.573 235.324C275.426 237.393 273.391 238.95 270.878 239.409C266.424 240.215 262.155 237.267 261.348 232.817L275.878 230.178C276.343 231.825 276.586 233.551 276.573 235.324Z" fill="#42EC9A"/>
<path d="M271.417 222.377C270.429 224.688 268.392 226.514 265.756 227.132L263.479 217.449C266.567 218.406 269.279 220.129 271.417 222.377Z" fill="#42EC9A"/>
<path d="M247.534 224.552L239.463 211.686L250.735 214.432C252.278 218.067 250.995 222.387 247.534 224.552Z" fill="#42EC9A"/>
<path d="M261.313 228.421C257.776 231.243 252.621 230.665 249.795 227.132L256.324 221.926L261.313 228.421Z" fill="#42EC9A"/>
<path d="M266.09 268.923C264.039 270.318 261.709 271.307 259.223 271.799C257.853 271.377 256.58 270.587 255.553 269.445C252.531 266.078 252.813 260.901 256.184 257.883L266.09 268.923Z" fill="#42EC9A"/>
<path d="M274.982 248.983V248.986L274.108 255.856C273.806 258.23 273.068 260.441 271.987 262.424C270.99 262.789 269.906 262.968 268.779 262.915L269.531 246.559C271.675 246.658 273.586 247.568 274.982 248.983Z" fill="#42EC9A"/>
<path d="M259.916 255.552C255.658 254.018 253.451 249.326 254.986 245.072L262.845 247.901L259.916 255.552Z" fill="#42EC9A"/>
<path d="M249.61 229.92C252.921 233.005 253.101 238.184 250.013 241.492C246.924 244.799 241.739 244.978 238.428 241.893L249.61 229.92Z" fill="#42EC9A"/>
<path d="M227.209 231.81C225.809 227.51 228.163 222.891 232.468 221.493C236.772 220.095 241.396 222.446 242.796 226.746L227.209 231.81Z" fill="#42EC9A"/>
<path d="M235.775 238.384C234.625 242.757 230.144 245.373 225.766 244.224L227.886 236.152L235.775 238.384Z" fill="#42EC9A"/>
<path d="M207.27 244.986L222.172 246.394C221.744 250.897 217.745 254.201 213.24 253.772C210.348 253.5 207.948 251.757 206.715 249.353L207.27 244.986Z" fill="#42EC9A"/>
<path d="M220.531 239.067L209.025 231.208V231.204L209.501 227.452C212.167 225.832 215.647 225.812 218.393 227.688C222.13 230.241 223.087 235.335 220.531 239.067Z" fill="#42EC9A"/>
<path d="M243.558 270.773L232.213 269.336L243.568 265.471C244.18 267.26 244.134 269.113 243.558 270.773Z" fill="#42EC9A"/>
<path d="M235.594 250.519C239.147 247.72 244.303 248.331 247.106 251.88C249.908 255.43 249.296 260.58 245.743 263.379L235.594 250.519Z" fill="#42EC9A"/>
<path d="M232.377 260.818C227.873 261.253 223.867 257.956 223.432 253.456L231.749 252.656L232.377 260.818Z" fill="#42EC9A"/>
<path d="M276.573 235.324C275.426 237.393 273.391 238.95 270.878 239.409C266.424 240.215 262.155 237.267 261.348 232.817L275.878 230.178C276.343 231.825 276.586 233.551 276.573 235.324Z" fill="#42EC9A"/>
<path d="M271.417 222.377C270.429 224.688 268.392 226.514 265.756 227.132L263.479 217.449C266.567 218.406 269.279 220.129 271.417 222.377Z" fill="#42EC9A"/>
<path d="M247.534 224.552L239.463 211.686L250.735 214.432C252.278 218.067 250.995 222.387 247.534 224.552Z" fill="#42EC9A"/>
<path d="M261.313 228.421C257.776 231.243 252.621 230.665 249.795 227.132L256.324 221.926L261.313 228.421Z" fill="#42EC9A"/>
<path d="M266.09 268.923C264.039 270.318 261.709 271.307 259.223 271.799C257.853 271.377 256.58 270.587 255.553 269.445C252.531 266.078 252.813 260.901 256.184 257.883L266.09 268.923Z" fill="#42EC9A"/>
<path d="M274.982 248.983V248.986L274.108 255.856C273.806 258.23 273.068 260.441 271.987 262.424C270.99 262.789 269.906 262.968 268.779 262.915L269.531 246.559C271.675 246.658 273.586 247.568 274.982 248.983Z" fill="#42EC9A"/>
<path d="M259.916 255.552C255.658 254.018 253.451 249.326 254.986 245.072L262.845 247.901L259.916 255.552Z" fill="#42EC9A"/>
<path d="M343.339 290.122C341.873 291.65 339.522 292.656 337.468 293.157C328.882 295.262 320.302 296.634 311.719 298.739C314.198 301.153 314.268 304.447 313.078 307.694C311.35 312.399 306.603 314.796 303.096 315.733C295.114 317.855 290.35 318.203 281.724 319.624L260.2 323.058L216.067 330.1C214.143 330.356 212.214 330.369 210.323 330.147C205.649 329.596 201.215 327.617 197.651 324.409C192.648 319.9 189.886 313.422 190.095 306.695L192.655 228.615C193.054 215.977 203.631 206.056 216.283 206.451C228.932 206.849 238.868 217.412 238.469 230.052L236.754 281.114C243.658 280.128 252.461 279.507 259.698 278.581C266.509 277.711 271.924 276.568 273.035 274.593C273.796 272.737 275.378 269.592 276.724 268.105C279.281 265.289 282.977 263.426 286.78 263.483C290.583 263.542 293.848 267.098 295.503 270.522C304.266 266.481 317.981 260.252 327.276 257.655C328.918 257.2 330.607 256.735 332.302 256.935C336.993 257.489 337.737 263.609 335.493 266.009C334.443 267.128 333.21 268.048 331.907 268.865C325.7 272.77 309.91 283.093 309.91 283.093C309.91 283.093 328.37 280.662 337.98 280.49C339.532 280.463 341.168 280.639 342.518 281.39C345.164 282.854 345.868 287.486 343.339 290.122Z" fill="#FFCBD9"/>
<path d="M329.35 234.02C329.304 234.02 329.254 234.014 329.207 234C328.945 233.921 328.792 233.645 328.871 233.379C331.913 223.172 325.627 213.812 325.564 213.719C325.408 213.493 325.467 213.181 325.693 213.029C325.92 212.872 326.232 212.932 326.385 213.158C326.451 213.254 333.007 222.993 329.825 233.665C329.762 233.881 329.563 234.02 329.35 234.02Z" fill="#1D232A"/>
<path d="M309.911 283.921C309.702 283.921 309.512 283.792 309.442 283.589C309.363 283.37 309.449 283.128 309.645 283.001C309.778 282.915 323.105 274.465 329.092 270.394C329.803 269.909 330.425 269.491 330.973 269.122C333.337 267.528 334.314 266.871 335.132 265.998C336.199 264.855 336.508 262.764 335.87 261.02C335.518 260.057 334.574 258.404 332.203 258.122C330.648 257.939 327.28 258.533 325.548 259.015C317.211 261.346 306.776 266.18 298.393 270.065C297.472 270.49 296.578 270.905 295.713 271.304C295.594 271.36 295.457 271.363 295.331 271.317C295.208 271.27 295.105 271.177 295.052 271.058C295.038 271.025 293.546 267.787 291.611 265.739C290.075 264.112 286.901 262.637 283.567 263.255C281.21 263.69 277.935 265.33 275.721 270.693C274.245 274.259 271.779 276.487 268.385 277.317C268.119 277.383 267.846 277.217 267.783 276.952C267.72 276.686 267.883 276.414 268.149 276.351C271.26 275.59 273.434 273.615 274.801 270.314C277.187 264.537 280.788 262.754 283.387 262.275C287.11 261.588 290.567 263.179 292.339 265.055C293.965 266.775 295.251 269.195 295.747 270.191C296.471 269.856 297.216 269.511 297.977 269.159C306.394 265.257 316.869 260.406 325.282 258.052C326.828 257.623 330.478 256.91 332.323 257.129C334.441 257.378 336.073 258.673 336.807 260.675C337.582 262.783 337.193 265.254 335.863 266.675C334.966 267.628 333.962 268.305 331.535 269.942C330.987 270.311 330.368 270.729 329.657 271.214C325 274.382 315.918 280.189 312.025 282.669C314.99 282.321 320.416 281.69 324.604 281.245C324.873 281.215 325.123 281.414 325.153 281.687C325.183 281.959 324.983 282.205 324.711 282.234C318.674 282.879 310.064 283.905 309.978 283.915C309.951 283.921 309.931 283.921 309.911 283.921Z" fill="#1D232A"/>
<path d="M222.47 188.545C222.327 188.545 222.184 188.482 222.084 188.363C221.908 188.15 221.941 187.838 222.154 187.662C224.215 185.969 223.956 183.412 223.952 183.389C223.923 183.117 224.119 182.867 224.395 182.838C224.66 182.804 224.916 183.004 224.946 183.276C224.96 183.402 225.266 186.4 222.789 188.429C222.693 188.509 222.58 188.545 222.47 188.545Z" fill="#1D232A"/>
<path d="M229.181 188.708C226.621 188.708 224.859 187.323 223.742 185.965C223.566 185.752 223.599 185.437 223.812 185.264C224.025 185.092 224.337 185.122 224.514 185.334C226.385 187.615 228.802 188.259 231.691 187.25C231.857 187.19 231.937 187.164 232.03 187.157C232.299 187.137 232.545 187.343 232.565 187.615C232.585 187.874 232.405 188.1 232.156 188.143C232.126 188.153 232.08 188.17 232.023 188.19C230.983 188.552 230.038 188.708 229.181 188.708ZM232.143 188.146C232.129 188.15 232.116 188.15 232.103 188.15C232.113 188.15 232.126 188.15 232.143 188.146Z" fill="#1D232A"/>
<path d="M222.206 170.54C223.78 169.892 225.579 170.64 226.228 172.206V172.207C226.552 172.989 226.529 173.831 226.228 174.556V174.557C225.926 175.285 225.35 175.894 224.564 176.218L224.563 176.219L216.646 179.496H216.645C215.075 180.147 213.275 179.401 212.624 177.833C212.3 177.051 212.323 176.209 212.624 175.48C212.925 174.752 213.504 174.142 214.288 173.818L222.207 170.541L222.206 170.54Z" fill="#FCFCFC" stroke="#FCFCFC" stroke-width="0.974474"/>
<path d="M220.312 170.805L220.791 178.312L216.831 179.952C215.013 180.706 212.929 179.843 212.174 178.027C211.799 177.12 211.825 176.144 212.174 175.301C212.523 174.457 213.195 173.75 214.102 173.375L220.312 170.805Z" fill="#1D232A"/>
<path d="M239.551 162.873C241.072 162.243 242.808 162.923 243.507 164.392L243.571 164.536C243.855 165.221 243.873 165.95 243.671 166.607L243.571 166.885C243.27 167.613 242.694 168.223 241.908 168.547H241.907L233.988 171.828C232.419 172.479 230.619 171.733 229.968 170.165C229.644 169.383 229.666 168.541 229.968 167.812C230.269 167.084 230.848 166.474 231.632 166.15L239.551 162.873Z" fill="#FCFCFC" stroke="#FCFCFC" stroke-width="0.974474"/>
<path d="M237.652 163.127L238.131 170.634L234.175 172.275C232.357 173.028 230.273 172.165 229.518 170.349C229.142 169.442 229.169 168.466 229.518 167.623C229.867 166.779 230.538 166.072 231.446 165.697L237.652 163.127Z" fill="#1D232A"/>
<path d="M231.528 181.312C231.006 181.312 230.478 181.259 229.939 181.156C229.67 181.103 229.494 180.841 229.544 180.572C229.597 180.303 229.856 180.124 230.129 180.177C230.887 180.323 231.628 180.353 232.339 180.263C233.413 180.13 234.407 179.3 234.812 178.198C235.138 177.311 235.009 176.455 234.45 175.844L229.946 170.913C229.76 170.71 229.773 170.395 229.979 170.209C230.182 170.023 230.498 170.036 230.684 170.242L235.188 175.173C235.993 176.056 236.205 177.315 235.75 178.543C235.218 179.984 233.898 181.073 232.462 181.253C232.156 181.296 231.844 181.312 231.528 181.312Z" fill="#1D232A"/>
<path d="M139.279 164.172C139.465 165.915 141.167 167.542 142.79 168.465C143.581 168.913 144.442 169.232 145.346 169.425C145.878 169.538 146.426 169.601 146.982 169.624C147.251 169.7 147.54 169.773 147.849 169.84C149.588 170.205 151.905 170.308 153.989 169.123C155.412 168.312 156.565 166.729 156.874 165.029C157.1 164.809 157.307 164.554 157.466 164.271L139.279 164.172ZM143.345 166.118C143.694 166.254 144.053 166.37 144.415 166.47C146.387 167.439 148.69 167.755 150.838 167.29C150.974 167.26 151.11 167.227 151.243 167.19C151.353 167.18 151.459 167.17 151.569 167.157C150.871 167.456 150.103 167.648 149.305 167.715C147.307 167.884 145.143 167.373 142.693 166.141C142.607 166.098 142.517 166.055 142.427 166.005C142.351 165.928 142.274 165.852 142.198 165.772C142.58 165.905 142.959 166.018 143.345 166.118ZM143.179 167.788C142.481 167.393 141.859 166.881 141.34 166.29C141.55 166.416 141.759 166.536 141.965 166.642C142.481 167.15 143.009 167.595 143.554 167.98C143.425 167.921 143.302 167.854 143.179 167.788ZM147.091 168.837C146.922 168.787 146.752 168.734 146.583 168.678C145.984 168.472 145.406 168.213 144.851 167.891C146.453 168.419 147.949 168.618 149.378 168.495C149.814 168.459 150.239 168.386 150.655 168.286C150.196 168.449 149.717 168.581 149.229 168.674C148.514 168.811 147.793 168.86 147.091 168.837ZM153.607 168.439C152.593 169.02 151.356 169.302 150.013 169.289C151.25 168.97 152.41 168.439 153.394 167.731C154.095 167.223 154.72 166.622 155.252 165.952C155.475 165.882 155.691 165.796 155.9 165.693C155.475 166.845 154.617 167.868 153.607 168.439Z" fill="#1D232A"/>
<path d="M187.516 106.311C187.49 107.177 187.41 108.057 187.267 108.941C187.234 109.14 187.197 109.329 187.161 109.522L186.323 113.838L185.296 119.144L180.625 143.264C178.561 153.916 168.316 161.094 157.638 159.106C146.881 157.103 139.83 146.734 141.908 136.022L147.799 105.637L148.49 102.051C149.587 96.3926 153.008 91.7706 157.575 88.988C161.617 86.5276 166.551 85.5016 171.563 86.4712C171.676 86.4944 171.796 86.5143 171.909 86.5442C172.414 86.6505 172.916 86.7733 173.408 86.9227C175.928 87.6632 178.202 88.8752 180.153 90.4424C184.86 94.221 187.689 100.065 187.516 106.311Z" fill="#E09661"/>
<path d="M182.136 118.326L187.385 119.349C192.857 120.415 196.457 125.761 195.39 131.226C194.323 136.691 188.971 140.287 183.499 139.222L178.25 138.199L182.136 118.326Z" fill="#E09661"/>
<path d="M187.209 134.345C187.109 134.345 187.009 134.315 186.923 134.255C185.164 133.017 184.264 130.845 184.629 128.727C184.995 126.608 186.571 124.862 188.642 124.284C188.908 124.211 189.183 124.364 189.257 124.629C189.33 124.895 189.177 125.17 188.911 125.243C187.209 125.722 185.912 127.156 185.613 128.896C185.314 130.639 186.052 132.422 187.498 133.442C187.724 133.601 187.777 133.91 187.618 134.136C187.518 134.272 187.365 134.345 187.209 134.345Z" fill="#1D232A"/>
<path d="M160.71 115.884C160.51 115.884 160.307 115.847 160.111 115.771C157.488 114.762 155.813 113.108 155.743 113.038C155.095 112.391 155.092 111.338 155.743 110.691C156.391 110.043 157.439 110.04 158.09 110.684C158.127 110.717 159.387 111.933 161.308 112.673C162.166 113.002 162.591 113.965 162.262 114.818C162.009 115.479 161.378 115.884 160.71 115.884Z" fill="#8F5049"/>
<path d="M172.773 114.703C172.088 114.703 171.447 114.275 171.204 113.594C171.188 113.551 170.583 111.907 169.173 110.403C168.545 109.732 168.581 108.683 169.253 108.055C169.924 107.428 170.975 107.464 171.603 108.135C173.525 110.184 174.309 112.402 174.342 112.495C174.645 113.361 174.186 114.308 173.318 114.61C173.142 114.673 172.956 114.703 172.773 114.703Z" fill="#8F5049"/>
<path d="M149.35 116.287C150.056 115.878 150.907 115.722 151.759 115.903L151.929 115.944L160.106 118.122L160.107 118.123C160.201 118.148 160.296 118.179 160.397 118.216H160.398C160.952 118.416 161.429 118.752 161.795 119.172V119.173C162.46 119.941 162.77 120.999 162.557 122.062L162.507 122.274C162.281 123.124 161.754 123.809 161.067 124.251L160.929 124.336C160.743 124.443 160.545 124.532 160.343 124.602L160.34 124.604C159.814 124.788 159.233 124.841 158.649 124.742H158.65C158.546 124.724 158.447 124.703 158.352 124.678H158.351L150.175 122.5L150.007 122.451C148.349 121.92 147.362 120.218 147.727 118.519L147.768 118.349C148.009 117.443 148.596 116.721 149.349 116.288L149.35 116.287Z" fill="#FCFCFC" stroke="#FCFCFC" stroke-width="0.974474"/>
<path d="M162.977 122.399C162.701 123.435 162.033 124.259 161.172 124.757C160.959 124.88 160.733 124.983 160.5 125.062C159.895 125.275 159.23 125.334 158.566 125.222C158.453 125.202 158.34 125.178 158.227 125.149L154.623 124.189L156.624 116.691L160.228 117.651C160.341 117.681 160.45 117.717 160.56 117.757C161.195 117.986 161.74 118.372 162.159 118.853C162.974 119.789 163.323 121.104 162.977 122.399Z" fill="#1D232A"/>
<path d="M163.264 119.992C163.97 119.584 164.821 119.427 165.673 119.608L165.843 119.649L174.021 121.827L174.021 121.828C174.7 122.008 175.279 122.384 175.709 122.877V122.878C176.377 123.649 176.687 124.705 176.474 125.767L176.424 125.979C176.183 126.885 175.599 127.605 174.846 128.041C174.661 128.148 174.463 128.237 174.255 128.311C173.636 128.525 172.947 128.563 172.266 128.383H172.265L164.089 126.205L163.921 126.156C162.263 125.625 161.276 123.923 161.641 122.224L161.682 122.054C161.923 121.148 162.51 120.426 163.263 119.993L163.264 119.992Z" fill="#FCFCFC" stroke="#FCFCFC" stroke-width="0.974474"/>
<path d="M176.893 126.102C176.617 127.138 175.949 127.962 175.088 128.46C174.875 128.583 174.649 128.686 174.416 128.765C173.811 128.978 173.146 129.038 172.482 128.925C172.369 128.905 172.256 128.882 172.143 128.852L168.539 127.892L170.54 120.395L174.144 121.354C174.257 121.384 174.366 121.421 174.476 121.46C175.111 121.69 175.656 122.075 176.075 122.556C176.89 123.492 177.239 124.807 176.893 126.102Z" fill="#1D232A"/>
<path d="M162.407 133.455C166.652 133.342 170.236 134.013 173.43 136.374C175.767 138.101 174.238 141.418 167.985 140.186C168.826 141.145 168.381 143.111 165.711 143.005C164.585 142.958 162.986 142.367 162.171 141.68C161.756 142.288 161.287 142.889 160.642 143.3C159.997 143.712 159.126 143.908 158.408 143.636C157.69 143.363 157.414 142.739 157.228 141.577C156.035 142.244 154.635 142.706 153.276 142.646C152.408 142.606 151.238 141.447 151.992 139.728C153.362 136.596 157.843 133.578 162.407 133.455Z" fill="#8F5049"/>
<path d="M160.439 124.693L158.029 128.309C157.018 129.823 157.7 131.915 159.468 132.725L161.925 133.851" fill="#E09661"/>
<path d="M161.922 134.348C161.852 134.348 161.782 134.334 161.716 134.301L159.259 133.176C158.242 132.711 157.491 131.844 157.195 130.805C156.922 129.852 157.075 128.839 157.614 128.032L160.024 124.416C160.177 124.187 160.486 124.124 160.715 124.277C160.945 124.43 161.008 124.738 160.855 124.967L158.445 128.583C158.062 129.158 157.959 129.848 158.152 130.532C158.368 131.293 158.923 131.924 159.675 132.269L162.131 133.395C162.381 133.511 162.49 133.806 162.377 134.055C162.291 134.241 162.111 134.348 161.922 134.348Z" fill="#1D232A"/>
<path d="M165.159 147.017C164.886 147.017 164.664 146.798 164.66 146.523C164.657 146.247 164.88 146.021 165.152 146.021C165.352 146.018 169.992 145.905 170.601 141.386C170.637 141.114 170.89 140.921 171.162 140.958C171.435 140.994 171.628 141.243 171.591 141.519C170.87 146.904 165.222 147.017 165.165 147.017C165.162 147.017 165.162 147.017 165.159 147.017Z" fill="#1D232A"/>
<path d="M187.515 106.313C187.488 107.18 187.409 108.06 187.266 108.943C187.232 109.142 187.196 109.331 187.159 109.524L186.322 113.84L185.331 118.954C185.331 118.954 184.776 118.844 184.693 118.828C179.633 117.832 180.757 112.443 181.757 107.771C174.295 97.245 180.142 90.4414 180.142 90.4414L180.149 90.4447C184.859 94.2234 187.688 100.067 187.515 106.313Z" fill="#8F5049"/>
</g>
<defs>
<clipPath id="clip0_11961_7241">
<rect width="375" height="375" fill="white"/>
</clipPath>
</defs>
</svg>
